<mxfile host="app.diagrams.net" modified="2022-08-11T14:24:58.110Z" agent="5.0 (Windows NT 10.0; Win64; x64) AppleWebKit/537.36 (KHTML, like Gecko) Chrome/104.0.0.0 Safari/537.36" etag="85hRUpkUF8fewXJkc2oL" version="20.2.3" type="github">
  <diagram id="O69w8pVJZlVQLpLquWzN" name="第 1 页">
    <mxGraphModel dx="1234" dy="572" grid="1" gridSize="10" guides="1" tooltips="1" connect="1" arrows="1" fold="1" page="1" pageScale="1" pageWidth="850" pageHeight="1100" math="0" shadow="0">
      <root>
        <mxCell id="0" />
        <mxCell id="1" parent="0" />
        <mxCell id="aVhDxT10VZlNodA0CYwv-1" value="" style="shape=image;verticalLabelPosition=bottom;labelBackgroundColor=default;verticalAlign=top;aspect=fixed;imageAspect=0;image=data:image/png,iVBORw0KGgoAAAANSUhEUgAAAMgAAADICAYAAACtWK6eAAAAAXNSR0IArs4c6QAAGI5JREFUeF7tnW1sHMd5x5/ZO1KKJYtHnmTJsmyfZDmKX+pIduoGqV2TaAPTieOIUou0hRWJSPOlRdG4reF8k/StgVukLYqiLVKIloykaCtSVgxLhj+IaoJCaOvSLuK3WLVOSm1ZEkkdaYkieXc7xSxvz8u9fZmZ3b3bnXkWMCTrZmZn/jO/nXmemd2HAF6oACrgqwBBbVABVMBfAQQERwcqEKAAAoLDAxVAQHAMoAJyCuAMIqcb5tJEAQREk47GZsopgIDI6Ya5NFEAAdGko7GZcgogIHK6YS5NFEBANOlobKacAgiInG6YSxMFEJAOdXShMFaCPJSs21PT+tOkxp3sT4OY54EY5WbVamD9vVIZ+vTfOlRv3W6LgCTY4xYEObPfBHiM3YYA6QdoQBHtvuOUknHDgNNQgzKCE03MoNwISIzaFopH9zEYYgSBu3ZGV+5MfdE8idBwS8aVEAHhksk/kQOKfRGLijv7OCHkIM4w0WRFQCT0Y1BQIHsBgC2ZsnAhLJK9hIBwCldYO9ZvUnMvAZK2mYKzBc1k46ROhtFu4ZMNAQnRiYFBKd2f8Gxhe6fsP5e8W/EY9H4ttGaVyuTQON9Q0TMVAuLT7zEvo8Yp0LIBcNpy3wq6bZ0uYdOEx26+o+c71euLBVb1hem5qCMXQQlQEAFxiRPHjLHu4TugsLUIq24r/Ovp7/b+VtQR7M7/xBHzlD2jzZ6dhJnGf3MfzVRqc1ULHIkLQfEQDQFxiNJTHG0OPNEBxqBY//AdsGbr2mZWQujIK0/nhkXLCkvvBMSZlgI9cOaZ46cbtpLsngvaKA5RERAAaCynDoUNTPfvFOiIUTcOfulvntpPaavx3glATu7JHbTr6XAsCMNCgA5XpnaPiGqiWnqtAWFre5qjDAwRd23LUuQrL9YPpREQ52CVXDpqP5toC8iavrH9hNADvE88a7YgxgteXp8sAOKcVUS9cjrPJloCImJrBIFhD7osARIBFC1nE60AEVxScXt1sgiICxS2zLT3XoIm1TKpkwGdNhm1AaSxBmdeqtCLUnJgdnqoaeyGZcgyIHbbGktOdkogFBRCyIAuG4xaACJgb0gtI0QAadSF26tEKRlxwxrk5nV6scLAdv/eeIhwzSa62CXKA8Jrb0R5KvICwlsXL3fy7NTu5n5KUoCIziaiM60osGlIrzQgnAOyTAgZjrJk4AFEdq/FHiSkTjbba/+kAWH35J1NGCSGCS+oapcoCwgnHOMzU7sGoj6puABZOvTIZQN51afdgDRnk+LRQ2EnmO0NUxUhURKQNTydKmiIB0HEBcjSpuQ5SRjLM1O7Ntt52zGDOOvJY8OputxSDhAeOKLYG14DnAcQa9my9KKV6JGWliVguwFhdefxcqkIiVKAdAIONnh4AbEgaXzIgWsmIUbZyzbqBCC8dolqkCgDCM/TOe6ZI8s76VyAeiTiMd5VcgErAQjPJmBScIjOILID05mvUzOIXYfGiQTmcPDdVHQ6FeJoc6fKyDwgjc4KNH6ThENHQBz2FHsVWWlIMg9ImDs3aTh0BcRhuAediJY6mdCp2cLTvZ6myojWJcz92A44dAaEB5KsG+2ZnUHC7I52dkxiXiz2PV6Pt/o6bYO4H2ShDyrHKQDRh2Cn02cSEA67Y9nGWtIi8wISBrVPPVOxDxKmYchSN7PH5DMJSMh+R9s7gxeQnuIoDRtofpB0ciedp85hnq12zug89eVNkzlAwp7C7bI7nALzAMKzTxPUac52pW2JZddbxaVW5gDpKY4yl66na7FTTykuQDJ6WJH3ScsJSdtnd9H6u9NnCpCQJ1Rb7Q7RGYSlD3NJ+3UmOy3bzvdBog6qoIdY1nbZMwVI0ADrxNLKHkg8M4i1uVYYK5kG7CWEpvKNwqhg8MwiCEhcKnuU4wdIp5ZWooDEJU1abRBn+/xm+6wdQcnUDOJj6HZsaYWABCPvfqBlbfZgrcsUINYyZemdCusMEM83q+J6ageVw7vEiqsuWZhB7LYyr6P194zGUswcIHENsjjLQUDiVDNdZSEgMfQHAhKDiCktAgGJoWMQkBhETGkRCEgMHYOAxCBiSotAQGLoGAQkBhFTWkTHABk8REuQt6LG2rE5RGJ0pFROrFYsChBYCmZKoUyBjgMYp0/uIR0JNtp2QAaP1PcTINxxOWIRHAvJvgIEypTSkSjfHpYRoW2AIBgy3YN5WhRoMyhtAcRvjY7djwrIKsAClrZjNkkcEL9dX1lhMB8q0FSAQPnE00bzk6xJKJMoIAhHEl2GZboUGD+xx4j8AXI/VRMDhGtZxbwVtqeCGufB9l7gGNBbAbr0QpxhmI95RQ92i5PkcisRQAaP0H4CwZ/6T7JReo8utVrv2A4I9HxSIANJuIITASRwaWV5IchwEo1Ra2hga5wKMFBIFz0FjdnFQ51EllqxAzJ4mO4jhHp/4p/BUSUDJ4fJ0kYQXqiAgAJhkCQxi8QOSJDtkUQDBPTFpAooYEGS9w1EFPssEjsgT7xonvOaBgmhI688nWsGolSgr7AJHVLAdwmfgNs3VkCCjPO4Zo+VE7RkAuxt9E1oTO8O9SHeVkABCnCaApRrO/jOW7VjnNnVjxeQAPvjxB5D+l4OKJZ5MsjHcwLdgEnbqQDdcJPM7ZhtOrK4gxwMyhy0zLIcQN8kIzI398ojPWi9Cgs4byW9NuyeoOz982VgdD3/OuRfvRCXBlhOAgqYn18Li88+BEmB0q738mMFJO73IronLG/YPmf/5Q+/C12H30mgS7HIuBVgcCz8+aOykLDqHPCbTbQHpGuCniIALe+IrHz6VcClVdxDObnyqs8+CLXH74xyA7bkanHuxP0w9qtgKmcQr2WV3QAEJMpYa3/ehb94FNhyK+LVMpNoC0h+gvYbACxApOeFS6yIQ62N2dkSa/7Fx+O4Y9kAGJjf8ekGcyYAsb81ayvwwB89svPmLcXtbkVE9kD8llbOMpmRnntzEpdacQy9hMpgs0b1m/fEMXvYNVy21PIDZHF67uR/HnztjJ3JIOZ58Ik3z9N0qSWW33dX7/7dB2Hdw3e03FcEkO4Jyh1kBm0Rni7uTBpJ71VQZcuLO0jz3Q8/QK78xwV4/4f/7VUOOwM4Mjs9FOhCbnm4i8gXFkUoKiBdE3QfAfA+xyVSUUyrpAImwIC9mSgBiK2JUIwSoRkkKO4Du3tUQLzcukr2NDZKSgEKMF7dQayXoyIAwrJzf/CcG5CQuIBWg2MAxDd6lJSimEkpBWIEBNxBifyE4gaEJwAlAqLUeExjY5p2SMQZxGobT9AlLkBCAlCy8zPW+x2f+9avfK7vl27d0GLocJ7kFTHQ09h7WKfEFQgFpPLzy2ff/tt//z9HTdiBVs9DrTzxSrgACYgNuGwtF9U3jYAkPsCyfoNQQNwe04ZjiTl+Wk5l8EQm4wOkePQQAbLsTBRT2r2OQ0CyPv5SX39hQFiL/OxnHjsEAUn9mMAKOhRAQHA4oAIBCiAgODxQAQTEQ4Genpd7q8/dPw1T80BX58Hcvg5oaQ2OFlTAqYCeM0jP2rGHwKQngcCyc9HVP94Bta/ga+fISFMBTQEpHv0XAPKbLQOhbyXc+OcncHygArYC2gJyHoC0HgMGgPkjjwO9VeoDADis1FNAV0BGfwEAm7z6c/7wl4FuXK1eV2OLZBTQE5BC3+jLlMBX3YrRVV0w/9KTMkJiHjUV0BOQnuLR3wAgr7n7tPrt+6H2jbvV7GpslYwCegLClFrdd+xec9+2t8jkPMDqPNQfWg/mg+tkRMQ86iqgLyCsT/GworojO6aWISAxCYnFqKkAAqJmv2KrYlIAAYlJSCxGTQVSCkjf2H5CqFeMuPGZqV3NCKP4PoiaozJFrZICpKc4yj5E2PrCFNCR2andgTFruN4HKawd66fUNyhnmQIdZyLe9/u/+kjhs7dsdQvK+10sNNJTNBTTWZVQQD75YOqN//mrnx4DYlqH+AgQ9mcLHEu/0eHK1O7AUAl8gBTGSjTnG/aqKWXUjzas/NE0JdPzwDYIzQfWshbghQo4FQgFJODDcS1KkjrZXKkMBcbL5B6CftOU866ygKy65aX1XXVzlAL9UrO83hWw8NwXwPzCLThEUAFbgTgBWWYe+EnMDUjj5Xf23SrfSxaQnr7RfwAC33YXbJbWwMIPfh2HByoQOyA8s8fSMkzgCvn8j/SH43qKY+8D0BbbhVVt/oeDQG/5jEAtManCCsQyg/DYHraGQoCwTPYX3b28WrIzyJri6IcEYKNXx86PfBnoJjzNq/CgF2laVEDGSZ0Mh9kdzgoJA2JnZqBAzuw3AR6z/03Wi9XTd/Q0EPJrrVYUgRuvfA2gKyciIqZVV4FQQCwv1l//2xtNCahhGeGGAacrk0OWt1XkkgbE6yay+yBrikf3ECCH3WXWhu6C6h88INIeVdKWWVhkAsD+LHmFolOloYLtCAWEd0uB976pAMRauhVHd9Ueu+0ouXIDYHUX1B7eAPWdW3jboVK6lnBjfmGwVWo0Z1v0BYQJpONG4cpFgFsrFFYtwLW+a3C2qw4VQmjZNI3T7njfGD8FEBDOJ4kSyTZfprDlckBTCJQppSMn9+SaUZHCYjgqIYx/IxAQxTvYah6bNe77kELhOmdrGShVMnByeCmIpcYzCQLCOWQym0wYDrulLkiCQmVnVpzwiusNCE+E23AN053ioXMCM4e7KQTKJ542moEsNYSkGelW1mMqOjpS48Wylh4TtGQuxUhX8nOKkeBo9KzbjakRJMtipWsJiA1JHaCfANwpSnua02+9CNvvnKI7fevYMMgNAiUKpB+o/0OCAj3gNNwbNolSerl1WtxBloVv1haQNA9y2boNHqH9BHzfp2HFjp/YYzRfPBs8REuki57yhcRlj8jWK8v5EJAs956r7k8cMT3faLOSuewKOysPJE57RCG5uJqCgHDJlP5EgXBYYezIwMk9xPOMkAVJ3v9FtbiPVaRfzU9rqBQgbAlBayTw3d8sdQ5vXUmeegaPtPMHwdGcSQ7TfYRY5XheDBKzaixbn/PWL8vpjC5zP6WtcTPjfmjE6sUaPFLfT4B4fdwhy32RVN2X2R1BNwmbhZKqYBbLpZQMu4/oRGlHzICEGqNR6qpOXh+7w6+BofaIOspEbkm6AQnzvkRuvgIFWO5cMuxndwRCEmCPKKBM9CYIPnh4bhjrDMJuyOHS5KmXmmkk4WjaIyFGu5qi8beKx6bjL20pZeyALEGCtohXR8TRgYMhRrvoAFAlfdxLK1uXRACxIDlESw1Pg++Hu1TpnLB2sJ1vqBkv2Kdxw9KH/c5maYOYe728OGF5lfqdsLcu6Tjz4sWlrVufxABx3ojBolTHCDQmqY6zH0ICVVEqaZK6OoVqCyBK9Qw2RisFEBCtuhsbK6oAAiKqGKbXSgEERKvuxsaKKoCAiCqG6bVSQDlABgdPlM6dr+68dLF+TOQTk1r1esyNtTW/aZXx8cR/PflPMRff0eKUAuS20rGJa5+Y221FN6zPH3vv7aeGOqqw4jffuu2lH1yZrH/Lbua6tV1vTF6qDanycFIGkNu3HB+bnam1vNK6ZXP376j2VEsLc9vuOf6djy/Xvu+uz5qe/LFffKDGg0khQI69PztjtoRQ6O4mteoNuLudT7Q1n8Z0ZAcTR2anh5R8X2PdraM3FhdhpRuQ3kLu4/L/fv3WtIAcpR7KAOJeXjlF6e3Nj5fPPtV85zuKYGF5vSJxUUoOxA2JA0JWpTKpk4F2PgRKW4+funq15hn7jy2zzr73tR1hWmXhd2UA8Zvu7U5o11KrpzhKfTq+PDO1q/lNK9nB0Yj05fWmYtsguffe4498eKn2E782tEtrWQ1F8ikDCGv01m0/nrgyWW0a6U4hVq0yKh9d2NkrIo5oWo4wdZGWXI1owwwOz7NthJABmRgYou3ceMexq9evmwWvfCrNHqx9SgHC3I2vvzn//uIizXt1XtLGYwMQng/flQkhw7yDOWDWWNZMkdBiolDY6d1eK2c5K1YQuPzRkFJjSqnGsM7y82ax35jBvq43N/D220/9VHaAhOXjmEWcRVgx5g2A09Y/EqMMNShDHkqmuRS5yyvUnV8deANThrXB7/ewtvX2GN8rf7Dzu7LlpzGfcoAwkTu9BBCYSeIaE0IzkuxNP3vP8XOXLtc8l3ftWMLK1jtKPiUBYUbkZKX+k4UFb3s56aUW65A2QhKL8R82iMKcILetzz+a5MwcVr+kflcSkLClFvu9HR0aFBE4jg6lQEdmp3Yn/r2xMK9VO93ocegmUoaygCwZ7Dfe8drIsu2Rdm0gWqDkTPbNsH0inROQVjiccZT7Bi1Zu7th/srFXcoGslcWEDYgwpZa7XZJRgRlyaAnxgu83q8oUNh5g+wOlmbDLfln3nvnqb+M415pLENpQJjgQTu+7PdOLA+sGPMNTxUh1N6Ndu5KW6HW2A45pWRcNsZ31AEXZnd0QruobRLNrzwgTJCgJQL7PS07vwycdh4XCRosYXaHql4rtyZaABK2gdiJA42iT7J2pw+2O0jtysWhrnbXqRP30wIQHntk9Wpj/voMvSctT/BODAb7nmEzrup2h1N7bQBhjQ7aZWe/q/ayjwxkYXDoYHdoCwhreNCBRhsSVY5qiwJSuuuli1cr9Q1++VR6z4NXG61mECZKmD3SKc8Wb4cllS7M28fsNF3sDq1nENseuXK1fsrv1K9ukASd0GVaMDg23da1R8dXl7WbQeynQ+mul3577ob5I7/zWrpAEgYH00Eno1xLN6/fskR3SMKWVbrDwdqv7QxiQ3Pf51/+sytXqs8FzSQqerfCvFUIx9II0R4Q2/27MF/fGQSJSvskCAe/qwMBaWjFlhtzc/X+IEja8UYif9eJp2THRyrXzB/7vU9ul7hpU/f33nrzSaXeDBRXC2eQFs14Idm4sfvFN1//auLvYch2qle+sIOHdp51a3P/ePa9r/9enPfOclk4g7h6b+Ptxw7V6nRf0EzCsqy+2XjjeoVm4hOb6zeOnZtfCI/ypbO3yg9iBMRDGebduj5nHgnaJ7H3B/oKuWfT+j4EmzWmK/Xns96OTs5ACIiP+my9HraZaGdl55Mqk/XhNB10DPrSpLPJzPnw4fmdyr4RGBUuBCRAQXYs5a2fL7zm9c1fdzZmwPf15l6+9FH9mU6Csu3e42NXK8EeObvuurzTEQUSBCREPQbJu2erh8I8XHYxnQDFis9xofp9XjBYXXU7lSsLCQLCqRyvXeIsjsUnSXJGseH1+4i0X9NyefLG9KUhJT4uzdl90skQEAHpNt4++qfX5+B5gSxWUrbO7+oyzvQWjL+PeuCP2UZ1gD/55JrZH7af4VfPdn0uSFSnNKZHQAR7pac4es7v49E8RTFYPrMy9y6A+XrOID9jYcvOna2ecdstbHa4cKG6aW7efDLfRdbeWKAPVRfp9jD3M08dkgjHwHPfLKZBQAR7zSv+h2ARvsmZ/cJ+DHPLRr3fzNQu7HdOEVEoTqHsZIXi0X0UCAtBkOorlyeVeo16hShoy6dKUy2OQOUQEAGxWNJGjA4W4qDlYoMyn4NCHMsgwWo1k9s7/DRHvYLsAC6vxJRFQMT0slL7RZFi8Tm++Ms3jTO38PXr9UeSXio5q+6O6OtXRwRErMMREDG9bEA8DXV3ABvmGq5T8o35G7VBv28ES9zeysLsle4V5Gc9Nxl/6P6qelAcj3ZFoZJtV9ryISASPbKmePSQ14eog9ynNiwA5v31GqytVulqkRmmWMxdW1ikZ7sMeLUyTf8uaLc+yE5CA12swxEQMb2s1H6AAMD4zNQu7mi67ElfKBpftAqldDtz57K/1qp0csUK4+NLF+vH2P+LHl1xRcB1thANdMH+RkAEBbMMdX9PlhAgErfmyhIASCrqx9WIlCRCQCQ6IsiTlYYljMwSUEIGLbIgIBLdnPY1flxLQAlplMuCgEh0adrX+AiIRKf6ZEFAJLRM+xo/7QBLSN6xLAiIhPRpX+OnfQkoIXnHsiAgEtL7HVhMyy51kBOB1MlmUbexhETKZEFAJLrS78h7agApjJVojrLd/pYLARHrcARETC8rddBZrMrU7hGJImPP4gex+zhM7DdWrEAERKJD/QZfGvZA7Ob4LQPxLJZYhyMgYnpZqb28RGlZXtnNadgh7Mh7ydFEPGoi2N8IiKBgzQG4dNxkL/t/Fst8dnrooGRRiWVrQLKfQUKBjs9O7c7U51ITE0agYAREQCxMqp8CCIh+fY4tFlAAAREQC5PqpwACol+fY4sFFEBABMTCpPopgIDo1+fYYgEFEBABsTCpfgogIPr1ObZYQAEEREAsTKqfAgiIfn2OLRZQAAEREAuT6qcAAqJfn2OLBRRAQATEwqT6KYCA6Nfn2GIBBf4fnCPJuYJjI8wAAAAASUVORK5CYII=;" vertex="1" parent="1">
          <mxGeometry x="200" y="180" width="90" height="90" as="geometry" />
        </mxCell>
        <mxCell id="aVhDxT10VZlNodA0CYwv-2" value="" style="shape=image;verticalLabelPosition=bottom;labelBackgroundColor=default;verticalAlign=top;aspect=fixed;imageAspect=0;image=data:image/png,iVBORw0KGgoAAAANSUhEUgAAAMgAAADICAYAAACtWK6eAAAAAXNSR0IArs4c6QAADXJJREFUeF7tnYu15DQMhodKgEqAShYqASoBKgEqASqBIxiDySZ+yHIsR9+cs+fuvWPH1i99fsVxPnnxQQEUuFTgE7RBARS4VgBAiA4UKCgAIIQHCgAIMYACOgXoQXS6kSuIAgASxNGYqVMAQHS6kSuIAgASxNGYqVMAQHS6kSuIAgASxNGYqVMAQHS6kSuIAgASxNGYqVMAQHS6kSuIAgASxNGYqVMAQHS6kSuIAgASxNGYqVMAQHS6kSuIAgASxNGYqVMAQHS6kSuIAgASxNGYqVMAQHS6kSuIAgASxNGYqVMAQHS6kSuIAgASxNGYqVMAQHS6kSuIAgASxNGYqVMAQHS6kSuIAgASxNGYqVMAQHS6kSuIAgASxNGYqVMAQHS6kSuIAgASxNGYqVMAQHS6kSuIAgASxNGYqVMAQHS6kSuIAgASxNGYqVMAQHS6kSuIAgASxNGYqVMAQHS6kSuIAgASxNGYqVMAQHS6kSuIAgASxNGYqVMAQHS6kSuIAgASxNGYqVMAQHS6kSuIAgASxNGYqVMAQHS6kSuIAgASxNGYqVMAQHS6kSuIAgDyen2W+frq/58e4iFPl746+1ue7er7Ur7fL+JQ+/c/suula8jPq+sFweDazKcCIkEn/z68f14FfvgAOAiQg3IER35PgJXSPUrTpwCSYBDnfPcoD+1hjADzy+v1+vXdG8n/H/F5AiDfAoW7WEzAfL/78G1nQKTX+Pk9hHIXIVTobwUElB9fr5eAsuVnV0C+fMOxpegBKy2gfLVjb7IjIMCxJ2FbQrIjIH/uGR/U+t2DfL6TErsB8sPr9fp6J4Gp60cKfPOel2whzU6AMLTaIqSqlZSh1ja9yE6AyIqVQDLzU7tRlpd9dlc6fV+7M137/mhj7S59Sl+6IZp2AxyvlX5PN1dn6puuvU0vsgsg2t4jBaLcuMqDUoKbrRbnKJwBI3Dlf5ecI43VNr3ILoCc9R5nwZ8Cn/1Fd/QD/0GTYPki29pT6/W26EV2ACTfRpK2MvQOUe4JF0rJFUiAHOGRNOk793ORHQAh7J6pgEDivqEDkGcGH1YZKQAg40JerQrlQ4lUSum5kuN1jq3r8fd8FU2uX0vvvrUed4X9FQDkH02PKzf5kuhx+bM2+bT3kv0Vj8vZOWAyz8t/D73gEQGQFODy8yzwnxDw9gh9fMV8WTwMUDsDctbq5639yDr9HQH39DLOgJLeSba/b/PZBZC01CtBf+cd320cuVlFBR55RsQ9LN4BSWDwGO1mBDRW1z0ongHRbi9p9A3JHCkgDaDLpw69AiJb2mVrO584CshwS7afuPp4BISew1WI3FoZdz2JR0Du2NZ+q9cprFkBmZNIL+Lm2CBvgHCET3MsPTahwCEHPLj4eAOE581dhMXSSrg63METIPQeS+PSVeFuehFPgPzGIXCugnRlZdw8cegFEFauVoajz7JlHrJ8su4FEO57+AzSlbVyseTrBRDmHytD0WfZLuYhXgBZfSBcvvM06mZIbxq4mId4AeTOCXo6cVy2XpfGuAkUOalD5khP2j6fHoIS+38qPBueH7wgOtx5qiWAZD37bEASFCMb4p6ws3h092xqNGRIfEeDIaeeLH1U2EsPMvMGofVkb0dQZmzhEB1kaDwTlOUrWR4AmbXEO/uOrATIDi/wmX1A28wFFuvGrXs5wgMgM5Z471oB8dybzOg1rgJsVmMBIK/Xy7oFWiGqtQ3dLd0hw10NRF7sjCHXCjv+J6WHHsRyiXcFHElQL5BoVn+OB2Dk5x73wGoNCYC8x/EWEz2NmPm5v2mFJgWH5pXGqyHpmXflB2GU9E8rgKXl4GNPYjU308DeA3Q1rYcexGKJt1dICWSZ+7ScidUTINYtaNWBhwQtqz7aeVOvDuLX0U+vX0fL+yi/B0AslnhbAkOMH2nhW++lSABaBEevs1uGlxYrhq06WC2+LL0XshoQi2BqHVpZPcrbUp7lvKoVlJovRxqHszrUgLRa2Wpt/Fp16kpXE7XrYorEFi1ai4BWcCQTa12/Bfg9ctbudVi15sc61SCxKLfFvz1adaXdHZCW1twajiRw7Zga6xa75NiSHy0aoauya/daLOZkoQEZbWFqLefsIC2Vf1cvUgPVYhGkBGetNx31Qc3HXT1Cb+LVPcgoIKUJ3B0BWguOWb1X7udSCzuqb2s8lYZaoz1YbRjXWkdVut0BKdX/juAU0UsBOtp6tji1pMHs3qN1TjZSDwBpiYKTNLWhhcXycUvVSvOg0dazVn5Jg7t6j1THUkMx0liFBmSkhS0Jd2dwlIZZs4d5JUDuXmou+WPEz7WGsNaIDH2/eog1Ilxp8nZ3cFzNhWYD4kmDUk864mcAUSLuKThKw4uZQ72SBiPjfo1LZg01QwMy0tKXgvLu4FhVl1XlngFUGmqOzMUARNNcvU8Bv3qF18ikUFOd0nLzqh7kbg1KPcjInLDlZrDGZ015Vs9BRnqQ0qTw7uAo6TgTkJIGI9o2Bc8hUamlH5mDhAZkJJA9BccVILMn6bNWjjSAzJoTAojGG+8zra7eIzEy5u2tzsp7EaXgmQ3nUafSMHOkNwOQ3oh8p195/yGv8qyWs0UWD1tdpJ61eowMMwGkJRIu0pRWcUZarZ4qrd7qUdLgrp505n4wVrF6ovGQtjbEsHo2+qqKHnbz1lrYkXlei2tq5Y82VADS4oWLNLWufWR5sVatWtkjKze1svPva/WwerLvqk615zVGhldSZmhALIKoJqBFGWfBMTsweiCpaTBrwl7TwEL7mm09OnWnXX0fxELAlqNuLMrJxa0FxuiwoteRtSf75HqWPUlreRaHV7CbtzcaTtK3tDIWkNwZGL2ytGhg8QhsS4Mkdbea+wBIbyRcpG8RciRAZDIqk/J0sNxVta0CQyNLiwZyXZmbSYPRci5YqofYLa+PuNrek9fXcvWs1SaNXtU8q4dYlpPoltY9CSLlfmg8ur/nuivhENt66prgSDocT1dMDYEAUXvZ0Cw45Lo8k17FuD1Ba/efrihBIoEhb09K43S5RgqOnhfuWLaa7RZ/nLJXg/wKCZpaL3lVvxmLAQAyEg0neXuGAlZFW8xvrOqSepLW4ZBVubMaiNCAzBK19XhMi+C4e8Wqtc53amA5VD7aV1sxbNVDlW71HGQWIEkMmeC1nkreK+DIhL+3rJH0szVIB4GP1LGUF0BmKfu+rnVLqj0dfbKZxcvvrEFoQGZM6q4iRYIkvfa49Prn0gRUVnykRd71s6MGoU93l0Ab3aujCdYUKOklOWliK38/vm3p082hqDUY3jVYOg1YWvjbc6vvHWgAI889CtQ2Yk6vBYBMl7irgLwH68r40MQt22emmu4BEG/3EKYKfrh4mjwf71SnYZ6s8rXe8b+z3neVBSCDr0W7y1HW5bTu60rlCjCzl1OtbbS43tKbhGKAhx5k9r0QC0dZXaNnr9RZmZZb1q1smnkdAHmvGlk8NzDTURbXttqVuuN9GK1+S5d4vfQgUo8VS71ap2nyzbjZNXN7h8bGGXmWj3CWV+Ct6t1n6c5w5tk1R4dUtXo+eci1fInXUw/yxHshdzn4qZAsX8HyBMjTlnrvgiNf5Zp9xFGtN7P+HkAyRZ8EyN1wPBWS5StYnnqQpyz1roLjiZAASNaD3Lmr13ookK63Go6nQeJiAclFJd6e9fpkXgtQs1erWuqQp9l94u5i/uFpiCV12bUX8QZH3pPsegN2xn2j3kbm7/SeehCpz27LvV7h2BkSL0NVl4Ds1It4h2NXSNz0Hh57EKnTDitau8CxGyQuVq7ysZi3IVaqm+d9RrvBsQsktfeMqOYQo5m8AiJ2pecfes6PHdWjlt/V+LhW2ZPvvfbOVjudFZKUs3gGJK1seTlJxGULp4gIT/M8972xd0DyIZecnytDrxUfN+vyRsavvE8iUKRTZXrOPjYyve8yuwCSW5UfOJ0/u91neXtqdxPH9qoXU86GJB2AnYCQnz2nxBuZOXaZHQG5svjsPCv5mxai3ufGxzyxJrf26cSz4BcLBAD5aA7mW6NApdQnAdIi8BGi/LUHMoHND5RreVFMS5k7pDmCkgCQQE//f1zwtzgmGiAtmpAGBf5VAEAIBhQoKAAghAcKAAgxgAI6BehBdLqRK4gCABLE0ZipUwBAdLqRK4gCABLE0ZipUwBAdLqRK4gCABLE0ZipUwBAdLqRK4gCABLE0ZipUwBAdLqRK4gCABLE0ZipUwBAdLqRK4gCABLE0ZipUwBAdLqRK4gCABLE0ZipUwBAdLqRK4gCABLE0ZipUwBAdLqRK4gCABLE0ZipUwBAdLqRK4gCABLE0ZipUwBAdLqRK4gCABLE0ZipUwBAdLqRK4gCABLE0ZipUwBAdLqRK4gCABLE0ZipUwBAdLqRK4gCABLE0ZipUwBAdLqRK4gCABLE0ZipUwBAdLqRK4gCABLE0ZipUwBAdLqRK4gCABLE0ZipUwBAdLqRK4gCABLE0ZipUwBAdLqRK4gCABLE0ZipUwBAdLqRK4gCABLE0ZipUwBAdLqRK4gCABLE0ZipUwBAdLqRK4gCABLE0ZipUwBAdLqRK4gCABLE0ZipU+AvJSaZ51y9cUwAAAAASUVORK5CYII=;" vertex="1" parent="1">
          <mxGeometry x="94" y="180" width="90" height="90" as="geometry" />
        </mxCell>
        <mxCell id="aVhDxT10VZlNodA0CYwv-3" value="" style="rounded=1;whiteSpace=wrap;html=1;fillColor=#CF1F1F;strokeColor=#b85450;" vertex="1" parent="1">
          <mxGeometry x="133" y="213" width="12" height="7" as="geometry" />
        </mxCell>
        <mxCell id="aVhDxT10VZlNodA0CYwv-4" value="" style="rounded=1;whiteSpace=wrap;html=1;fillColor=#CF1F1F;strokeColor=#b85450;arcSize=50;" vertex="1" parent="1">
          <mxGeometry x="110" y="239" width="12" height="7" as="geometry" />
        </mxCell>
        <mxCell id="aVhDxT10VZlNodA0CYwv-5" value="" style="rounded=1;whiteSpace=wrap;html=1;fillColor=#CF1F1F;strokeColor=#b85450;arcSize=50;" vertex="1" parent="1">
          <mxGeometry x="154" y="239" width="12" height="7" as="geometry" />
        </mxCell>
        <mxCell id="aVhDxT10VZlNodA0CYwv-6" value="&lt;font face=&quot;Times New Roman&quot;&gt;Forehead&lt;/font&gt;" style="text;html=1;strokeColor=none;fillColor=none;align=center;verticalAlign=middle;whiteSpace=wrap;rounded=0;" vertex="1" parent="1">
          <mxGeometry x="110" y="160" width="60" height="30" as="geometry" />
        </mxCell>
        <mxCell id="aVhDxT10VZlNodA0CYwv-7" value="" style="endArrow=classic;html=1;rounded=0;fontFamily=Times New Roman;fillColor=#dae8fc;strokeColor=#CC00CC;" edge="1" parent="1">
          <mxGeometry width="50" height="50" relative="1" as="geometry">
            <mxPoint x="138.5" y="183" as="sourcePoint" />
            <mxPoint x="138.5" y="213" as="targetPoint" />
          </mxGeometry>
        </mxCell>
        <mxCell id="aVhDxT10VZlNodA0CYwv-8" value="&lt;font face=&quot;Times New Roman&quot;&gt;Left &lt;br&gt;Cheek&lt;/font&gt;" style="text;html=1;strokeColor=none;fillColor=none;align=center;verticalAlign=middle;whiteSpace=wrap;rounded=0;" vertex="1" parent="1">
          <mxGeometry x="73" y="246" width="60" height="30" as="geometry" />
        </mxCell>
        <mxCell id="aVhDxT10VZlNodA0CYwv-9" value="&lt;font face=&quot;Times New Roman&quot;&gt;Right Cheek&lt;/font&gt;" style="text;html=1;strokeColor=none;fillColor=none;align=center;verticalAlign=middle;whiteSpace=wrap;rounded=0;" vertex="1" parent="1">
          <mxGeometry x="145" y="246" width="60" height="30" as="geometry" />
        </mxCell>
        <mxCell id="aVhDxT10VZlNodA0CYwv-11" value="" style="shape=image;verticalLabelPosition=bottom;labelBackgroundColor=default;verticalAlign=top;aspect=fixed;imageAspect=0;image=data:image/png,iVBORw0KGgoAAAANSUhEUgAAAPIAAADtCAYAAACF6CjqAAAgAElEQVR4nO2926LjOK4lCHpHVE13dc15rP//vPMLU2FhHiSSC8ACL7K9M6pPIHOHJYoEQRILAC+Wy7/+9S+VF+i///u/5V//+tcrLP7QH3qJ/uigSBGRl4D8h/7QH/rr6cdfLcAf+l4q11+9fpQi//zH3+Wf//vv8n/+8Xf55z/+Lv/vP/4f+a//87/lv/75D/mvf56f/+vnlzz06f4OETmk6CFFVYoeJ2MVUSndRej5j6rI+Q/ci9YMomeGK3v3L9okroIX81lLaeULWbVg2av1BXshkp4NcJxECtxrlU/xWqF57Pl1X/PWtPpRysSraufVWnvyegzL/aE/9If+I+gPkP/QH/qL6R1z2z9A/h9KRWyYfQawKkX1CgvVpokNyfE6hql52IqPyiBbym21UCi5Vm4dVIzfjmxZ7ZkEGqpoOcsfIP8hOed+RcQB+JoTXhO5AukjTiNlPjFY7uArndZGtS/ukz27S1n5WV2LRqQ1RsmfZ2f5p4tdrzb5D/0HUQNr/by8sjLw3ggEYW+k8tJSzILWsHBd26rLTQPltLEDCjCmPU+s5Jo9HxTHTxRAgbsT2y7i2YQ/Hvl/GJXk7yQbWjevXENsyOd5rrtWm3daiiw61xu7frvCYJ32eb4YAZRaa+KFaZm+av8HyP+DKQN1MaF0nSMzQO/W5i63GM3MxX1w3V5sSsODOz0E20k1JYlYWGoeWi/I8if8/s+jANqiUorKQ/hfATCjD+xgl5Y2JtwX7huqimk+KiXTzLmnxLDXP9sgEiGzuu8ZAV/K71j7Jz7+jpxuz5G3Fg//0G9DFcAPESl6fj7K+Veuv0fpXrkQMN8d+uZz2iEImDjjwYgr7R5I3qiY2XRXdwwYJ2PAlnPntd32yMZYTvK+Y58sq/sP7VGRE8CnN75ALBXcA48MoXWcw829sQ0c1aimKX2BZ92/r9ALGuPBrDEE3qF5uSyiSMpe8t0CMl1YX8j/KqD/APh1Klo9bgdzA3QReZQTrNUrn2A+OpjNSrYPr+dkt1jg35LPCV+j/W2gjIzJeYuoMcS21yu9eyI5BfKPx7zR7cjrIE9qRXaIMLk/JC9WHvbw8qy/I1XPiyH2j0eRHw+Rr0dpfy3cFrsA1heObSx8azyS0DUkDbZhdtPmeXiwmy47kW0j7JuRDLNVdy04P07KX2e2UyD//PE1EKHr89IAjhYqMgZJ6+4CeGuLJBAIA0AuPsdvAuRRKzsor1C6FPnbz4f8/PGQn19Ffn495MejyNdD5As8NH7Z4RXwLm8fJ2TBknusIYA8PpSAl83RdTTOGvMl8vR1ANsZuDc8NSZqTc4AyPnOFDqlshJTD9KWxlTftcg/gPOQWQRyyH5DOZmieMZ325jV1j3yCeavIvK3nw/5248TzD++ivz4urzyo86fca5MJMcVquWOmOddn3lbqXIQQAeTua4FCvPVPEEHFWf80yLJIh/OSNykZDxH/vnTeuTRYn4ebRZ6+fJc+U6oPVmRm8/1uxtCGLfTRsM4ajz5YB7q7NP3TyAqICuYH0UaiE8gP+Tr63GF1+WcQ1/lzPyYxr8qY4Cez1a88hzE+LkQgk7SQ1js77LpcUWSR6bz3jlwC0QEvO+inPErkEseOfeGZThlbDlLvxwJOaNbAG75uFEJ+TaA7P1yXKyZSAdagiVN3LCJZR5zKDwHEMtxAvnnQ/72o1yhdblC63KF1j2A7QC2i1xRRK+Qp7lT8tyDekUfGCjqfusopGVpCv+YvJmutsqVpMUaoycVkVKsrgxCaiMryGlVbbDY9TcyR87W/8rSEnecUO965lbcR7orZScuN3z/PFyqyYxQRmXwWZc8RVCAsr7+YKoaTHRKBSNsK+kJ1r/9eMjPn1/NI//4eshXuTyygEeW/VXqkwYHHugDEroXDlTMnYbJ5r5771F+dPJMRoLZwMzIZTyvz15EihKDFrUPQYwyDIAc58gxvL7UeRRWZ+hnCTPNpQBOTBmyLRaZqbpX8Ay8sm1zHekugB/04LXDhXvo+quXH4WrcMW61DS/byc95CEPUfn7zy/5248v+fn1dYK4rlw/OphFeWC1Ymx8n1BgrMTa0+lZBLuqGgUNAB9FA75OYjGG4+mSrX23XtnGTMSrK+G1Elozj3xWQ66HngByjkZ9w/3wOdoCay9nGYCAinyObFfoYp5xXSxjWVN88iC5Fyh5t3pvHoD8kCJH88x/+3F5YzNHfrTTXpcfYC3rsqpK8SGjjAG6tnoNHrQuNxNA988a8gJ4B+X6dQHPD+kzgOpcFTGktl65gMT+mtehGtsssumRsfp61ZSaha7RhfMHGyaezZPHcY71yH4aULzWD7xyFBNDaxIO0pJRVBT/rHtu+OzUhjwrTTID+L76/BCRQx4i8refX/ITPPKPx6N543Z085KUeeWJqKal3BvXp6OSyIPPO6yCe+8cy9HwWwtXMi/jqsywCICA7Xn6PQOo9/4IaHy8tI88GrSqNNErEF8S+j+CiFYo9wBs2ZYuUpC3EADXNPU5Dc9TjmjFA/8BeDGftXVVqNwbNjmYbhOjhKH16ZlPj9y88tdDvr56aF3QWCf9vRpMmTA2GzYyj4xZLUhZ+MrBfCb5gxahWVquPEw+UmcaP5OkcvFn4bPY9NBHULevP/fIX8kcuVl3FpYWcx0LM4b1OvPkEIikgz9mXROq9y29Ee2hERnzmGCHiI3VJ8amgi3PB0A3oiE6iUHBPq/pRFA7bnWe37eh/vbzS35+Pc7DIF9f8uORbD+F9m/Mb26QNY8Qbg68cXZNhyYFHYuX1QCpJ4E3HYUbnv+urPBn5Liu73lkr2wmDZWPh0BzF59T4qDGz5tnKu3T5AdNR69txYnf+kkwlqRFr3zmSzrI25rK1Ni74rPHewPm2oaH4CGP0yM/5MePLztHfpzbT1g/wInIV1NeB3jKoeTPM08e0q1DdnmSK4I4xUcYlQ0te3wycuhZ1IGyqWzNkW3Y56Pguopr38s08cqz+4RCNug4DosuTxpeFxtNpAGCgHdaAnBN85qTSkopzFSIjfTeOI6X/bJDkfO7yD+vsPrntfVU58hf1SMXW1YMr4wqoBHYE5AjXthqM/PEjqVX/BQkdAidvwwxN+QEWfnJrqRcXpsNq0mZEFLD9fJZawvcYhSlY7e4z2u4d73yAnnPEFjAo7rAVSCU8OE1RhI2HxPPWug0SjDKUiDfpPHqUtCoeNuYAdx79NINkPlaYpETwADkNkdue8l9241L/I4QuyOyA0RJA6G26p0nYGYSRswBjOBigGVQA7+IB/qR6HUrlz5b89pVvhzI1xzZeCmUzSkKgqVgfjcQ1hFpZEgpNnfFNojIdY4gGhgvV5e/P/OLx1Z0hU/HS4nEpuEF5vsTv4bsUZ4RoBMwl8tCGEAXbV74PGf96HPkRz8QcjWCGtA5TTwxoWnu4hS6iF1MS3hx4MRUFTaIlk/7RQqsl+1eOF+WhvyTax1c56H1T5wjNz9cExa8sffELBasnVhMGrn0xZJ04ilFBOfGBsRNJAtwAwLv2SqBqS5eo1w+a5yrBs4AHDuiArE3y+YpSX5rB9SEyqWofD26F/7Rrh9tsQsaLCuw2KFuUtbPG4t0+zn0tFK4tN4De74waLQ15CCHunQvFFGL1tRRj8Veh5VtKDuYI9tHHsTdE5+JBZ6Z+adRNrDtBNTsxiivkqysuLs3UYX57HI1+Un4bfHiet575GE8F6RyeUt44sEJIsdrB+Y+RqgGInXRq/Zt9b5fBU50wV5y75IZiKGSZTzbzFZhHTVA2LjABDdteIov2nnQB5F6GY3p7Xee2G9VcfLdwuPM0fu77PWSR2ar1iHUBI9mnoW4znljfO4uTUXksXlydeQM2E22fkHA7UDsV62xCTBoJRsZel3cZ3+mUvyT3GcX160MwGSssK8quPvbQfqRzAcez1wGsfWn7bP07pp/64ko8tTzWlCj0fd5TBqGw4SxB7HPo/YxyaN2IGSgErXOUv8h/KTLoVBvXXRbOqKZKcZp1UvqCVpG/ESG1I1612P9VAWOGT4Ic3N5I4jDAlcDgfXEpm2jWI5dB8UFMA+wYeRgwDEgLtErOwD2vB3A54X2L0e0k1wI5Oy0+MzlLrtkElK7gxH4CQHQaCg6O+bZcRErmkv1+ZKybQ+ZHCbvsrqIDWRb7SHTP85w1JNh+at+vqxvYF65XINexCqPmLwlFsT7lkYaO/JSLeLGlmmvzrBBYJLwujivjDyK4+WoGC1z1yEtclKfv8qW1qnG4DQZmczF1uSf1bS6wNfHVNqiJQfxIpUmbuLD+5NxOJl9PTFowNDMtJDYZLBAw2TDN4TXHIn8bLlKP9Y4bm+QA+7ZX32WAvk40MNdylNK296rR/eK9Hc7cQ/rrp0nZNsL4cBGTVNfTMXsPbBykNy8C12hxjTvEYEP9HBrs8KnaQekFfEXPYwq0qbaoct8pdLl7CAGOQOINbalgbjE/GZs6z4y8SofIO+ZFeRuVOwJudqFY0NQL0a5/AsinIPgXG3kQObSveugTeruI1sbbHoZQogyALIeR78JACkiRU0oVsT3udoEA2Tx2hbq6VlKfKxWjo6EWF0t15TWeWdMM57Oi45yq3C1HoE6ShWBrj2d9ISxBQF8vQluIQzLWm+ObWPttDI411onvNM271FjQQDsEkKoPeI4Es3kGAHoetK/sNC9Mv9KojPB1qq0CCERaKk7ax/MgXx5BH8cMHhkVAbMaBO70hRMD1pz1kDsQMhePbJbSbFAtuF0U2RIq0L5Kb2ZRws8U0gzSgwPjIKTThC5fszMJvOc9gbbgcCL8l8yVWMGeQNPEdC28em2mrr2gvWcTOmrrwJHAmLDw4C5AOM5IvywMVBj7n6Ki8PVGABwPD2S8J45sAi39OSYy58DGZfFShG9Tmx6xa6rnqUBHigDckE+HsRR2fJTRdUjIGpcnqbglwfCujHUBnFaujjvhp6xiulHBIGJwije2FZwsA/AVtvlwBxBbAFcPK9uDfu/PvriCIY8bwazT8NQunQvHHRbL6M44sWMBGSIYa5DTkg776PT7vNw38eddRIpeEAHgLcf3DFipUD+9XyKyKXXj4eoniuZ8igix0PKozIDJbnIKAA2BBeSakicuB8PROHZrNdLPEhbYUdFX7nGZngFV2wnIJXJo5jPEYaqWRtJFjtHdmktbxF/KKQyt+IYS7NOs2IYgr7MmBm+MaVZCHANzNSnjNJkkpbbwmkTIMO5zZRZogGQ//3r2a6/HnoeGNAT0PIQKeUhj0PO72228BYkMAoNGn19cVurkhnCESpQxHl6bzp9fOTJ1OkZESvAuv+KTCqI3UNebxTE8o0uIKWoDFZebgZ25Erw4Q1SIpt99JqHXiI/POE6opUC13tZc69JnuiVQwVczPBs3FPEKlyfRcREzUtAPr70ArHI1/VmiVJEjvKQh2o/3N52/q/azJK7c0+qVygERyEQLNkIpG3tnem9MdbZJrjJWyYsYwLmJWL5GC+ijbMIpN1X8LFGZHLO5T97hynQJMZOajKLQDfwzb1mnrtibq4yiioDFxbEVn4CeA+u67YMfXEnPno6bDgbowGQf7Vih6ro1wnYs/hDHkVFi4o+NNakdcuj9lQRXEQJv6HTVo+Yd4Rs/ppa06xg569aWmjf/TSr90wLs4QBjX/7AIzIlWaVqAQxZqAOEUxK60aIO+Bez8hB+yG5J8MqFQOeCqw5+GM+dqO4ymSYOguQNnp1bGx+06ZuEUmdPX3JI6t+SVO6a2X3qxQ5Hhe49XJ2xh16EPfh70F1/7eDZWECRPssJppZrQrIkVnLHMw5b0xbUFRmXUlUMfPMJfzLDnkmla4KN6Ht0PAFoqPrLErIQ6pXtshEgGhAjBlXKpnQ3ooErpRnWQah9f/3qy92dZ97bjo9SpHn45AvLXy6EA4gW/Co2X/EkFdMvqRdMWHaK5Fn9cc25BYnS15+LNO+PPcoMzwiRsuX7BY3hD71rtSzLmrPyTIJrXhBkFjnyGv2+wDicBpMooecSYJTuez011IaJAOfqUc2/Xot6z7K+S2Z46geOdEUn6zav73S8K0AZoGwNyc+hqxMcc9JCH/N1THIDh2/QD3UXxDrBvEIoFZQjZAMgdnKtXxgBN9hV6iEGu5rZNcVsaZf+Qvmj7LRl6vUZ0kKn597h0M8cThvDX2mrTXWnxi1K6AchfDjhBPQ3ouZgi0udp3MipTylFKKPI8ix/EQVZVD0WMPQKbSDz+YubOAF+yd3k5eDflmjfPPFrXURwYJmI2j2AIvIu0+wmMITdqZ2NZiMiSivZVyMFMvbPIRmTyoh3UPjJmglyUgvtIbh8ExTQvO4obDRaJLtBY5oFxLi13nFwmeUh5FHuWQ5+Mhz+MCcf0elddRWNyK3hcbeeZROX/CpB+57DzW9WumjdEb24W2Kw9a0ZFnjgb9bR54TqytHpzFTCUNiBWu27SCsLxFHLxdQryvXthHSwlbQlTt1V/HXBAfSBzA+D3j/hi98gjg3VFlh1WiTNb3Whm7XLZNoznyv6/QupT293gc8ngc8nUccuhxrmar7yILvvDjWm1+XABTFTB9IBuOlzqAIYqF1bFUnSerKhz6WNBoXdD5D4Da1knkNEmziASsehnlewcxgDI1TcomM7ecCNdBpGSAoRmIuaT2B9mi3s3VgDss2jtggBXSBh75aHKV8uggfqg8v/T0yHWOXEUGT9umzQao0xaJDW+FKhkEKyNGVz6n+g2wCViZ8Vhx9Muotczu7K3uk0K7sgq5ofN5eFfkIB2mtSlxgdGCuXLNVHzJFw2OhgsItVlo5b3VBSH6hQcFESHqo4uonZ0JUD0v6S02/hpknS92lSKPx1O+fp1g/vo65McF4sOt5jUwy3UBoBipUC1tFptA/LMPbGcu+EyTM5zrcgzCwQoD6MW95LlrsTJ9C4hHhi83aAzEnp+G5ztghpDaWv1UpvdFDBWI1zUbBwS7A74PayPh1HDerpCi8Xl/o1mMHkQWPfL5/qZDHk+VH89Dns8aVlePrE1GbLONVOMBySj3ZY3r+ErfG8Uvk2C5QrhEpRt1ZH6/5nlIW9QfmawP0ROve8Z7VAe6R0JmkXhY31wGLv0qmN3TpUChhG9O7pIm/9bPoj1cbeBx0RYPdQHsBWB3TRcLTiMzybejOvjUEZCfddW6yOPrkK/nIT+eh/w6zrD6DK1FDpXYGFMNzj054XHtsKJtOM3AXNP82eziohwrE5euWlWfL1cjryLcz83mTOuxxpgHu65Jo2nOat3dSu97ZuKlLkOvxjvXK4iHIDLbBzSGdBqSbLbocQ2wqcc++bbbaqVa3LzQt7RBzuCA+DU9/cnFf/86rr+n/Pp1yK/n+fd8Hm1+jItdXX39313rqbZTXJP2eM1KVohW15XnEZszyqUkzeSLBo/luk8jIzPjvwvirMxaWjH/ZnX7SU2Jc80du6fEq4o0ZBgz65e+AeBVPzsPFc+555+MOfPGTR6aGXie9wOPLI3Rr6fKryd4YvWh9Zkz2GbQbrPNUD2v83h3adVTezIOH53DMLyW1oc8rH8TXYdncgXHuvM87/DvnUZgi31wq1fMnBm4F18Tu4q+njhWSCNe13tcxmSzYctjwIKnFjkoqb470tQj/3pef8f59zxEfl2e+Hl543oYpLebies7a394hyUW+pbY9EXmWfdD/KFurJdoMTNa9OYBuJ8//1WX8gYqBf6ymkXmaw87dV6lByz69603asSBCt9kopntZ+t+ZhXG9aqvc1B8/uPw0XvPPXIR+fmUa24s8tQrrD7E7iODEWuzJ+hZ6/1U7Kkukdn21NyqKexUvc8HyUK9/HpGvrfsk9aHGMTQHPO6jYeiNSYEOw6thhIuoB5Y6HmBiuDvE+fSnv1yevA+l57UbobLGT6YN9v7AQCnXsbFbaPjzD5Jff/mXmvukatXfgqE1n1+7I9o2np6R6hK33PWUyjwNVS6rI9GOVPLN2PkisxD2o16loVgz8Ze+A7nHambZyz4ljYa27yB/DrEnH+ThjmNSr7BLrKxOuPAwg6F3Br2RYNPdKpPX2NaxVEK5OeBfxd4YZGrzZHFLnj17vAIH4c0NGqR5eYng7WS0T9OFmqWLPAi7U6YoGO8jR6UeiMlAmt/prO8WfH3STOpYKRYvK9D/uFJr6SeSXLGJ3zdEi5M2nWTv3zPXRuwotFS+2mCm+KYYBpEGH3f3J5JLVcj8Zu2vg7zW0zXw85OW5hWtMSvRtdiGqNxPIbt3i0ONA/lsLo8pxdqZIRiSN3lX1XxQtvMqsj0uie/ajq065DoUhNojSgoO0qZdqnGa72WboeGILY+lWtkBwdk8CUVg13nEI8pkDPGWBi9qHdYdfrbqIgU3COEY5Ley9RfIuzOUQOIK7Csxepl0+Xmqz52ajScpqt5wEAYVoHOzP4bUVnWBYZpG+wVtAzn0xSpMGeLDGyOxOh5eW9DmbXf6cyUBYbEl2J2TKvlN5oKkRXszEyzxSjKmixjDPsKZPBXFswREWlo7fkbRr3PLLjpX88UnjVLYD/b/Bmet3FR+BRg5hi1fGjx/WfrO1BK7Z/4KNZXiSxWZQroPJ1645BQ7CLTu+F5IhZPJAJ4I13724DY98tNeql49YqeiRvTrVqccRnZkt4dQSmCnsccc75e5Xz3418KZF+4AcsLh4OcAM00yDGmDYbKENCmgdrzYyVheR4Qy4BggM86AZ+1PHNXsfzl95vrRV6JlG5NbcKE6D5TUaqYu4jEIboYckBm5e1mW11ANQWbothyjJd9pnndZJ4cxcb6c/Ja6PHWPglWfKE1j+wqbtfEMmTA9OsJ3sLQRvrtAQFDgHmZAmgY1pDZzPXbvZr0ZhiGg8LR6EVlUAvyrVIiUrb5M6xDReg+8EDnc1ZRib1tnTCYp2dCQEVh3KDI1HZmBgXZOR2r2dJmEv3nz0H/vDNz5fWaJqosLna5toQ+7eG22rIQxvs5M92bdPnDooxrDC5AtXv/rFZc7Lwy8C3intvz2L4/jDIQA1w0PB6iGOVn9y0d5U4FCt05oUn4UN84OkAxeSFOmiOuRbnZKB1MuYDkdCwYdb8UWvPnsg+XLI1xV5sW2tOV1ycFWXGaFfqj4kma8Wi7Q4pp/W9pscsbNc/krERbOJk2AhZTkja1FFNUKdZbB5h8DmFn3rrAFVEQFF7leiH+uepVX0/kv8qbq4UYy20WjiZ0Go95PlMGjN4af+J5A0WrMAICBzH8GxRVY3pk2q0hs0btkc771iuweB2k2tXH0cnP3tNlRPCDP5QfkoCZuk8s1tIgJJ6G1gzEyLC9DrfyVelzHrECWe8NvPA5mDM2PtEKusb6soSJCalNp8EAtdXPzngBi6G+2q7lgkuAX6gY0rF/5rJEQzfGm9VmXH4j+B0wzZd42/gofEKeaBSIRwnCTMjpoogDmtG/hKGvE/Ted4FfZLWfY2+ssrDYJclnA6y7Dye2nGCYv3ZIH4ge/nq9Nl01AGsc1JrGTyIb/prXY+bNwsmvGQQeSTmmtIz3lJr+OiC5RnVeK955ndS3g+XZXeYedPYSKzOmtkC6Q+lyWkNoufWFungwygAS+Xj9VPapMV2gjyt2rr+lxS7fTq/URtiL8SH2k1miAHbHG62YuLyhExJZQ9oAMJ5/NUrZ4DI5pvUn6btEeQw6wT9S1gHufkfOZiZnO1wlSd+mOSNqyJK8QxMGZcJbZjxLNsADRWAgVvfZ0r1RAObLQO6eE7zmtRjVmfdVNBTkgMpNeA1A9UKb9qv7rJcMiJNn+LzlJ3xt/g5onDrU/BbELjRNNKT30cUb8+04xlY3/PB3DQk1dIMtyqwURFnvpqYzm+WyuIG+nkmYUS3uc6/Okedu1wNjco41YANwgvL6Ba6GDaer7G/DI5cO4uskQ53TesC2T2dBbGP8M9sYD+YU3MDDetP62QeR9jVJ9J0o7b53f8MAZRrBHLKpLaxXPpyW3QbTBMCmXjAmfSw2a97HyYRRvbZ//EsU02+PT+pKzcLaxMMZdDXXxNAoGFlFvQdncQ3geQ9fNHJrT/1v8WQXNiGE1eKEv/4qiA981vKW/mkaY5W413UOZArq1gE+vZj83tJhXq+7Cg+9pTQySkYl3GLH3wYprYdYimkFOHLXPZbZBfMKNcwU6J5d9Ns1+rR0EJ+X2AMv48GjAiaDiVgx3euX/3R/coH6pTkyFQo8bQ+j4ZtR6sJr6QIgkBhQ1YXysXN8r9SLwpMl1iPZPeYFuYPOSzU2K9QLjw3BGqvI2hndlQrQ0tH0GxS6A8fxfrv5Vtto3joaF/6MbYcOQ+2ATHvNhsGExi1fssCFwPZ/V55bQFZnLkJo5gW4WtMFgG160xjXEGycA77vKLhNbjww+0MzR1YNPNRnIvVajnuUyu/zJQ91lUFKL8fEhkcwrtJ1wGbivcbGuOVv1tRlcEn1TMCQ/Fj7+tWlOZCN+Jv1D4fkBfFDndb4Q+LFexHI2v6NnojE8GgtzLUDZQCty9NkBVMB5bsw0UJj+22H2G/HhHzQP1gs9ga9yMeWaTfjOeETpgkk/12Dkld4k2OTEf8VOge3OXJ+JmcmGgO1T1c3JJmRTIUh83lFkTg6/cKqkmdh8TW5xr+NrzEC8gQ86lVz2Lu8bvqP7uGN/UWBUvrL2uvraqUU+0syjjcLf4jE4SuIJTw/T2+FfLVuaRfCTl6pXjxHuyFX+2dbHGePFMerSPyiJxwa0n5YDdPXySokVdwq//TYmT0v1XVDSKeAGZ0YOb8/jlkxHPWuzkpjKiamd4LkBeC35zgDNIMV2SZ4z0UCJ9aiW93ZfmoX0AWVoXDmZzp+JbH6VXfYHFfsFNKQZxUC/lZCTTNgwMePhw394v6xGRjDd6KH8HA8YCCJ+sdxQWVY/wATluIprhHx1WzPA+fC8YsrgYdirqxe6YNto6cAACAASURBVErgQRgHMlnblphxOGYocywa2AV58zwMxGxuLD6faa6tYH2O7MGhfajwCkHKVuM62C3gcb4S5sfQwJFcqehB8dXx7EBjC154kYE2JiWKQuXljTALVyzioAZrle7Ni7e3piT283nF+yfrCcZ0KMr1jC1M3Td8XA+pbonTO1+O2KDh83aPU9lm2zaAPFhlF2AYnleLC96YCV0vokVSMUdBxdblLVUrxdKyaw/oi6nS3Dm9ssgbaiLatsz+BkbXV93toZ9RhYu9duO52loz6ypgeBYHJwUe5Z2BEVK9EwEn1dygEdFHq0Q+Cy4R3V21rnvz13UHFVP5BLZJT6n9x8h5XjsTBDnTcQwGJkoaB8KCedfVmTDQcd7iY4rmJmXKfeGAybqEMBkP5Teth7eqzEpTztHkhMUs7w3U9yeU0mLvX6EKUqMD1Ym1B12QdukcmAe/+C6JBn7rnV2ehUlX3Cm8ctU9gPbiO5X6kmZUTb+IUheVVKS9NM9KcD60i0xa19HEJYsU+73mms181kUvk4PUOyVdzum5G7lruipdTFviTzKtgTafO2O/RqNy9ubS+6UDc2odjCjxt0wGC1qM5yCZ+JAhRQdV223z+MVVrMtO8dh6Qqgi1F2vt98QUj+tP6uCOC+n/QmWi8OhUTFwgHGvytUbwhFn7HgpW297piy22PGouefcId8/0Zss0G0HM14AY/3KQL0nRMogBXrGuZgBrawH/APnVULUR10JEb1RRMCKOkRE8UmHVx690O2TXY1/0kfqa+ctgkdXfgOscYPSAQjGnUKYy2k6dWf0WR1rKjLVYZIn5fyOsx2zOm7mmzJgCitixmE2G8f1DqZydkjJnuHY8k+fmRXrgQdFYVDfLKC7gwtOspa/El4CcmPpAUd6LqQbi4Ryq7UOKjSkEHmrzjrylgDNK/y1SOE1f3RTKtl+nchfStzcz0vA4IdwQO1zwXHK6kgOYNb5C/y4PRfVPa9Ay9XAyorbt+ax91DMQ6prfy+6CWRY7bJSQCdr7N8wGPVoZn2q3RppL6OhceT6Y+RNtGuDz+r6Y//Lera2QOGw7+8I4tW4YdI3rT8z8GNoCulXmbRoo3hyurjn8TTYoL9nAMazFNL1O+eFIAbH1hoWwbD5NUbKA269iMRaklx9DPpyfHCCpL730oJy+ftgzE4AvwNieZNx6+B3otctLepNm9c6D2x0uekI9Jb31jPLWPo9/7WOwfGSEfshBeDwz9AevLL/rn+NUd39TDiwkKnEzSurya7GdKktGiVLJdqnSRtMKF3l7hr1eXiV3xPDW+q8r/rVyFPj2TwzOAhdXZ3w2jMD8WAbAJxPfIiyjvXZO7jzM+JGnCremyMvGF8TCYRQwTyEPVs1wgc7QE2gpslcMN+RTjvS83Wkg9n9SINuRhQfDUQGtGYzVqRjedIBck8CeklaAo4bHVfI1fSnQ4woA0DUj1RZmf53J9L2pwWj2vNq69tP+b1I2DEL/eyACl6uwK1tjLQ8/ZH1jhkejcmiveetIxwu9ffmU69vYsS//g2t5O//OjrbxDes7rTXGdRwDNOOGV1gut3N6JXvhT19Xu2NPgLV6Qros9pCMm6cvV4DMgNCblCDHKln9ZttQ7fqvWasz56eIXxYiEKtOx4LdWWyMQaWuS6Nn/6OlKu1hnycNtsLetGNNIA62ETiHHbra9f7AE5LhL0vfja8b72Ky6fQNKefbZrRO2MztPbfW6o00G4M5FvlXbhgxaARPV3z9CqTqsmGItgLzBQtJSvc2ux/ZpE0F52yN7r/ybTyPam6Up+v2K93RFdgr8quYzPn5SQbHSEZi/iGVRgHSKuSkAbgV1e47eyYwld/68aBECyf2WKj5w5/yMWcvsHN/gzMRoL4LSkvqJqHjqdtjbWcxop64d2zhT8TPrFpxX8Y9eOrjGL69hZcVViR3l8GBGryrrGPW01Z3fF6DbypmQhRXWV+gZLopv12GZT3AFaLpWUgh+POKAB4w16p62VvCTBPuoGvNgkQ7DFuayPozmR3z1lHLpr9QHxw/f1/FqjnYTZpT0nSl2yCzvsIgTCSbPTQJ638Nu4ODbqIYsZPOxMdrlC6tWpNQQ1czbwybNcI3BOBtfOKHsA3FL0eybNIbJ5irmub9Moc4mb8OylTeDAZ0SDNJd3KndN37GExz3L+a3+tYdQmorxwXXxCdHC91gCU/sF2tt5mXofGA43UCMSQ7stfn9tAjt8JOgemd1QiRKt30ep4b+zLUOY73U+s4AqYq+pF7La8LKTs4Zc2W3BPWXbb6UPL10FsuczUn4z3MP8gPTWiJJ954vIhcBdUjtOkH5OuaJpu1nSYBXJGBwyT+mfyyllrst9qvBbmYfNVsqrXGgJs41G5xmBdn0lVPoNdREiiAZMHt5uIvOidq+YXW/41epvPuE3TlerQZryeyJ96n5kMcZD9bEl9VkgfS7W48DW1V8yZNRdhhQzWpvNALXzt208Nn+hiUrQYIRoDA16Nz4V0W2v7a4CIiwh1OhevWx66J3ymMaUaf6/hVUDvlP1MOM09c30Q5cMFHio9BYFNzM9bKegGqSQB8XwdcqPvvL0a5WHrMVS3JPhDX3QPyJkpixKCEFBzO8SBknQQazUKrkF4jBPJDuA7PJSdw/bmdsDhc1Z+LW2t3NoM2ua5806t+yAftFdnfeUe0S0IYKSxSL+PZbsdGRuBnvrKgZCFXfRs3msyueR0ETgmvfBLEyMJRMyeVwOotrlBHR1VCMkdmM+5N5pYMEl5xTdaEuuIc36nMERJ4EG/q+1pbRko7Ey+LEcKgveeROd1C9Q9c0f+edIfGWhrH8Jc2W7hcFrfBlsJ1DfL7KjjvDJ4ZOvdPhDCOx97Hp+puUdwWJBaMJ/FOA8bFSgXQ33e1bb5+y4DC8PzSmz/cJjNy9lc88bMnXFJ/laJdnb77N2+A2hI85pvURxLhe6yujk/xDJu+55LKIlaWGyMvoYx365kWnSaqXu/j0xrUqtJLqDv4bEakDIwh0MBeO9qj7/v6OW60zo0EuwM7IqyEn70OUuN5XSQn5vyO974Vc89GoOBuxmFmypdD9yKNesnEX5wJbbMh9L2T4OhW+kbt2IwaHKZWV1ceVeubZi2cbLLWUqQNAAbPaLChfOy7X1FZA85rGq7+cJwweMVUuSwuK22XC8D9Go5kmqinTGf93xLOucedxDv9IemxQxbnw1uvBf+7I75B7hnNk1DT7ULlZdWrVO/fH0iaF1OY67qdQW1q0XBMa8oB9qEUX6Tz12TZ40wglLfB7sHPLDCQUl+AifNdPaZXvYyjshQjhftoGfnLm7zpzsXmR2YdOfsyxHB1LpvKxpDz0RhdSvkCd2svOu971SRQ1WO4/x7HirP45Dn83jxnV3VyWIriKmkYPF5WDl6UGRLvLV8zArORqVdsa8/Svo3l5jnXLX9NYI4cQz9CCLSWryJfwnQ7jz8q+yGNbmL1HO95j3xG8B1IZf1X6YtvnvbbaL3bYzcNFRVTzDrIcdxnEA+XgWyE9XAbjJytVssYHqTw/u60GisioR8hqFnZx6+J4pk1jPUtNN6YwcX2HvOpKgW1zeA70OjfHHBCptsZy0a+sFI2jDsF/fWKTPU2dMZjReDLmlxi9OPXRhKdtIN/mqHVy+M2T1YnXFkFI4hZPkM4/isDt2hp06/1yNTqW0nctn84FbwVjbIQ2OZqT6M1Yk9WTE+rJQHsPd4HRzIn1SU7JWbGmcHiky3gYRqZRsatZH7WCWm6W8nNbKGLVfTDtZxo860y2VEA3s12zoD9yPVJvavHoeuofVxHHI873rkFTxBaBAyE4wyT4QPWD2+yGp/ciOR8J4uIPV8O7oaBzTxWjeiQcMJ+HLTuc7rFUH2+WTQsVmoZxzWW15uFJUM7ZXyXesUxIEXhtXEKVyh9RlSX155yyNrVAa8TudCKlwwB+LeQaC9pYSOS439lvNYVeWa2xqmUT+skUWo+ckcvA4rf76OmdJEz4LQDo7rBvnNmXRdTsNTwbh1ZHQCZQIbcFguJ8hiQeZlOesedps8fmZT2j9XPjIhIG0Nc24nU31+KPy18PrGt5/8wKvEhKA4DcDahO6fbklQetpsvBi4jVX2qK/1J3zTuqC3OZi7GgfebfpVhh42/RHxzEBONtxq19qxULi2JQ2o37mrQjuEg5XJlLO8+JBMbrvZKO3ISLAxzcB4Jlvz5cxzXg7r0z4q1OG1fW1pc+SjemU9QfxrO7SODsJZQbj2nVdDBgPieg2d5jscHRSpmwEr3Js61Xq2Aaq5N9DWNtNG0w/+QMEaMhiYWdDOv54hth4SzXh+HtaVhcmf6TBeq/2ck90qQxn757jduTOJriY1dIP7Lierkxnl+TmyaTpxgvh3SAfz85ALxCrP583ffmqLn6Q3fAfXbRBjadQ+P6/XjnTsgDnnh/5pjWxzM8/8IVrwJiIcdF4xzmsl6brsiYdnnZheTMic5EvzjBPbiDoLzsZsxjsaFRksn+MqN+/A1JBUb5waM/wrfR/5+uweeRPI2RgFGxj70xjMln9iCHxjMC2VMX24Ype5TMiYyeHbPqrxTtw6UkDWzyNvk18TuV74bamlMyxOgzODbPt3YK183nGt/NnECOnAjOWAHcthjKxzdvi8euU6Nz7q9tNeaD2xNkaJvHctYbBC52scBN8Je4Z+xeMm4ZBDg7oeD2AlsvPr1yefQdEWwDuXw4eK69OBMWX729EoZmQO2wRU+MUzf4l6OPeWzCBbO96ngOpLaZeWGiTt4jMvnDqx1me40FVXri+PfDe0Pin5cphmK80lt3ZugDzY9wDseKaFVxYi8o4OawAiqTf2SuWfbxNZzT4/8Mxz3ALkckRQF8DxZ88qjyka/TWrPt/bTbwp7L1fvdn6kVWp5s8qQ+aUAq/ECTjfcYH63Ed+qvStp3ee7DKHHiAt7qn54zIlWj5gyKzbmhXHa+3yeDlWyPVy6HSwxO0T5K/1BflLETXvABotjFkz3gYV+Tkdp1afRUqGPgFbz3PNOrN2tft0LNnKaIntr7sItF47dlzM3Lt3ubWNUcinMf8YzP07fn5+fG/VmmyzsCNoRnhckXbCUsdieOSj/ZJHG1ADgIoJqY0FZY4hGXwqJygRXxVem3/hvJ2Bmq/8ZnVUJd9baeeUl1UvpH+el7xjxanedULdjJ6XjfNQauh3BHR9xJ3ADMylFW5hNXxpYnvV2gJLwzN1CcbawA3b+GZgYM+NDmAnTAcM0+2+tZc7L8jne56HOrnwefWCa7Kmy6R5Ous/6HebnoeM7yCquOSeG6jFtEaFPp/182o17CuiSv7O4RgZz+Ra2S6CBM9dd4sOldMj76xaZyDFijB91FnsJCLl1epFz98tkzUqY9n758RLUHaTgylQAbemvl6+t5vf28nqfLEs24+Phrc2IFy7cNCWXPXSSq5WS5BE1jmajVs/QFHzBqOiIn0evC7nLO9AhaY8T7n6oPm6aht6WI3z5AGQM91m1sJnQAsSBFZpXlnh3gs9ksvLNyrH9qfVJ4wI28CsfvI8yjYHQaoIburHxSaRhhOCHoN0K8gdzKsQnBGChdRlqMCV3+Yp/SBOrGJcu5q7UKbJM9wgXyTkMVjusG/GsbLkILbhdV2x3lq1jgpkv3Manis8Awvq86RgxN7NgE4UbuxBcI4Pig/G5EzK54gUzP7agYm3EWTIqB0yiPIM2+m0gVp9yKbkmeFdj5duKjhTyiwfS0wi1bzwCNCmH6xBWZZpRNaOLnGmfX+BxYO4pjYQm8WurTeEgAConK4js8HzDTQ88BMA3w3Ewh5gsLA8pM3K84Re3sseihILj7JkwPNta/nKDDnzd0Om0UKYx8zfCbWL4gwqU2CbB9BPQYHyvKksYGDVPaPyjM+e5HTD4Hm5LJaKmR+fRzQVvv20Mkeu7a8Au7xgu9ZuJY6Wht4odlK6crltBvfJngyaj9TZDtKGVWFv7/C8L7il3BdBMOFCru2xw375xtZQq+y/zZUY7ztiJN2j7m+bfHgNhgYr8UA/BN8UcgJ7+YfOq2tvnrIxqiDuzDuY1bS0lmUN6vPk3S7hv7S0ziXOoRlws0MYW7S++Nz+ua0kgZdV8rcQKp7xICJW6s+ZpFOn3NzXCDKb+OZRA01b6LqXW66xXGtWdahiPfTSYle7Bi9cwVpBXPe2MATAubO30q2eWyaykt12wFXk/hkHkofhHk29Bxq7V2RdWXAGMVp/XZ34MpjNxY5gQ45i+ohb6Rv85zW3WpM5TaZvU+5OXbIFsJWWzqqvRqjehPUeP+7VuGv/8kS9Xpwj98Fq7t2DWO1fO3mkbHy1CRpTR7Syt0qkV/uZV8bmwq5zPxrwWjGMKXkDmNFz1jRa8SJH7325N/4UuQ5Bp8GM+w7fFfk3tpXiw8EWH3V21gv3zwtrsvNea7VhNYbRx3G+0a+C2lfK5MsWh7yR3SVbdL+3E5sz8WoTPi9Gsh4mLzBxtAfcpVwGX98BaLGYVpI2Da+xYExpT+KOGN0efIXQ4IZnDVdqwL08R24NasCtnri/jrP+WY9sF748v/s0Xs3dy3+f7Iv1fXiJGmV8q9jYZvB+s3Hte8Kuf+vfsUfpgjkm198E3gVKTxBcCtn3mMH0tCwM2DWS9M/6oZ26/x33IuzIv+StCK0vduEKdQPx+eKv85Wc+Ha/vpqm7T8XtHwGW0Afr8CRC39BR9pBfDCjdAtLvEdjOTbS39UFZvBGYP7raLj5ZOQGMDdA1yQ196GUGd/Y7u6oywVqL8nn+urHSqamYKqi9TWcR/fIv56HPOB9wOVRpOjZEAVr9X5srTB8P6BVtFleVQ2v6Glpqud+sMrlEUvj0E4qCV9jx9xrbbAl+mWsN+RdIqbeozx/Nbl2axEtvf3aPmuOaIh5ezI4Xv1au7dfOHYr/bhPS2etm1/V6w33qiGkpqF188ifsEa74fWszAYpuU0GqbW+PceDija0fr2HmmXYyz/Nw8LmmUJ+P6jZGTgTXjPPDM/8yWt/h7AMwfV1Cs9Mo72BN2P/XloOrWs42LyywqtGntffgSvYdePaif0ylnYYvAu4M0XNzBSLtX3ZnOssdRlAt897/B4AvU3Z/MWPHfG+2TgsTW1pYNRD+lXzGQXJS27sI+NJEljoqnPk49m98oEeWcx+cmgpF/8+pSySo5Cko6ivcSPIBp8JUMPmMhZug7wczJfP7ld4r33NI1v3mdMHoiYCkhyeK5HGZ4hPmdSJg307j2cXv8aIxy/xAEidIz/l1/P8+QrcU+57yCjGNy1CbYQB6q1Nk9vnG3Xn7jNN/vYJw/a5PLM68MujWY71s8lrtHJaxguBJ2fspbXNcyPHNqc+pqWEsUmqhrk5cBVjq5OhWdt+qiAW8MYKc+PnIc/n5ZH1gL1ku2I9Pjp5FySekqM5Q2DzzYaqBOOgazX8nIzEsCzLY4GL1nutu6w8W4prqv6WIzIXlbRttv2rfTwayw+3qq4Bs1cOZWPZrqPp2TqiaU5vmfmxDavrglg7pqm20nkXve6lchpuVJir09GthtQ+vV+vHEfI+YzSanqNm1bL3M03KvPqOL3DB64asSsvuf+eeHE2tbReWWrE6LMBr8VVa/DK+EtwF5h/XVtQdb7c9pAxWq3H0l7GJfGSk/Ezc5Jp/TSmnoBkNYxd9cqreXbKztJmRlPNx1SCpSnwzjz5PeYwpLM1hhcPa1AJC36M+3kNJ3YisB5aCx7Wtr/N+kQQty9PwIIX0V+U0wTcpYYbbDPBRh1L7TX18OtRGql5L63Ytu2RL/uu6AQ7jynxeyKhNZ/9wqgEa0FOYYhchhjapTWCiRLGdRCvaLEVuYlRmi/kceszAxa0uMhiaF1dXlu1hrf4+e2np9l+6p64d10eNudDRkdn2L6R/S5eBK1pgw5N62ReloxG8c+IEBn/4u5vgqwwGS8w84W8rvRW9nVKe8wsXSwCuK13xGcm6hphHy9aF1SA+5za+ucOBRMV5IKdnczL8QSbrMur1gLe1R3TfOoZVrc5ctx+EtUY4g8s3JRaA1bjvLFDG1rKtPKFSl8t1wKSSdoCP1yhaD+6RmVc3CvdpHWWAwBP8nfjzXhYgxmO4TQcA6yMoq60gBjKkjmVyJcvG2q044Q2QmvpX5iob/B79hNe5xz5fJdQX+jCAyFRgrv6Yrtg1avz5yt7pfO0bLD7YM55uuesTDDxaz04DvnAYDl3xbm/gPK6RDGaRC6n8ZA8ggXOUxHRLWBTb5PS2sy98+FvavMGoEYDWI4V6alLZ61FxESdpzcWeYq097J9FfzChD+iWVA8e+zY0do0kjAY8PxWquer38BHC/UtnYos4mqlc1ieN3Xqspx7BW6ZlNCk3At2u2YBxYLJbVmCoeAcSoM+XzOqtPw1xhPA9YUC9e/yys/+IrD2rIIYPPPkqz1Vcv43XRTpso5aEreP3hdHKrl6qS6/ospcClPKJex9IH5eoPs2bjDmylZe1kLhkXcM3hYCrxJyRw6ZBNYQKH9ma3YU06eLXU2oFl7jm/x6iP0LwdxOgFns1g526jmXe0gc4L4zDcg+osNWfeavBfKq53u88pGQFoga6jVF/pRRG9OKgiZBa5sG1HCZxcuZd8PrmGf2rtWVmGaNwNysOrgJbc6R+/5wC6Of0n5/pn8nuf+6uvkubhf/NamnRJTAh0Eaku8TWjt5fbHorn/JBfudyH71/o7tHrYqzPfnHAqk+Tk2W6BakXnNjGr790zAUns9szVHrnSoNC+gReVLRZ4PCK2vgyNnaJ3/TIqhZbnXw40mu/S5jY1E9WYUMKO0xiRthd2NcnsVfIj3SefXs686lncTNyfXoKTNWA8ilc49Atsv9bW8RJlnMc1nzKlt2Ft+VlUkMYQwGYiN4d6GNloNq2kZ4yCzZ8M6nUKIRiXZ8Lw7P+xNyQQWWWuz+1m68IlroqjLNBJrPJv4KGW4Xt69MMGe14l6A+n+iO+Mv1NejgfnyeVNQE6tUInP4xj2cDQDsS/biR5xMMA3n64CWzb/gr9CHmpVBsTBPv6iwVCpWEOmqMkq8JPrxFUqfva8LdDUKwiddgcaxPvoXYkdYqv6yBYQYTW+izqc93nHYg7i4Qi2rkaESAMwK/USkFfUqaUNeh+9XgPTNeZTo42GTEkzM1AnMmMXYmHLC94l0Y7/TehqjEIDV96Tbb8do43VHphjWnMsLdodwWMh+gC8Yxo6rrgUeYOawO7TVBDdRWAzsm9T8t5SSap92oG43nrCIQH8G0NrLgAht12ivjvM4WyXF0Elce5tPtWmWQG8J+ehP1pFzIWD0nITmePwkjwjhNC9mkuWLTCzOjBGzOeuQ6O3U51//gKWkVbBx/KtHebwBdQUSI/NhL65nNTybkaSVPXa3b9vjuw+aZ7SPz2E/Rir+4+1DRl3D8med/DbZH+/MAMNc+WMosy9lgWaHQaRzDNP2KY3rIJZ0mgXdp3nXeJAzCvYDck9Bc5h6hgjl2r0rT5yLdNwV6O2iohWS5DmIx65CQOgGgLcfY7zKE3vlIOaycHm5j5flsdXgAbHl7dp6p6vaTdXpELS3kSE19y8iGQjuYvh5Z/oKSgqXN3d28q+GDAQpz2irj8JdfBvyNSKwehjQK71rtlHGyav/KGXZYbAp/lnzGMPvTFj7nkpQPQSUvFTBdYr7r1ZY1SGvm1iiwPhmVxP2dduIAOQdKXrR55nREWkHRkezBbWKax/rI2ZyinIct56oe6+izHtkM/MkZd1xR4hz8BsPN51z6uwsY4BPPOUQjoSweYVinh4toDRtpuMMqsrR3gtEsu7BmLGJTWVyP2Fo5Unv52Yw/x753TNwrSEVg3jbapVn5Cx2KuVchx6k5zeCuQQkayWM9eAJujcmeXOADHy0pielvNGw3haULrUuCCoPZjv+ORI+yDe5S/i4tchKbmy8FzgEfp9peR2/HDxdjfG0i7uSjCWBc+MkefgPPYYR3q7R+YAcF438Y5YrtpxXCtGwAXwOSPCD9cNypO0FSPQ02yjvFfuFSjntQvqz2J3OY7OpGaRzCjPKG2JIJQerUZvddtMmJGT2eKdLBqSoIlhSuSjc2RnjVzUxpS5WTH/B/y854tfyugPbJX5kXj/QlRvMLK2sbSRcm4p6aoHWjmH4YpAJTzdbf4yX5pGLCzPzFHutuGdNAjh0nYRAPOB5+/fSnZX5xU3ip340cWuptzKwZGCmbAJYPSAvipinpbV4d/eHMtl+9RscY3b+bVDTPZwyTS7fDiUpqDzr2sSGY9ip7Qtn44olqtaQG59RJXYnY7TnjcH8cQDY/lF+jCQJTbEfGrT9l2LrHCVnaleMRQR0HhfyB9SHESRBYu7kp48KvQkk1x78yHwMXngd/bgU+fHnMyJqetTwQQtDl7moT/qjWmncLnsgZ/69BrjFY9pFC4ikQdZTqduWr4PAXnBBtYji/VabD+wfh955VYmOd/a+ZUA3vP5fE5tiVhhQuMvkwwKEEo98fYRJSV5lfJRliZO6WXcpESCpbR30XQZbKFy5jX7p9MfN+DzmZLV6zW5ep2f9cguaulgypWAgdeuhncD4A2gr2siUsjnDUj7dLwzYVGOnQUeU9eMf6VwqmhCqyA3fCP37AVxt+pPZBpzU3KVZ2X2ihufGbex56QglKi/MzI6OXAQnj501jp56a3bUjJlJhqu/tqU42rHvWrcTkAPk5U1MjNlANlWOj8zQvb5/MioiNgvbpiZQObBbXhefNoH6BVva/RoQ7nHwugEYbE/+Ns566dSXVh1MCOzEnBE6P1Api7Fvk0z88AYhlZLxjxkzRz4qOu8waB3vurSuhCMv2Pf8vl6sT2WCWvMgEw7L4nDnLXKkTDNMNqOQH3jypOsd0NQ3rfsuzNPkvHd38DK2Br9UfxT0tCxVIw+vthVAYn3w/yJ+bGnpHIDdC29pwAAGshJREFUkNURn3UYB7xVUCRzd6zT1+HlvEfexBAZ2x8/sNBeqLMyrX7HccY3UwZgJWn3+a8c9ijwr03z3EaeeBSCjbwtOrQRfeRASAWClTmKwgCC95lDw8H0aQzMfdB4ffUZ/ZaVX1UnntqfhZ3p2MgY+HQN/2Y83VPjaMlKNzut9Q1InhryQfqdgMZzISYhOuhAYxgz5WC4zfS6lU4MAZE40DaQ73ao8Wa75Yhie37R18KwQUf7hTNr+ZO2LQIu23ayA7SPFsP2RbBtFf9NXDTtspLeQHJP3wJ+5kFeoDFL0F0HesaHpb/1VT87Vm3Eh+7NikSksIXE65/cQwN8r14JHnUqY94WfyRzZgzecJDwPeT3c+MQvEOfh/VnW/YssMjvbSh8w24CdR/6ibbnMeooxT27xu02kN9ltKIX29sU9V45RDkYfkPmafjbnrMDImvhcQpi4G3p+xeePFXlaNcSr7+VLnCeX08sAdXqAf8mu9j2yT/ccGV/rk71RvZKw3Yt/9IEfvr0deInoW6BFlZuufe1/9JFMrhQ35s+MxOk3o7u07D6N4lbCf1loJ3Roo2nB2cWu9tP05ZDtTdTFkJnEPr8EU1HLTTF/lkBDMnE7IA/cdSvPeCjxc3mJKESlm9ceKIEf70nbrR6YvA7iAHXnzOt1x684LnbuO92sTks/109kdc1kv/bgZzSS/2UNHxWgmRIy2yHI5vHlqZAX613xiFbwZ7UO0i6S6+G7tO5u8O8Dc0zptlciWRBJdIk83DA561WcsXoLwQyPyWT7SMvjMBi2o5MkzqXwE3dyoIWEr56xRV3+gedfjaZXFkJ/o2pvdxRRCyKXd/X+fZ2G7WDN4zf3ADEOZmYg1KDglP6iz3yWmeuN8kH0Xt4sbQ1qfogxVh371tHboGouMsSl4tLffFVgce/AS2NJZM3BCFx0UxE6GuFSqjwbhyh7SRX+N1wdZzS/s7r+21Ca4QevhkkC4H/ZxAoGSbjwKvNx1g07DYnlXvj4ZHrD4fV06nQDn8/ZQ4Ns9tUkQFZk/GCVntKv+IG5WgLB2s+TbD1Vn8TkDc0QMnfHT4j/kO6sX+xy3PZtQzq8FaclTGP2NzY5h+28i/0ynt+z5KdLTjw3vmiSBu7wdx3OMvbmAI2MM974OOv+vl+HhovTSeaiclevZvz2Z62Ewrv0nw7j8/BIC1Z9Iq9AHGrMQzESLybzPyX1PtGYtuHqbc172ZTPu55TZN79ox79W951U+8ZvnYn7jrHcKG3wFSCWF9u58ZVSz4afC2OuaRRO+RCG27ql1gMciNRxEx71H7GHBPxurf2eYub6vHkPrY8T5i2ZUbABH6AhaacZlimb9gjpwB9hMEI1GXw2m/ZTJc8rnTIsz41uo48l36SzQzjol79TK0bOiVr9DTDY996XsElF437ATSHhXzEaQv7hrl8bK9jTT3rNmU1xjy/mCs7TvhXqRveNXPqld+I/mVIXNZQ+vhbCqyNJ54Mj9ioXsm0xZl8+YNBDUWvEB7h7X3zAUWyfzbTZ2Gvi0IYTYpMSbh+i6B3Q3fhksjMaZjPj8CehZC499M0JN+v8WuRfJ9pPlTj0KXjrQg55aWfiSuvujGopyIzGUaRSckbcV7Lkg1Izs39mIkQrxpDj1dY/Dgv1lD/mzO87fZflol7xQzJ/ne76usLH7t1/eqmuXOCELk8LCDj/3E8Ey+T/+qRQRprXeveMsejm7elB8XSEYvSIyFvoV+AyDvdOw4zomLDcP4dpNGYN7j++kJxuDYMXx4lf9M1HS7xyfi5G8UjenFbzvdpGHUt8/grfSNQEaF8Qtdm4tebgEredWfy/wOqotfxdb3fYZ3SNEr17ns+WnOGjNPl0bVm24xoXk3RUNt1rMW638XcIdEQsH4kwfk9kO68s0eeda1a11v+oRNh/8KZG1W+U4/yENg8qz0h0zVqSzl3qnktxCpdARm21bXtrdMCfCHx3eKJaB+I/01obWf37r0lbK3KnwnvZnlrpplK58cjInhGFQaHiULxePCm0vKTcgbU5Wd7yCveuyRx7gecIO8IP9w9c7T7Ll+M5CzyNek1y2PmC2NXGi/DbaIelUrjHrWQQqyKkmeV+jktNAmSLtX+4tTE4iFi1RP6BbfhBsULm8uz46TVV/Bpo3ZmxZgMlnLGfLxU8+xcNWgfx+Qk9X7rFHF5bs3FUVk6WBKfm9ZpmidL+91/mtkfxqeeQJf++vSjCd4/dW7eB6shwGzL2LgPJjXm91HXkFaPxzNaKD1YI7j2nTaDqVH8+TRXsqdUercvu0nY8IjXM5nCwP4q2SNMG0VMIkFWSjnw9edee1n55Qz+TnwvPy5jIuKOwHocuxOr2cgvoxWyXOYdLNqRupteUdKu/NA3VXGeV1TRkHEN3hk4q280RotOovLG+53ILMWRq/ni1k+vSiUTDokB+2qN1n1fkk6zothDlpD61kY3HE2N7wrITWVkiKBonmBdhyEZsPkaFV7bORV5Lu+NGFwATd3IxZWlPBqfWd+qSBaEXX3d8R7je4cX9HEQt+LQF55YR3lF8qTefLiPHXm3HMD4OludJZwy/B586eCF2tlNb4byCPVUjLx3wlWkVe/GP44uLqbjuwuzhXiJ79BkKa8SmY4FFOqiC9YuZPB8DESB/GKC92QZ3E6EBzlheIw1c3qXw7NV55tGAc2/yXj+gr5N73iEH/MI9tIWcOzTgtrlQG9WMNEDvguMP4kq/HG2DHtWt85Blammaw3qZj+IZWZKUBfoAp8IG02la3ecjzfRiHWjDaRSvr+94zPCohHeRb0KkvPvsv4ZurO8bz+a1et3SN0mM4S7FXlge+vnJXAk2Hhx2g+GF/zIGmfVufNWW7zdGUCejPkbieu0FCwsBjWpMqVBz3yuHp166A70cEdZYvlVFyk+Fk1EpGP/IhbvrxicPlCXxrAT3PVjGoqry9AY9V+utNHtOqVTz2NUhslJ40aTjU3Tz9N565MpiEl4bWplPlkXdy+8mlvGuk1hXwfGSd36vXLQEaDRMNhtXWGNMeHBTxmBsuixyWjG1V/z7MMBmmDTxbQjVTgHSvhaVgs+UbeapqlxDo6BjSkH8fokSkgPsyhz0psNhEyt14Jw7McOEl7B4EXT0TJ6nndI0/ChvBMCYBdegBvxmtQWbamO0rzcrG/VRF4XlSB/aHfBTSbx1oQuzN0DCNDOaoHVfOMlwVQOUsyXDH3eR23WF8J7ZaQxxMP7dNS7PeaI5e30ZjvKePbQmt2LtyDNPXCQyNuH9rnJdQRXW4J4NKgiiOK8Dbftip34G55j8A/M0Grz8+5poVvNj1d8bpsvkonVcNApvgEkI1J4UdfwMWWNpdGuWz4j6E7j/1C+eynWakDm40Mcsk+o0zerVmzedJrQOZ9EZ5HgMVQ2nYS6yWfcDVCYVhW4lTWwUVWNdhK5PNXkdYE8YHUkNYWelz+5o0KV3CxTc9482eDNrIBb8ySr1NiDUTuIJCTzXtl/Bcjktdpx1DfqZE4hNbVefj7gcWu6J3NM8lBfKaDv6tv5M/aldTBb0RiUDgpPyI3RqNy6u6mcr+JEjsTjcLQa875ndcLASARwJ55rpcsHmZ+yCckc2VfZqXhjq8XI5sajb30BjEnOaAPbD91N4ygXvWY2S/OdSx7P5a/hpSF6czIaLgYyDd6xnhDJ6SRydVZwRZ/YBXUdm/OP3g5VZ5uA3VWiasOwlsS1jPkleISUnpDf02qmU+eorNIv4f2xuF9K5ATPNG5xdDgDOK8pgvETavPg+UIWrMfPs88ZksvA48O9TCezJaFEHvl9asrpKlTC16rriYUXyYhD9/Go4WwI4tsWx/eLWY8NefWp66z+Ga90/Z8Zx6rGOA6HZgbgnv0kQMhthsTb9Oe8+5T8keYT0LpzEuiPx8Wt6AlBoZ5fVtvfx38aJtMnbCt3e11RvcpzCPBmqQLVNdfUZGiSm1rx50F3SuS8hC4sh/xv9NDl5Eol+j1Cx43OGW9E51LufR2d9VjTG8GMi7zqPjTLTG3bUwNumbejoGXef2svJE0yevYD9O8WcgMha+b8WnrkwH1L9px440T8Apb/LKRgnmGRybdYlK+OMZp6pWpvq+MzpgKuaqN2YeYD6tXJzIx7y596xtC0DrtbAFFQ2APUmZRaQP+QqSah7wTuQZ5zZYBMzhCopQN3Xzd//UKBrOZtCRfVNrhwhuWfkNKMq/8gpF7qRODqRNMiN54RWfyZyN63z7yYrq3VF5wD87aCe05ibdDnoEc/dnqCK5b1dU+EJF0gY7KRRZ7PJSiJxWHCMvdz22ZoDXQ7L83MYApsaox2IwVGGMQmO+pOnYT9bSlTOrbI3RI6u5rYpeWO66mxoMZDivn094C5BXr0VejE088AGjPg6H65ZVHgE9lczKkkebuSMfDJ5HnvtVt+YySlv4wMIJX7pQI8OHsTOlSgHholEEDvKe2926Ql0JYiPunz1yDC/fiNm1nnJkXjsY+HVsfJYKesggTdXpUx20gu+G4Vb5eMNAxgJkyIs09q3PTfYFIG+CxfNziKmdieP8WyXf96akh8GuBRE6s07WLg3pRIdycMXq+pBVQjHlhA1C1aZ0Xg7jXTkgLHpLEFlm4nHlo8pZN6425pGeeVyckjDMh7WMavbL14r4MG3fPy9PHtp86GdNo8xGFFpEePhPmwZLB/RRAJERlgzLz4v422/uekqnIgzhjykJsB7bqiq8nJ+7j6a6WlWHG5ANeiVQguOUNxUc+MF+RHnhj9tpcDEUS/rwHdynRI+eUvEOi3nXgdRmx9M9tPwFacZWWgc2UZa8PVeSpdBGLhqs+VkkMRxTe02ywCwXzbCDQfy3TSN+JJ11mpeTZZf2KWAg3WDcPn9SEACZZVhfGfFSxQzT7C07Zh8Ct29211E88qejzsvL46Tx0qrMi8uN+k0ak8C+kqY5DGxUb8+kZSpRiHtwXqWqnoobNaL1eLXK+Ird5ihgq31DdRQLotupZGHyfSmNdrmttqQ3QpRranptWnmhlKeU05q34ybN4r1WkdvhYw99IFsAKgDvbfMh1DZ/WQ19HjusnOKhe7kw76qdIqMeA/Pp8/1lrrQ21jd/uaz8+nxivKUM7lxm35cp7uZ8Z6zwyGQW5KzCMgePmDzfkIXB4gGebi0kb8y4yXIVLuLA3jLRy75j6DiicQVDhIPaAE5FDznWbQ+u1BfxxlT/qNYJZz/Tunet/YhTno/vIpjIVf2FzarXw0sKRek1M20vymHNSdJO5a0YEWf/Ldl+bQ1qi0cxxVMb/ZTxtiR1p+HP2RcNy/Z/NQz2HtfqK/WeQ4bMotka3R5vmC60A4gZG1QZC9KwduPYPve2hJ/deXm0+qF/kg3NkPLIRPVn+mh1z7zMNjcFAno5gU3yPyztgMGjr2wnD7LUQewcOCNkCIPbe2RYiXphVDpPwQtLMszt28C6B3gTQXZ9He6bgUT2oKyivPKIAcMjnPHML10UAG+fnh+bIWEdUVZUafJKeT5KXs8GDMav4dKXqRfGkK3O/7R/Mcy1qoZYk6/u1OF/OqBPYIsXGN1LntH7YS7HTjTrFZZYsSR4IOmD2RlJ318B7dGAqpCspa8JvvK/O7UqvHvzkU+R5HGc9h9oQ/OL1WSCbZtS/AmioJu4a/Estisnj+VSUqr0sLlfNqnI+NImeldLtDyuCE2gV0W4b6Lq8vImHNRSbsac6u+pnvRmtskHKKKSldXiBLpADHwo1wH3E42eBeY+KiIJHPVSeh8pTtXnd+gyDQCm4OGaBXKd7Jv2auqkUOVTl+TzrOY5Dnkd9eWSfO38TkJEcPFSklAu+BpEZUtR4JSzSrgHEZ1avtvfEPQG/zcE558VNlxZBkuMNQ/2OYYDC/ZrtSXKZegFxStLareV15sB/Y7HfmdAlVeA+9bhAVoGschx1emm7xyyGAXhFxKYhkKXIr+OQXxeIax2Y/9uB3MNqJKc43sVSLiv11JvSwZRF9OiVSR7vnXUVkJX61K5dzCPkFeMz9udd7sUJwTDbGniL9oC7BkOYoYiIslD4t/fGnTqIT0/563l0D3190tBaOpDP8Lx7VUmArFLk+Tya58dQvs6j/wKP3Kni9Yx6VbSUNpYrQSLzxswrpwhODcYgbl4NqYnk7HQRhtiszDhlr36Rm+IP+Sq5rrfO82LNV6KZ/VRtDvTXgxpbUT3yoXKFuhfIjhPMzyvcVqdfDcw1LBbnjRu4I5B/XfUYr6+d1weArPGjt0BcnNnTAZE2tNM20pXX/nHZq97TYsirqtyiinThaSzGu6BkX1hneSK8pnyMTHuyrcEu4xm9cls+g0ftkMgCGRvercO0XkY+h/Gw4BEriO1nBXI1ApWHD6f7nrBKF1evRa4OZL28cg/j+3z63R5Zs9u64wVWzQAymRcb4E/C8SXxakCM9dwANnh51eptWcY4Xx3nGdDOxHqa7X0+mctQx+0ydo5YyOlZtPAcJ9JmVUwIHiFPkMdfz5pw5rWsCnhSARDr6TGf6ryztCGpEYmfD3cAY/qV99JY1QvIh8a5uH5ojhy6qYIx6b8OaOfh2MKX+RgPiPUvNuZWLe3Y5y6MMVLvC2mV/YrXsOD2JsXnmLKYpnNj0vpnJ0JIMKGlK6D3r9tHKFkdrYPQOGRM2bMsv08n+Upvl14GRQVOa1UvfIG4es5fxwGgvMSHTwyjRQiwm2bVObK2xS4Ecy33ViA3odseGkKuDzOdmipsz9DV6zXI3Y26bxWrDqLPCoizA5NcSPobRNp7K0ee8hlHbcG8jOnqldEQTBxqn29DKL7ohE20OMhVQdhDa20e+FcD2yG/nkcwbu3T9IUHs1xgVqnz8nMf+Qqtr0W1p9oFr48sdrXuMJL3r5RTvJrSxBOLSPZlhDWJfDzGjQMF0QRZ00X2m/PPEasUvPMfDu73mdHZlSc4QDs31VqXm6/mPhXD6qsC6jwhkYTZNjheRXTO04OyhtbHoT2svrzxr+fRTnlhW8P99Y/1xjWtXHnKFb5DeK32DPb3rlo7HEYIifTwuoJYIeN2EOr4ZyDGuhKeS27Syyt9VMp12GVpgYyAjkvcU8hrfSirId0MT5bDWef1/HDW20XM+SwOxy0UtsD0OsDyRNAi7xPE2rabfgF4fx2H/Pt5AVljeQ/kkIb+T+oajHaPDKF1P/b5LSe7rPrlv+njtR+BxTpeZGm0a340DgkkjESwet5yrILZNWM1e00IditknkURtb3UYk4oE3q1r7sIHpF6pflDnQ10xAOuSDtNM5vZV0VsPWOWpNLDZZW2Z/w0YNb2V49pDr1x5YtpxhuriBZ56uWR9bDbTxffDwOZKYXtLeNVmvgOxMaKiixtIRmdz4CbyVeSxyXR80QDfN2krHGe7IsAA2/czGJr64D5Fs0ghOsePYDl2z0OnVVgE3rHmnMJeFTF85NUI6N1CKNIwAKye8Mn7CP/emrzxv++5rJ61VMBl7ZRXT+Y6eh5UgzD6wO88ZsXuyaDr06LAy4vwBaJIDYHpwXSCFHl9V5YFu7PNMVFuDSrC6kJq/lZMPaMxcgMrC6sjtbgrdQUsXQPVQFyrrbmYFaX1A5aTEA0us+fYb+gQ7AymTZFkZuXrB8q8PXDAzwygPhXA/K1jeSB6utTK+8J/A5mPGhSo4B+KOSNHnkr8Bo4VLPXG0A8DofnFcKnmatar6ll+wCmRE0MSB6ITIwFBXF8HtleMY3BfXkbriNQ3MiTkJrnvcYWkrZ0aEKRF9SfHhQZy+GB2L4wgXNk45GlgfgsM37LKkYKLQKAfevnccARTTjZJTeB3JSHhICWnODXuHmljeAdPAeIzVSdSV3nvt3WYeldA7FCiSddKnNdF5ZeH9Wwxj7rLZl48LeQD3erpxXx4O2B+F1C703C9inrpUyj2pu37OF1/3bSs86Rfyl45FouRgA2oRpniF601mcX2OrpsLoV9rJHbpajy5ELm3bgFZa1LxJ4b5zVPFbJqMguRL9tFEY1vskYXCDt8i1IGAA/DtffBucaHV/eGBWRj3gEfkZD0DNbsUx7hX2QUcPddiCkbj09D/n165B/NyD3FuDL7JHP8O4CuAp4YXMY5Mz01tDaDhyEqqNyKu7leiQMpp+RuPr6/Nzrv4/um4QiYl6i0VlkfHz6uL72zqstqeZUufZvPOHZaNf3V/u2z2vIBerghN2hkVvSLxZu04YCHvI4vzjRwuq6an3Is4XUHXA5iGNlHcjwEoLr87jcdPXWLwG5hskQFZzppR8vO71tUl7793tVpH0f2X9rZG22OJYUF634yws+EVZ7CccGaFomATX//rAtF+b8b2qqfUeIjXbC8Uy2ang30jW2/TxyO5j2LjJbyFd6mNy2oOCYZgXz6ZE7VxUJx86nsYj6lGoAFa7P9Pd45Na46wY+EeToteMpTAakDFzv8Kq+G31E8Crt8FitcyW8vmfqVslBlYS+r81BT2KTshnP1+qN7ZqQVjD3M9f4xpBzj7llbaH5ioQsj8ID9fnueORZoHsCtbTP80QTvnESYqrtzr/xhf6rMnvwqcoCFiYw1ZZzsQp+XW+mjFhProF7U9KEyx1KVW4+sibDedMiV9TQN1MuV5G2O76plvXYRzM23hO7tJo+55vf+y5684+4WW3WwirP5nW7qtQ5j0MqUl9aVa6Ye8Tq8Gmrde0O/xphr+/2fDXNGc/snj9DI/upqQ2vP6xFtJ/OWJmsyTVHVRPjan9q9FJv/Pmytu6euBVazwLfJkDBYb4WBsTvn90Ig1KvKexBkh6NRossTKhvX26QD+tkwKdfJxpMHb5RqS2tyMxL9e/r9HxbIeuHvbElcD9Q73qtaq7aDwmqW9AaeOLdFo489C2PPLUWIm3By3hr8yNu9xXVdxQnDuJ85ZZJNerqbI7K7kv+fFhHmA0lOdajmnGOe2OCo7rHxfjlQb53gtppq6vWRiiZTGCq1N63EdNYIoTbcP2KhxbZBPLImnjhTurd0p5PvBQfslfDy50FoHcpzQi8r9NYyu8NUd/SZ5OXMnysRcN52Uq7qsvVkJ0B7lVNzspse2QuSEn+8PkKH7zLmznmnKfuka1/1edFqddkWZV4f/ATX/cOezUcqnKjDijABjn7fJXq8agrDr5/8iz/MdyY8w73nP5/JNEqhdZHMzIAAAAASUVORK5CYII=;imageBorder=default;" vertex="1" parent="1">
          <mxGeometry x="360" y="190" width="51.06" height="50" as="geometry" />
        </mxCell>
        <mxCell id="aVhDxT10VZlNodA0CYwv-12" value="" style="shape=image;verticalLabelPosition=bottom;labelBackgroundColor=default;verticalAlign=top;aspect=fixed;imageAspect=0;image=data:image/png,iVBORw0KGgoAAAANSUhEUgAAAPsAAADqCAYAAABk+DOYAAAgAElEQVR4nO29a5rkuq4dCEZkHV9/vr62Z9vz6fH0hHpXCP5BgsRjgaQUiqzaZxfyiwyJ4gMksQAQohSFiJj+0B/6N6XSvh+l0PNZ6Ov5oOfjQV/PQv/5P/47/Z//+p/0v//rP+l//9d/0v/5X/9J//Gj0H88C/33r0L/8UX0374KPehFhQ960EEPPqjQQcwCG+7HTESkjrmdMjMdctzymO/OJ3d+e1ohk0ZEVIo/9zmI/p//9/8LaY/FWP2hP/S3pEIAJP2b2/UKydI+xEyFBWRsgBbh9E0kWuMG+rqnmj/070ifEPBf4UZq4FdgFyIHeAN6IiotFyJOjj9FTFX3dIb08Qn6A/YT9Mu0+78RffcYBreYiIa7PABuQV9MoaIQfRFnbxI3wAOf/gT9Afsm/ZOB/m7ff1VQyAKde1oxadaqi7Wv3wr2hX5NRyQ2UIhE1VxVOH/AvkH/NKDf3V9f36cxA615GUAv/dhadbH2oyTilMGRbZ1P9jBdLrAK2HWEI6jvwf8P2CdkhKbg9H93urOvNvL8edLBtQcRPUr7ENOzfT9IvrV1L9F+so2UsTnwiqG4vIniKIUKn1R9YQFfWQMB+UB/wL5BYgmIxu2QvzP9KvZ3273D8ht3nQXkDdil0KNwA38FfAX5MYDOjRP51vwBgLL7zjwDSUVXV+NjYnTM8JbbjP6APaEuKOLyFZtOtKdN/670ya6twHxH2+LxinI2lr0wPagMi16GhdcufWENYR7rZ9gfb83td8Yjl3ZnAHoI99IfsAPK7q0GC48y/Q3oV7O8Y8HeIo4KuhSiUqqLXoHP9CgCdBuVLx6q5l6bvfFmz/bdd6nnnbk4a93/gN1RcSePUnco1W8tRCV36X/zPYlL8fjEQn1zUO4aOq2UCxM9HkRfj0JfT6qfB9HzUejZ5vbhrHvpQG3fYbdbauiTLl+w2qAIWLI3XtbA/wN2Rdp1J6pbLB8PqgLxqJ9hJYqxHoaAQdht+7sJtvsRsNeT2ZjcqSO1G1/aOl1A/vUs9PUg+vF80o/ng74ehZ6P0uZVut8Qpba/dpADZr3bPu0Lx8M0Il/sff5p5gX9Absj7ao/StP+j0LPx4Oez1KtPDWwN9AbCrO8I8LfD/Wy4qvcxBXrEWD1P8tzDwlgJVD3KA3ojzLA/lX3yFcLP4J44u6P217svvd4yMNz6rpRJklMYDIX3L0QHDjU9AfsmpTvJ1b7UUp7cOJBX18P5daX7t4Huii8v8K6qxs4kJHiE7ZIgdpYMR/Vzq+do8ifWPRq3bmBfQD961HoX1/POq/PR/XcCtc5p6Es0PI9c8iNLuj6YT9wN7tb7j2Lgi4s6A/YGxX/6UBvT0t9PehHF4rm0jfQB1KLtj27/rtYdpaLBuRXuGONDhrw5yztbbJcFh6bZLxlfz5KA36dU2vZx332wtqhly2re4qc/XEy3Cew+jb9AbujsbuqTf6j0Fez7D++HvR4VOEQwM/A7gUeN1j/fTfcV2AfX+cAbxz1HaDf6r8XddSi3a0BAXsH+qPQj+ezzm1TAD0IW8h2WDGZgRNZbHgM1uup1QZtwLbbrprVHP0BuyIdoKtAp27Zfzwf9OPr2dfwj0e18s+FZSfKo7bSahrV/wDZZhLAF5/3DHMY6H5pwyDNWPlTSqAEb4SAZX+WQs9u3WXNrpS3LM+klhb2Ni5z53GXwT0XPpbIV/yF6zpep9e7BX+i8afIuvLi8tVAzo+vB30JyCVohxbtWmKXMlGmp3cRrjZhroV/L7PCFuSmJfb3pmPaNRoBFw1youbSS7C1B12pRuKfYx5lra69O+gBMcPBkeU5Czu+6KSf3WpDn7+2Z24ISpaC1AmmP2AnNcHu85B1e3vDyY+vZ7UKzRoI8MO8R3910nLMZp2FLBy0T2vQYuHaL69KAkXH9t+wcJyI6WnfXlwRse0DdQJ8sez9Vmoh+no+B9D13JOfg8Gl8Tw2BoYLjTfU2KoU7zMPUJYj9Z8GfE/fpH882P182QAddbfvx9eD/qXcvq8mJM/nQ2lkTQ7s4XoJjRv5Mb79dbDvAXWyft+vRBVTQPdLGvXPWHhn0c70eLjvA/TF7VDr22Uf1IJxpbvxes1uNk+5jgWjCwCf8w08miQfOu7WvOibbefG6R8NdgR0ojHZIxr/GJa9CUcXkucj1uUEfqTNWh/uXwT8p8HeW99I26yLyYHDB+hYZ+0XvHLIKc7e2PNQx0wr4bEvfnhsP9q8Pp+PsV6POpgMUCfTAZ30nYKhXwyONeC3HQtD/1iwr4Guo/GlR+NFQCrY65ov1DP81PY9b53BpYKzXqLr1n2WPqsqBtosuB3Qw1oWR+lxP6wL78J0/Vh7a/L5asq7B11LvenWI/KW83mXnXK3C5aMb14m4caYqCy3RQX6R4I9E34tFPItll2i8T+eDvDixsvaahx2sAfBDaFUFfMFAZezjzKifjkGkpwr8dkULwfo+sXhWIDeswH3fo/Ufjc3VrKm7XEYGq76j6eAvd5SFWUwxpvbphjfnEIlR461ArPezQaam+zN9t0X0hn2ZeMfB3Y0NNqKWitQb63pDRj/+nr2DTYC+lGHdR3ZW3Yz6ZqBYY2sbKkJ9Rb/JN0H+EUeY+AUqB3ADdA1yIEztO5zmzUV50CeWwdzO/76etQgnWyWahulyqhx3ldwFXkq+8prvDSjFPFuooKIZ3tS8Y8C+wzofXJVgEbceB2N//HjUR+gUIC3dfHYZaXDsN5XZ93gKB8Fg4e1ehfwofJ31uk4XxBEBfaxxbwfDKB7FxiYtgKO6mkhO5ORtLcmxwL08fSbd+FtP+Z9jUDHI5Rb9+v+2x7g/zFgn1p0dW4su7qf/vXV1uxfT/rxfNK/5Pz5pG7RSQClQe5NVRnn4V1Xw33MmYw92RYS61P6Cxv1QVWU1CkZlPB3S46sfP1nh08tjVLunLoueQl/W00Cr0+5hVrI3GvvPQTjxvYftOhn1yM76jO/sm7sHwH2HaDrdHOfXR6eEMv+9aR/fT3brbi6htcWvdahLJW/yWr89KKEqkCmuien+T5hAuCqIJ5spM+uTwTSu+rOklvgq/XvNlD0Wh1bd+MYKcA/HjUS/2xPvj1oKITOBBgzGIxLXPe5lfekcjO+sk7MKQX7dZfi96cM/B3oRH3iu2V/PuirgV2ALqCXdbq8gpiInAsvAlxci3JoN+ZwcXl0IMDUgBVE6iYGGdqx6LtKIbHxAOQdHM6tDy59V54TDkwUXlt3UFZdkpjM41mDc96FN3OpemWNvPdEbJ6TWPRNzcuf1Yn0D7HsmqZWXmGrC4NZsz8G2H88O+D9Puy+Nt4N0CH3c74EtdnOaObJ7rQxDpsAn7yiyRZBINdpEfB7UuwGqSjA+yz6VGWvDzM9qPSHmvzSYUye8O+6Znoe2D9h2nc3DsJ8G1uOc8v+b2baV668vgdbHuPYWHZ1C+7r+exvOql1KcDrCWYbobdrds2F8zVd1kHD3Ik/EPt2Yp3HUpcai2VdTrgn7qdcHe76cNu5/dPH1L9iXQiK9VSD3I5d0qlWbLyAxATmAFI9wLwr33ODIThn4dFiQKWg8d3UEinYv+BbGW4g71d9hHJfCHrIpJ53fo7XFvWtsfI2k4c81lq30T4e1PbGMxHrp6Wou/X15YKkJZXi+rzE9FRY0XrUS+lkXI1lKrFJU5RdAqq/5UErFdUml9IAX9p+8QbsUoalb2PFQAP5ai3oEfj1OeBJshWtIpSrERvrB+HOwYcp6B6Tts9BCvbncyIwja5DNVtr3kUFT9q4Oo6b2X3I44/P9ghkB/0AujwtJbut5IGKvuuqg54buCsf3TsMlgPYU7HmIVIv1MRcXddH1tKizqvKZIxSyw5A7fjobWbz2YHeTktLowj67ooqBRCrjQ52T4cgTxmjHiuRoTdgEoadLwTlqoC094nBiU071+Z7ln2C2ZwN95TY3aA3E1YIC8zQ5HWyi3pt0Xh9kY7U6meetZWXR1zrm1HqZghRNrXu4Sp3VHgrbxgDbmjUTipZTwKPNpIZMKlN0pPqXYkZ8EE7XZEMa90B3cBcgS5vah/WfLilzosx/LsBCi6bVpZ6a6nSOrALw2dgkwL2Aky4e590Y2A9fqGpy5Y9E5A1D0X9p5XMnCekAUNTbLgoNF41/OwuvLzR5GGAbV90QG0/tViJ+iqj7hI2624sewZySROnxJgcW8QbLHnokbvQc+JP5xQdiQzkoXFD3fAppcelbTs1Vl6sewMRj99I6/1g3Ey06JKjxLQgm7p3cXVt0hG6NfDCEN8HeO26By6zpemCUrD/2AJ7CdZ9B+zfEfxj+885fyUY0PFe8UI/5PirWXbznrLxKKR+SqqwuPMKEO2lCQboTQFgQWlHHfDKgmqZ1qUc7i5smTaK1/oNJ9xV4yU0xSMveegGfoxJWIdK5+S67TrgV1trMJ6ZZwTGh52cBE89fe7e1bXlVp9QBijrG7okBfu/vh7ZpUbu52yTPDAFSS0otiOv2L2xeruA3N0GNEv4LEVZ8+rO/6vtlhvvFS/9QYkavU1eBMSA/yAlvqTOUAZw/VtjfFH9YnG4ntwny9FFSevPkdsfVbAWM7bLrgzmyfJSMkEpiQTgUHaoF40jh7yqhdVQxVA+6Ov+vEGVu6FoJmB/bjccE/AUxU0gXmHMne+M0juMUA23WruccL+nPl41XMH9oz308vV49B+K6O+NV/UOB9J7EUmX+oWsb8rKNKsYs5eRF7axJzz7DsCiPiD1lW0E8O4TR0Vg+NqQB2jR1bvUiSBIV2M2vPaYEd/qwgsDAk1bLwKPqwZ05mP1Njf1xBuWXTeqzgD6LaCto5hKW4GHhsI4bgs927eRFHkZ4bDs/SWT7eUGz8fDvskk8xyHHAMeivqPeGtTOHFhezGz8QX5qWvKPN3Y5jn3VN+DzsCcKeI0P6IwAVojTspP0JG2nW5amXC7TOQlqAleU7lOOHJvg90y5CVUA71M8mliJegLxHMQsQVZodKAlwBcB7tYdvMjAvZtJvoza8to9GngTGt8l+ytO5Ma0/Ou+4aOPVE3suigLHRffZlVm20QjLJl8kEYUf6hvWAVJvPBsRfsvIR4K24pqJqRUzRTBrmHNygH+3MT7Mo8Wy9T0grOF8w6m1OkJDJiMCkgV2BZA152y0n0/UuB3b7JpPbJKCLVsPVbMndv3qdtMZAA2Aln/DM0F8PUu4JXziw/VmOZu9v4vCirr5U1ctcEXFl9onU2eUhdU8SHvjRbllh6e83eqSgoFwd/87CCx2+hEIRy1+duvPrP6Ipiw7Y6jEHRYJff/tIvJNRvINW/6OqWJK0vq18Nmb3h23QBLIlCunLpz9mKuxXECvCZVT9v4dAwRPdnB2S9OicxHGQppIVlim8i6xfH4x2rHx6fTTzHCd3rxiv0aOCTHPekiD4MdFVnQvZ1xLazqXOl3fB2IYC9vVH2R9tYo++tG5A7qy73vCWohgUhUfiB0dDb3qbssEsNQka9/k1X9hStwDba3rPqDtIlXq11ef7XngRUPGiywgBHRVBoMp8pT/Y5fsw1gyPX2AnrfpMbXw9kn3bfr21cTA12c1DPgLyZZ71TSp5G0tekBrf7rK+9i3orjdohp99RJrfeiluzQ+76jeIZXULoaJP57L6Z1mwBDK+XFtdowGtt9z1p19nuzWDH7zjL+oFdbcMTsNrmggF9dKejhefJkEag+/YMnu1JcozqspRvqllY9uLOijKTRT9hoHMXEJlHshfSUCYif0sFgTxOfzHuu4C2g70DXv080HM8ANPfYRY5NOAXcTp9PxXKaxVA+PPQpzHahDlo108BPrZ/Gvje2wvl7bvUfXvzc0oUcwb6CHTDF3KvU/0z423BZ3Y8oRTs/21l2Z2wGBe+A1lbJGXpdVGjE/CEZZ581I7x/V9BDIALL/fZ+y+GtGDceE/8wwboCuYphct5swYrZNmRZxKzRnMqrtx3QLw3BMbB2H+JeegVwbLe3JobA4D89oA34BKPt2wMXqF+SBSZBj0M9mUVJumqjjPPwrwXoAMufMW4tuQKUaZcscJmdEAJRTDpztrJ1bucjW7pdwmsG1+aNZcHXcyPCDzULTfF51QJ6a6I5E4lwSUhd4ead1gm7zrz3hSsJWknbfeKplpQr7YCvHouzkgpxaZZYyssLiu20gwGDKX5ckOgEssure9E3dNh9PmsUqnHwIwt+bf0XoBOAce48G3kzS90aIuk0KJl04JohvSoFa335LW6rV/aGI+mDjde7qc/2+ujvRtvVyjabqjHJa1k6sO0H+medpbxGBmm+99Z+AOZAJgLSIt0Zi7OUR0urVAE/LFNn6Skb8Iido29kTCH3ro7oAeFGZZqqkzga2HRtwAc3o1jmszo/VtvHdjquyHCgLa473ZJ3Pu5tZxZlzExAnHoKOk2iIyVFss+fnNdXjSp3HgJzrW/iBJWfUTs+vU7EDKf1qpj1gEqVI76PIz/riK2pzHfBuYhbVp+h+dwLGbdK8tJdfbAkfK1/cYX+Ey6TwNAH9Y2MmhGIX0W1iuABQ/qgrXuMS9+zt7S9Wi8CFfH8ACzWHpr2QsuZ8qcEbjcuntXHjgUxqpbsKt3zz3Um0fVq6rQVtmcmhhMMBEmEViD6r5PWmWi8UCMYxAYk+KvX0P6W6Tddjs8GwrklPenQQH8q8U9a6Okw5rb8bDrzsP3/DmeYZZoyt5/LdVzYtkdUOWkaIsOI/PFTlKhJdjNnDotaaykGhtv4U1bjacOcvkuw6IL8Kv7rn8tZHgERpmtBK/Q4M/J8XSaHAhhgA7m925wRHN/wKazWLKsGzQ6tWFg3qSzzGHQ19PN33Hz+ALWesfhTrhQaXocraC8GYgnounLK6xlL+FEuZbGmttzbdW19Zd6jBvfATlaC+6rds/kP4cU861Ybsc22CbHjwbg/oMB/Wm3R30Dab/PHm8hpiKoge7Sx9tcNLPZ7NUWJECHrtka/M2oGYqvmXXIKRdwZcNSL8nLxAXQsz1echQM8hzYvk7vWdqy2Zg0PwIB2td/UrNOXkulwO6QPjArIKYO8NKQE26/qftVBYC910MKOsbSx95bsMeJwGC3t8/McVFRd/PgywjcjTJyvBa6zoeaXzxF6mIZei0L0MV1fHGHbNOIwVIg8l/aSyHXfZq5KNJZL9RXgK/kTJ2fpWgcwsV4DPPpSfQSChSCn4ZO0GW1zXmgs0s3eefjOnHjNdiNv2dcbx2Y60CX6yoyb8LYxm33YMcR+t5j1dPurqsgynCHRgkdOliB3b6gYvSrkD5WTSzmCwI9w0Eox727+pdFbcO+VHENW4vu3XdftG90ZkoBH6yTA881KGakgX61ZogMU/+pKhyS03020KIjGoLA6hx5qFldO+58/iMRSiKKOvfgNsGuhh4BSi+A3HnkHajz0a6FrnVd5Cd146OGHvRaSXW22nffFaeselG8dlyrPhVfPyA4KRu5kbNY1+vF5MdBu5m7viJXDlS106dtDjYN/M5Y7xGy6jm3yPqbZzGQDvH5tY4uLqPWy275I2nmp64B+tn+m1IK9r9+vohIAa5YAMj70h8NRXJjqbTFaPVwhuYX5VWaO1OayZWgk9xeGkGo0RsJLnug607W1scIFjMqWsW2F1fwAPzIM/wtFpeX60sSjTHuVrAqm7mhFuscRSxXx2rMFhSVwO9B48k+7fKag2+kDVdKKAEO+tWXUAydaxc+A7xTQB7Ttj11b+Dk0E7A/rNVPSyd/jC1NexDD2VjpNSjhviBkEJVHQiAmk/Zd4WJMhAACRj7YMBhIDxUXmOopH6MVa1RWsXyy71v7Ze0y9iQ22vQmhcJRUhE/O/T7wV4BIrJjr9fQSfwbp+qjOV9mqk6gFxZLikG5UNJtvdEAujFs10rshzsr2HZy1Ej0j2A9ShE9KDyIDrYrieLarzoFyEqoMk7EnW/xSXV20FHHt0R69O4FxCrMfGgZ7cPRtXZvAzDbLa4bTzpc+XTWOtvs9lEHGG57K3KO9h/G8wTRSV2BuRIZ99IiQEPzRO5aQPXs67pvTfc5zYC3tTHgzfO2lMJ7I8ntOXGPx6FysHtfvODHk2wCz0aQOX57aFtxOKNXVEVCj1fqfDQVmm49H4tioCOgDMkRK/zDYkW6Zf0wFug16yZVW/8S4vOwpvWkQsfeLcsvCfjRqv9GgrSm13fTL9M1oVH1jnlwa/PAahW63ZW8jbAjwFvLLpjI1VODNmFtAQ7UXsK7MH04Ac9maiu1JlKYSrM9ODSO2UsO7FfpKv7xAPoerPIGA9WHoCClbMWajrsCBCRHU2vnsVyD0Egp3zGumLMjXNSBriVTtNpmhDwIfuunZ6WOBtn83ycgnJrwt7/EbnDeXVEfcl3ig3Ny7SxMdrQbVf8m+rQ/KLzJj+2qSFUXi68noxW3bruqSJwtAX24/Ggx5Ma0Ime1AJ2zPRowTjf4LDsRNp/7jZRjCgZqJH88B+RcuPZiIttKOtpYAgd2tY1UroiEr76rLTcxdZQj+svwpibJkEre9vfzr0moWEJNL/2t2xupua9nCgQdVcfIwd4NQgM8gutV547XKG0vNbOlZpf/V5D2MUJ6JWomDwwMs+OO80DUbTqVrTs8WLgUrD//wrsX0+mZ2+4TsfjYDoK0/GoA8MmmjaAbQJhxkIqL6CBv16zGk7f7y09FfdQ1q2efNDMA6hrSh1YnFj3nizHij/8nvRI+MnnYvpv2Ov9aEIod0bmzWzTMDhuzlyecRK9qmxbeBR8O09Dzw1F2UdC69mNQKSxkn47rDmJVrFLFgAyq48HGimuTUUK9LovPaFYkJtxQuMGSHV1STnY/2pr9lKDcF9ciKtJr4G646DHo9DBTAcRPfSs9DWKnRiAn2bhXYDLKIXhGAwXy3+TH/01ad6651EbtkpHLy0c4HW67qdnhSdcie/fFKNXAl1RKcEZoLzXvvf6zaATBdx7EBEZy60r9AI8cmHFrMkYv15H7TcqmXsP2eiXoTx1/XKu7UkianYkRp+CotKsuI5FZdia9EDW/IDzleSv3fhC9GUkWcBe6Hlws+pqoIuVSrRqRqAmkgi+veZ7UnRPe8Wgm25y+n6YnmCFjbmpG4Wujic3Qbq+oKxpMujhQpZ7pFsAujbVHoA7Cag5dTHA3CVxzKZA79+7PpZ3UT5yBjNFh2XCSEwqKu6pSbblNPioXwd9DXJFZt76QeLq6/b88WjXZhhjG/umKbfs/dZbvafetpYRHUzlYHpytfgHa4YSS6AoWG0aA2LSGvfFVGn1aHDPhWZpxSdanjP2vXzpcwT4qX+1UsET9onsOHm6E/jpWCTHwsH8rXsKymA/rn/qn8gu5XqdYD4gnyBAB8zF9pz46rKYxQCzUoYa4F4JOOWSWneXB5XPaLJmP4S/uj4sD6JyEJUHPR5Er4PpxURHi8SHN6GDlsVj1QA318iIAkwjVSxzHX0+SZZ2jQJRysdUI/mCESkhj65/8AUqjImngD/zrD9Fcfy912GvonzYVs/kBUE+ltVztCIIfGuSqRsTBzxvXUM1qLUeB9Ltk+k2q8H17aFj2xnQjcU4TNz4CnYq1EB+UHk86HGwAjrRQUSHWP+0NTeofd3lXHeVMwN/rw2BGt3PZsqDOg7oTDTeKQCKIO/RBOp6sYlVT8bI9Mm1kfHXz29EPre6e5XI3YSraYIywPD6nGExMObHNpKx2QG6HlykllzLsZgCF7K+PcG466OQjCmcY8aghmluIkZ9JQ1Oa5q48cOyl3JQeRz1XvujRuK/DsZuvGFPjp3EAJfdR90z8EuV3mrLxeClE3WU9jqlfDDng9WizzvIizl2xdoxEKIToA8VUhyDDDIFHO9gwbSzWM54nqS1uMDSEWo0Jmllo1Sx89XneVe5dTAqVLZKcuscAe+Ni9Q55FE8AsuYPtWufGfJP9jk+EEgZ5eJ3feMNgJ0hcrjoPLgCvgn0/Ngeh1EL6buwhutbqVfqrEAVp3fsej92E3SSLOaW7/foSqTjlKbLsfxspMr7L7bvH5WPDGcEP+yAkQroK/KbWc2fAGlCmrPVdnKlUe1bdBZwIvMZIhgf+p865YlgC4Ud1IgVUBX3hqLFOiAY92Ne269/WzTVZgeRQH9ddDXk+nF3G+7MbPrSKWxxVQx3KLeYadZIejWVw3odYffB9/ac2nb8qDAOx6CIYMs/7BJ3IvOuM3FLOCrvNmBK/77qNjHHLbIIXImiB4GZ+mUooJtodL6aQqQRRmTWFruPKkWwlio8dV5vJWXNUqJryHV5UwdalyvAH5jzV7o8Tjo8RpA/3kwHUcDO3MYGA9SYayQ3qHVMrQC3V3r99wVeCQrz0F/iUJYt325pca46Fwvthth7I4/05AZJCTISgR7nn1CTvyMhjbrVnhXQ848c4CgmnQF7udIG5QzPgQClwaSt7z9cvsX5zECXou7yavu63cvwPGhrbxmZniEYCcjoLVlJ6bng+nxOOj5ZPr5Yvo6jmrZDzaDQZSsvcU6kgI1Ud+8Ittqxz12jmBTGlfqJn3dHZ+jWjI8Khqse2u72LKGJzNRuQnUy54RTWXTAV2v6dtZXKfkdj6eqQxZeBgg/TzIe1v6gMOQO7JLkMxF73UKwLQX6y2sK9TBO7I3HBRjVAzbbkwN0P0xk21/MdZLy16o0PMpQD/o53HUaHwP0NXvcEtLM9SEqbRnwP0OEW3xtYIwnoGrd+wS98fn5N/huaZpZcTjW0CR7QwcNbo2uNvONS+rDsBr5xBvnZn31aV/cqHX9T04N00iS5tm9RY+KK9YgimCCrWHLPoAvNsmK89jqLLehQdS1ZVp5BXTBOxtOArT88X09apWfQC9ufBsmRTLrRFkXHGVx4JcrKu28DRdr78tpgHhJa3U1u/OunJQywrgSkYe3fpRfa8xnfX2jAsvpwb9W6VrU0gKoZn7KOkAJ+s0mNdToeDaLQYAACAASURBVOwFFd6a4od75vULEENkvihelcvo9QurOsSz0Ca/17+hXNNfgpDbav1+ehPe+s3dnRmNkR0gdaefteAr7WAGUzriOeZwYAf9NjfRrbF0q91ixOkfHHGbDGrj4PwzAqff5OJ+iiz7M/vmv3PaVjldhtgekxUZ1DKKztvrbPJ2sdQgWwHdY8/L/GS4jOpRBYJs9vX+GuhEE8t+sD0+2jfz+DaAJ7HGer1dXXdvPatiG9YlxMiY1ZpeX7caWAJhbwfpOjlrLW471eVM1dC+xehpIOsReIf5fn/qSk3O/Q3reHI7B/2/1vkmnU1OCHh3La+fw1UIdKQ42kSP8zIVVmtYVGrAchZrmI/7PtjZrs8Psh237jdXl1Y/QcakHtrQQFcvmOzvdZN6erauAM5YiX1azID27o0AuN6EfL6NAYzwKOzfBfnIRLbE8HiuKeChVmCunYaDhUPWefLtb72NaxhSrD6IU/zCCyUq3clDpqn4Ev0w6E+2UXdWGXciFSnY5Wn2wsOqH61S/6Sb1pI6wKYfdfV7yCOYa4K15FYsok29w6rnNYwHb0lZdV2G+1l/IQeNSdrjDYe3fkvSt4mWS5DsuobdGKG5p5PXFVQJxzSobtxc9b4xOMcRsnYdXxjvnBOPUNXb1+YzCWkgNsZFXfIKhnNehNI1u4CZ9TFrq87DspsBGh/Np2GtlwkXjbGI/bwPGLMaAg+hhLcAmrdFG2jyTtDvoRLcWJg+oXFaAX92FeVR8tWT2AI9GWcMiCQas5rQiMEBkpEQ6vIKRqdCyWKbwyg2dmkTSi37dHo0plW6v4UVamMiotKj1rIhZXWrFwaLlfn0xXp03FfH6vnvflHt2kPt+M4RBWZtlB4XDZcXk8REYX/C70eN+3cCEHp9neEan6gkiDpbBBVdKN5cWZ+lMYNdIajXn/lqsaLRlkcrO1b9mDOX/yKMadzvkouaMJaRW2dj++lYv8s9OCXNRAb09t42uY6qY6BwItkXWZK6r1kGoxNEOVXGPn1O3DmwPMMu+XKqicG6bhO+YuIz5BVe2oGVdADyY2JOkFmcXUOVjQRe5dNV7oJ7Mof9yAWruc1l1EeaLzuWcuvNL6FnSk1o8SPsngF7G83fjFpXwr0D3Dhm7fprV0z62/vtNde8ZakDae8QQQ78LfrQqJBMVf1gj2ZoYaahoPvtkkxTtoPVCF8yNLfQlPGN6yMF5tRyInnYl2J7qttArJg00GrCvs+pA7A4GJvVMxhl8899eMAY1y1Y1P2Iu1k9Ld14UeDXhErbnKrZusUmJv3mASb1UEkPbiS1sgKWy9db9BOn3nOnc0r+cJsw6UJt0/8cMrkMKeNJ1gUw9PLDxby/371XrUs09d36vFzn6E9Z8XXleWJbyx7cqVEFyDowTcNUwDFwfR8YHxaRQ6FIS8vuG5ldMYpKXTI3/XVEzwcodHBDXxYt7673a37CdoyKMIu0vj9nl2A06gXaKZsJ6aToJ638uu5sICmOnyRvAZjSOQ95nB7Krfuk3VODuJkZKZQgevPx6bLfMcC9L/VrzcvWmh0TmIA+wgqUhaj/AkzPo6NhSq2bJ+KouxXGG5Ac3KsGrlSycmd0iSms1/VtE4KFlF8AhkAnXCa3QNbjC19xi+k0C74+PU8zhbgRpPO3tbZ48UrWn7iqcjZsPdopWbE+vT7jCd1CR2m9oTb4G+PTeeIqhzuAfwPsQkPD6Mhqf2d8B238yaf+AEu/D8+9I6oiN09ux5pWIOQLYmxrnTLaDVEwJ+g+YmiFJbac0BmPwL4w31aeNASG7C3KhAi1YX5bMGUCmu5wyYgOtRhqCvxFM+Gm+gVCXoK5jryFREB8Wpc9UPkbXqCnU258aEA+YSTqp68rtNthfHOlKLRvxqquVtYGN9y51KsGxlvdLYtr1tQc00LHh3JDOULdb65v2f7TqbeBu1AF1jIicapBBt9uzmkyR7rPcHAt2XqcTEnfNvn34wB5TO7dm8OpkOSKYq5jEnlN5OxNy+4bc5Na5B42K0ukXcLunxNJyCvcJGczzzHAxvZ2FLdciXlFlr77dMGio4x4DLKrd6DQrCpodFE3esq7gI24LsNKLHC08e7dnLgVRk8Bo7cs5LWNOq/Oo61Nu7qRAXDdUejKrrbzYAsBXlDN5Nlmc/dIfcJDhwtjct2yjxaSc4YjaYNsuhOSPq4V9r3pmUeeXk1NM0uAM2xr/sZJTDtDW8Xussn3t1FQMY5e0067+HGUeTETn54AHTTXzmdaZ85AtP7RQ8BFkZWen+tQV1oXqJd7+t583AD2GfkBcswLyL0riqKvlAvZvhVL7lqj+UldM/wpbrYgUHYa/hgtJC5J157Utdt8+y9XsDxwlAO5ltbF5KYhWPXMWTH9nFj6ywSGH4Z9u+FD5Ya8mS52HM3phgCd5mjh2qiorvyIYuWxpveQWgiCJxNQ4GFkyyXWYHZpfICAYKhEBemWdP29ePYnqGZUkuNlC5v5I+C3sSrINpujziA95q3t27fOG8OA9jhDj9DXCeoKxbgDE+Y7FXBNeM347GNJVv91heBBP+flw5a9s9G+tMbSmlur49gzNDwoyFKS75B1JYDss7E6QZ/Iw1nafxHBW/bl22j4asjMzkuNQzzGQkVPVJgSJ2ubHPv2i7Rz3j1J6sfyEgN/jLLHmkAgL6MbwZ40hzSsCThozTWOZ2tvOECXCLtLY6vi7uTmArlVOuyQyuq6A+hZ3XP+bWD0g8ThIGmScd5pGZtu+hTkIKvzSv9tX9KYh7d5PZ3DJ2y42aB7wB7mxb5pw27t0zlzy86MJmDSNpybmwSTd+u6AHq+4XXYgYereRNXSV/fvMuRWipfX78tu+kBwEvz12bMq5qUZD2jYKycG+2tLCrHPZuVbxyeYFMOscmujtkd3strdj81TC562o/biktuwRHVtH5plJTEfqntuhs76DTJPSfJQPGunZNAjkmbPdX3vDLSAYQdwBVTn14T3uKxnK3FBy6ySJbkNQDG/R190oqeTfZYkqenOhG3ytt6I5tPAzHFel4VJ1WxwzQPwWQashvY0s+sI77IDiPPuyn0doCuP7WmJl8g2x9pNYAnkldRsds5xw0AFehy61EpBtsy9bfDgICeDGi4D3+2fyRrthI2tMWc1Nvdq9nSZyz8TkDI5dlRVuDNsnXXg8CifuLvneim97wQkY64EW4nMCf5HL+LtqM9JlVHrk0wrw68TWi5H6u8vintXnjL7aC3Gs633Hj/VHuYVM2w+Vb5mrs+bh/YGRVlYl6h69WsnoMgEKQuXiCjPusnPpTgC2SfX0GoXcRzoy2Nwz3vdKeiSfMAyUzWpD2ThIGeV2XzG4k05YYwsfw3hiwCfSxT2Vdm2+Txdif9CCuror4zFj8T/jfE6xLYd3Qiq45rhq0noMsM0BuAw7rlNAoMwnWadhdtb4X9laBf0S5fLh+IpOaAJ7ImzylDt0EkKuwtjmz1MO+5OYC5wVohKo6aYO6DR/dk3pa2KWG4FGaIc/vT6LQbz53h0SsUSxueNZO8NZb6gzDtmKlucWS1Rhc7wGR3r+r65L8se6Ve3S7rZ8BBmmTe7LPPGtLOVrpsVA3AByj81BVVgYHP9NM9KkqWZ2aiNilYMiUH1NMW5eSYs2s+ZcesTa6bDKDDao61chLgeoVysLzslYkPdaw+M7oeoGuDqxVWUVNg5rOtUeTJJVmvUxEA1sEorSL9Igsv86JDRWnYh9J8ZgAYBXhRGET1QEMVgSGMgeQPoecPAf5mBWD62Nj2r/i4Ska01clJjFNYHBrD0pm2YEbfiTLQKNOG05CNpeb8ByZQTrCc8PfKW9mKL2Wx2/nRgF6/j35u7mABOgV25IEIA3KMFLc8i95BxlR/rVUA3ypnkvPhDZQWsQyPnAvgW2slpEuwfwj08Dp2AenywSAhmfbsCL0HGhGEldJ5qw1k4U8rFQUrJQASYB0/b2SzrGoL5z1KXVya5zW2kNns+NorBzxf1Y62YlevKex4crfvtBH1CoZZ/b7iwcTH0X5N+SA+mI7jmLK1DXa05JDAhDDSYu7W5S52YiqYiwJ8GwQduRdLTb0irJm7QA0BNS+57M3631bvTY6KUJ+JAoztVZvzTkIC/ynId2tuXZsA+DMWWVN135V5LDCYP2PQWNxo0Qfj/fVOXHrOVUMe+O9Q58fpe3aZfHxxAFsPjLxXTiz3sOyHAP04zPGMLgTo2DAWtE//WDdEd8o+jd7qkXK2ry6f44R9PUY5O42ZT2T40T1T2eBvTkiTo1IXILsV/JtWsLwMewiLrfj3ZnBWKqb64Wd4hYLyR3ICrTkrhWAy+/mLI2Lay4bBz9XOsHZ5VVjhiIkO9Pb9Oo7++fmSz4t+vl6+BSLafpW0Ph4BNHtcqXs53hS5DCO41pKlw86yiHXvPEy8amOYFtcNS86KZfV4wZu1hTnco6vQ7nxAhua+QVynx7zDgx0LKJ1zx4pmfnCwfOGattTo9cu4rhD8TwjqeE9nAw66Qm/hh3Ni00jSdKCgHvffXDyo/5ryq/2y8nEc9HpddOP94Os0NDA6Yt7YG15b0cACWlGD3rfBNHx1ORQqahJLDlAPcB1X0IPu29d6R+4e6MqyujHtAf9dG97r4cRugrX4DtAjacCfR0GQIU7Sw7GLjDDKg+r3lluuaWlYKCGYY5O8gA2W+mUM+gF+prpefzHTT2YF+Gbhr4I949WkJUogA/0cdfaasfwCNhWYmRTdsujhvKFDr/ahJzBRLFn9+s5CRneBXNdW+fCLQ3KKdQfoo7f9SDw0UnO9aUV1qcVtZwda4H5Pzr1LbPNEcG9Zd6LTuk1mY8gP8EwAwPW4V6CPH1gVoP88jg74n3eBvfPElQnPLIc8EpjRFyhHKaCuKHpAh7trry2zbiMDNWySabwEU19XJ35OdZtbVr0MrnSMyrHxMYq30irzeAvxDOhyzF3ZiUDaLbEzLKArvrTPEa/3PDwBulJ4u8oBXetpmPXNyXP9A8tGD3qdLpuOBfCv5sb/bG58XatXwM/YObVm9xqTiYhZvaOFQf+9VZ8hkAc2/GYZIb0xxkfVbbv798ntd3KnuWVaKpDB6bTtWwg0se3tWHmbZ5407z2tXXcYpe2AMANmqB8ogmWZBT9X88D82kgBq86qwzqtW3YegP95cA/QzRi656k3prBmhyB3534tX8E0LM9YK9vfbSdV1dDfBQbaepNlcnedBzNisbMxU6sKY/2LO9L5Z/RJq6450PGT3rYeL90pPYy72gO0mkHerlVZXfE5HTj0N8g7alQywFk+lxAY7u7kMD4T6pdVPTPFIn2J60R7Ogxsqb+eLIG6Q7vyA/BvW/bRC/kQkbLoZmJ45NbnulM6SBdccWVm0XZYVN4MnBLgVF4V8P03zC/EbJTBeGL3HMB7dZv5eoX+O23MJWqBb50rOgEAPu5FcASYL24DjbmXbgAwv5WJy9jjoAxMOV8/WCrM0JsANuNhVYcp6KcGKC+v2PqH9bqdunUXV/6vl0ZjpE2wR2vZAdY+y9uLXovq9IAya2EE8N3ik3MhmYj1L7F2Qd0wQT27dt/VseHJ8SunSTMam3NrpHPjq0vK3BGYxv21y8EjCR2ajeF6vT7ru/luGT14kSEhf6xPOalf+4Ecy1UeSlQUC+DP0n3nO4DR8ssB2/DGbc3OOkBXrfvPFqT7eTD99Tpm3OxvqrHjPEQEfQT8Zk9vlkfS1CCbjTc80gYfKi88ZlWP4x+4+bH+ccyqXk7zOikFNFc5/uqGb4Cse1JMW4Y+JqoPsjNL55OL+2pnuFrWr1J8+IZdtjFHGNfZt2Z2xe9yf1IZ/Qh8EQYqyje9OFMeQd6HEpa5iRH5sWb/68XNwke6+Dy7EXMoTCFd5/eTorWfETQHMuJRvxJau/PIakeaHGfXwlB57RwoSkBuC6+QUlAbFcD+Msizj+QpIZb2YhXYnZ/djkvTkv7N5v4d8vXP5A3K2ISxUWcx8txd+ENceO3GV5D/bB9Em2CPhb2lCyDXVgR0wisCcwyArC2OURwTls31Xud8G2Ql8E6zdSE6A2Wbk/t//Zk25Yp7gdfjZRoci/V1vSc0E4paDCcqWktPnJ2lm2HUd5eLvEfp7TsiYuSF5Kw6gGuhZMAXB1n0MunlHxkXwVNdq2urTvTzIPrrGIDPLPuJAF2uhXVH/AMOPbDGZAJnI031qpAOCKu83Gqqx6X/KuxYo+vnpM3UqfpGFrQmD6tXCPh4u2pl11Y2XkSGbePUhLAM9txlw6Medx1imLPKLT7nJyFheUFZ2ICI0h+CjRzZI6P0XB19zJBy9rW6DAw2PewAPL82Ns3oc3YZzXMYk4qtEhufQ0XjZRddteZEf73mnJ689cajU8TWPWc32RZdRHKqQO1/9dNE2dV1eW9diM6poJwJb/k2qQFcNpM4BbAfyrMjUbZAjciWE6G1PORKxChTwLiW4R2uzvZ9FkoMAbo24IOnmUpQ9S6zRGUALru2W4ryctbtzKvHu0iNRjJg1bJHPt3wra/JVlmx7tyt+7jtVj+z/pxeswOe3CYbCu64L8PgYwaFQZoun0XTALNW224Xy8kILaI1bIBHPapn3ETgyQswjb5OsiXE624lBFWSd9+XratvwDCaL05zzNNtyrASuN5VbS1dlhqqA+zzuzn29QWcKBdg4IrVDrrxMMzPl3Xh3w7QGfAydw0TPkTt9TnSATagN+Bz2k+PgAV3zOcVwIp3OQoKg/wgb1R4JXp+ksIbWsDx7vV32/8UrcC9328UAYll4PlEy63W8lnRGd+7oxqVt8S52ltqujs/7rnre/CIlmA3AOXx+hv9XG3/Pri+G0vKsdJiLXEGUK8Qejlpv1XA5gIFD2LWFx2gGwrGp9ln9i3dD+yMVqHEXWX3Nh8cRuwDbbiE6TAD00jDuHRZUfV6K6tlKI5y0rjzAgKfSbF35ikEs43BVaB/B+yeQT14B+vGjgF4Hi/FO1gzyGoi7Ojv3YLItbUlGZhkd598C7jZ2U8nEXaXVaFrN5neozMW/rOMfE+LuXqT+fDrfxfHyNwFXycAOrbkSfAvE4dVu29Sfy2VAXcEPKK1Gy/apH+URjm0dhmvztHKwHoGSiupzotSMG26b9J5lCWfv1ETL3qxAojWwB9P64fn99EK6J9WBGYePlRvSCdqwSzUIhhrxx8yEALxaMx8VW5poG/DTHT+nlE6N4bMJd6iRlb9eBfsplGGgO/vwNKg70wNkIdeAkserDHwAHLtn/A9yadflpnn+n6Lbunb7XhtFWm6D7CyC5DTdQH5QqpjZd1xvn1e3slo2uzYs1ZdMFbjZW+48fUzXPOD7Rpd3pDx8/Wi16u9/E4BPu0JXMTzvTO/RT66giwGG3561DVIzcrmxuaIWvQ6hOhxPf1HNrL6QRXLobzsFpydpAueEG/m26qZd1utuXczGquv7vnqOoKTiY2MGVGFi7kXgtM9bT/PbkCvX3bXgP4oVFWHbJx5FHo4BvreFSa1CUZMd7trLU9dEZqUu6zpxm2zwABTeNROP3yTF+xp/Q6z7CnYZcvUYxjo6fhd78OvjVxZoUxZP03ZffSz6bN8OZOotnanf7slTV3XsDqfscVE/ektkXVfXzvgLuuYqz1e496LjPai8d0dt4E4Dfj6cb9awb4bijGtjlrCGIhdV/pdmoVSSwUyUrWKd/azaTJM0po19xwUc6D9K10V0uU1nw5NFpfF1pRJL6gW0kq8tElbWfSWh4s79k3tRMV0/7PxoyHUK9oWu6RP7ZDJdU/zofnyZGRtTaC3nU5F4/UL6o+D6XjZV9i+1DusRzDOjambRPuDjXZXnp3ku2hn/e0gaGSmHVwCPLgmoFeC4HV1bXY8FsSj4bSd6D2Kxk5KnDJ5SBuctZk7c3p23jktVUC+ehj5Du90n7KkPaQSBx68Dujc6OHl8NnRJtq+z84jwn5oq14BLxb+kDS2gQMtk/aYzfctNK1qU3iAIUAn6+Gf9+u6CsMiMg0tMTrerhpkuEozb2qVf0KJlQ6ld+Iqu7RaDS66Om8VCJqZukLpbcGEtqLxMQJ/uHX7q7/O1lh2sUbt22go3ohJnaC71MWeyBSTWmCemOSVGtLYKRdRatVhU8k9eCfeB3bqsvHG/CA7NOFz2hK2ufIgTv7KwGIEfqtpSLzxq1ZZAzcaJFTzbJhvouV743sIiEck/tUs+3EUeh2FXq9Cr0ehx6vQozA9HzVf4WIebulBC0UINue0v3JU2b9kkpflTYsqO7MXPh8Uc60rb66YCwJxz0c2o0DIAmZ0ALMdzbwRxO+k9bnjeYW6AMAr6fgE/9ktbYgW+yxcfaqq+Gqz+XxYLDI8Xra7zKnrxfL2Du1Z9sbI+J0pd9tNgnTttpvc7O/74sXIhFrfoeJnQH3dpBpDNXuKw95L85U1DnWgJmuwAKCDurSYsM+ieEu5d4XRcwN5oRVlK+hVsA1cZ/W49DZh72Y+lbuK+CwlvKC6Gaa+RZvReHefXa3PXxroxo2XYBuT0X63cD8H3VmBmLq1m/UU+29KJgAknsSu2+iC1BzOtPteP2WrD6D9tNyK1zPWqIJ6/5dq9QC8J0wbM2W+7wPepCYViL2b9p96YxoBugby4zVuu/3sgTpl2ZXc7cdFFlOwLYALminYM3J/iY8VWBKLXlye9s0uOXJwXnBy8d6oK82yY81dNds7W04xco3e8qjnAIe5MjftIm0H6IhUgC7cZ3/1IF1/+o21dZfypkLVD+uP79w6MTv0Lizb9Hn8EftoHXsQLNW67CZnFyiRqavQfJ/m/HXO9PShW1f+JAwHctHVtTu6E7ZBv08hhOOPgwvFINOEWI/vCG6Pmk5ZnUCb99ndnvh0zc5quywNN17x2OceYYMn4+aZU3ydonQ+OAql80jsXhYkxREMc0Z2gM7gE5hf5DtDGeBtusjDqqrBDQIxXru/C9C9oN3JMcpixioQOytbiMZdB6Im4IMHG3Vxci2AeZO2n2fvm+074NXtN7n11gEvz7kTmT7o73YcxFuVmd1t0vlO20J2hzyGnJrXYCy7sfITfvSB6sPKefXTjRvYSb+a70q5NdB9tjrWk5vTQLHa+Vk0yf6x5BVz/jinDtNC1Lcml8XeBlNWn2U3a718NXmERuT83O69g46JuFTwlqM9XVOIXnTQgwo9qNDP8qIfx9M+CMNsHs8zfMq9LrmQjBoGii7EMMdOn8JvOHk+YNVZRp0mk4Olwd5EonCWpyG62P+36p3w5sFtDvx8ASF+34At6EoDje+EfXPNtRHmOk5+TxiKbciTsTmS+6KV37/11i37eEG9/N7Uz9d4ta28raYH6Ggwv2bxBouyW82JsgzT13DNGkBOzicpbydzofKS+15U5vfqyka6rfUe5XXNUwJ5VuyYrr4pw+mtVuRdnpOgk8+zN8Af7UX17QX15nOQBbrsx14Zg9skf6ZY5o1oxQyUdDjvDhbyslz2acth0ww+FTnaWRpkfExpwcepukjc3c79+E4G6jPKz7nC03yV/G3UdcC4JOnzdrI68ROMeVW743bOsss3jzdjaMDrDTcxGq8ZQ53hZMKvioC8QCPR1KvxTLaaCkf6zoLpHxOxa2BLF+8i2LG1dw/dFQ2WyH3gLb4pG6o+lFbyrn3UvVFo2GrHZdrZN7Fct2dWOWkzVn8b7Vl2BfTxCpzmtr/GK21fKjBn3XgL8mn3tGaRtm8QiF7F1uhx+L9df3Ke5f9ul762tXJVzyxKEpIYVkF2b1j32Zth3qEtL22D+l4f98vA07zbjSFvQp2jemTcLnRq+0ciNOAObpNYiF7tLQyvh4CdhmWXclOJmNhypoXmXDEtTbCfiUkRJX5S3h4GPjOXzpe5A9Brl/JXVWar4NBzPNdE2ku6U+lhlHMSNEWUcxxzmZ+r3uUvawgKmixHxvFZuvjDjpYP7d4bdtzGBn/Peu7ennMfezq4aNvx9to+fhDzC+Pu5ZkqI+qfbzvv63nXbjfLOzQs2jqvnhO9iep7abe9G7wWobucEi+4Xund1M5bYJ+CzuVhBww5mQN+XEECFN7MJd5Emt+2aQEf3/PF/rg/quvVg+1fNgaDh8adDl4aren7f5VOmLBpdqSy8lzjhC+5m+/Tqq0LvHxgR56pXlWODMkdgL8M9gwYkjLSOADd5J8A3gIHv3QvWnQLRC+mA7SxPVvGqo1gzaUOAStgQbAL+wa3mTLqxkW6Kh3qoRTt8coTeLNAouuTnv874i7XKGs4Si3KcvWe9hXa4Ogt0N/ixuvj8bG7yL0F1PkR4EOnp5rOW3RQgX/YwAE+VVY87L6JQ/h+TXhfWno58n28TG8A/Ux1Kp31HCTOyffg5mwjSOmaf9/qk3hzcye9DXahIMBK+meAz+rwKRlY8npi2cgjct2jdcoUge+HsfwJn5B31g8JoQxzWhfZA7+JCJ/QF+y19X1aa5uDj9Y5cw4+0Oyn4H4b2ImsGytgMDKsxy+5dm6f+/oOp+ENgNunOTZ7QgZw0xbbY30ts/hZd30dGW89H08sJ9jMdp8YIY03DqzQOqsPmABbcMz3LyVgwHoPgRzpIjZhE8pqoLDZO0e3gH1ldVOLlwJ+DpJIJb71OeMtBbxtCU+SOuW8L7oPsCzF/iLKlNBM8WRlLVrA7adLaMKKcih6DuNSMyUSk+6w/fVQD/OMgG/6mt0pzwPBq7b991m6PRqPhN5YPF/WAN6PJKiwU+l7M/rlUuLgbVhzzWOvm1BdYHKYgpei87DP5zJkYygH8gSelAv7FoAi0cfmk+xuGxE3pGZnH9soDmYJ4HGA1TFj/heb/FvSFgBFbibaOVX4Xk6uIp1uXrNDjeXBzyiPi44nMjUoNQGh7hzcK8CPugMragJmAuwVAOIvp6w2cIqUwKzWj4BH9baDHwlpzmSc1fWutW8j0JcOxK31k6sOFMEzjizM0bIDywAAIABJREFUNToN9oUIQkD4a9mGmpWWZHcRATMv9x7gdSatyORr8A4235DNd3be0PhUS+HbRvxPyP0u2XWKYU2oBEUp9cTIaVhdTHhbewoXETIVwHaYgZWzd7mz+n+u6XU/9+iSZd9h2AshAjL7QqCOrO0oK2yOIA8b4NBp4xN+VAmSb7e3CV6qMAU9fAADPFewAIIdEVfGfaNI/M5zIFnbO2lyobhMho0N6Wb7ryVGcBmlo86RGHmFPq4v9hiHQSsjzexbQD2x/OnmkbycVQLbe+MBP1sNeWb1NuDi0vQ3qlveNcHU3phaRgmTL+FBb5M37TGZ90xImqWWW6LZfo+1k5hCQC68OUBBRReYKqp/OzGryrugRpVDK58V0K+Qk1JoATe0gd8unmWFVcENS+6YYzoqFHTIFodE/scdqQw5W2lDb4QY5LlC24+4rtrylhSVW11fdQZp5sxCouv92020H9ycldKt9cgYEautOuI1qxv/LlgJ2ZDRZ5WejXMvT86DV0AvOs2Y3DckLQOWSgg9Bx3YMTBQvtQWvlkdnJ5MGkxuDrLLM6IP6AN4bv8ghpAi2KD7o/FkRQMxha734zYvPuAE99Zv8JUpnF3AY5DGwJ3JI30gor7zzu0ZtZO2DjgSUfcUTFsqe5DPbuEJf7s07GLuQCzhV38rxZdl9O58xsW0vTgI6tCO/5RXdWF/jtx63cdE0Fj3Zkouk7OxO0G3bqrxNN0TTxUIRDaPKU8K+CpxVspkXbW/AXjUwAB10cnqyb+J8gD1x/YSKwFMTxzTlO1ICNQp0PcIsGhTFyZp9ZYW2NdsTBOhWo1/YDsdhmT9Drvw6+8pfAzsePBFQBnO/9k6R7rbEtOj7P6Bl6gmsi2vmdX2gqCBHep2dekMvtyqPcNvkHjbiX6GYgIwpx+djDJXFS0/1MFEgWK4aPdWBbgSmvMNymWTueQsa/vcr6l6mTCjf16/btPtYMeWhnEHUyHIQmy4vdEwePgmPOEGFACwwHOkL4BvvseC2vzELiizahN3nIZHcUKBDv5QTtTwCmy1fyOBaahhV507DjW38EWw8iY832Zvq9N6fewGdjpQIDjyFgGl+I1P1X3GsrtxxG64PCK621nO8yJ5MkKQA76nIcAnTaH+sM+k0rzxRfmnuBbr6GTULgkEXISDeKEXu9fqI68+dpjX0ECPlNVkrlN2wd2BtcScBOUpwJ/NV5wgLI4/SPc+CAOU7FgXK5ix7f9Y506sBxgQDSJWGeE4Js+we0D6azMjC9ffjPkKSiIrn7SJMcOhHV/XjqwyOBIyIE884mn72UVAxRy5hk8b1cm9yf65A2UFjMGEWT6ntu6kzwXoADqy5x/G+bln3rJm/fHMSodvAEBfaHTN2VWv7KDHkXQ9EBYYCyCQJ7sZP5G/AWjvNu/wsCbk9WzRYq2+U0Fse6IE1Pc7cvgZCL9f60ej8UJa8I1VD27epDwR7a2hMgEdt8vit9+br55ZhyxaxLL9F5SH7cMoXq83vmDfZ4K+6nt0vdE1nafoG+yu8NRyb/P3aUruQ7IfXxX8y+QPeHm38OXbX+QNEqXlLntLSEL3g31HKiCCxltgdHR9AGZH8O2tsIydUFdr2ANef7LfEfMD7r0DD3hvme0wZJM/34gR+5QrxeiWl5BeHGY0z78fwD3tBhcSxeDO9wKAO7QKpMzXS8Nz9A9jK0W24O/zll0E3XGoQeFd4GhW9y347Dq3dA/EIcybP82kBj3WP04Q4OuhilwrvsY1XC+yNExKSQTwlul969LyFfWYq/ml0QlpAdMeyu9BFjh+/CFBN246w2/SzLrnhDzLmrTm7aPReM9QB/XEdQLFACEteOE+rAckUQA8sOXjvzJ50Pq5+lGADvM+FwDLs3PdUR3pUrxM0jNliWgRxfvVpBUT7ASKPN4J7EVb4BpwfCcJe/Qta/Z7aUeYknUwAvdG/ZnFDsDfqD+743BNtHLvZVYm521df8w3W9v/SuDrfkIVuE11fvdnSB6icnd/dW3h0CQEz/Ye+huCXROy6qsIcu4+6E0hp8Z45u2Za2dE7ewyZa9uBAB0HeeLsQNGU/BRKiqQqHka5KfDBB6puCUHYhxPaB8bt+bcHYIpdllfdzlvAvzfHOyeokXHj1OiRBS0y9oZ2oDV4pX1pQDyK2jIgnP7gR7WwISewI673upYYATruM+6+GbpEarPlzL1acUdfnKk4Xm2x1YvcP9a1NqO7l1K/M3Afm6t3skZ87n1csU2xxvlXbvUd5EE92LaTv5rP644UzrfZeY9D2iJ0gKPRJits3jaded5NOhfmoIa5hTk9wH+bwb2GS0CdJuTBHMlRf1aPhxDrwLXdR0eGrj78QCffx/wCmAKQfPRfbd3OHXr9+gWQcc5+SUf+lUB18zMG5xdJvJuwA6Dp+h7wJ4K/0aH2r5su8cjmbRkrIr8d82hWlJxCEt9HY0D6wYtICtFc+ZhfaEyE97ZU1jza4tGL5a7jzZ/jHdSAUjzWvuMxt9q4A56H/zfbNmVdtvh3QM8rLvU18yaDrgTMVGRt8v0D7vzlg+zb4BsT0HjRiG0TzuGYSXPBw0+5NFPfO/8rJBla/XMO/hMwHCLivlqJ4v63YovW1qzPwBTuO8vJY1PalmRSNgddv7DYM9Y3Gf9zBCh9VoERlYjWPFO2BwYBo6deUyNJoLE7jCu7MapDTYN7zRbt+4F9nZ27eV5dtJuJATw/ZBNLOfKIg/sPNDnJd+jzOvYo8++qQadXPKGSkya1S3BEeDKwzq6JZ9Y5qytno475n9yMuh5vx1z5fb0dfJ6Dbrvri/iHWn5T7vvJfxPm/XATa5n6flE++z3r6URoRXpu/t8Pu7G+33ub4cg3l60OQY8Q9vafVapqsZ8Z+v3zJrH8/lrm3IQIh1lHw7a6yWH8f+g+w5JQb+790mb26zhbdI6fJkUm9OVLcRZ/OcGHXP5VdJT+i7F76YjzK1Z651dEGz6h8Vl3yrqMi3L3DmgM2CgxXEjFT/4Htt2kRqDkE+/5NpSvAh8ccKWu+Use+YqXN2d9YQ36G916w26NjDnHdbG+yNn1KsrA6Lt8wj9FX6xQjjtSZXkFMWcdumdsqeb2lySLO+QEEawcdna3G7eTSlewVOUgzhf96H9frB/dDLPS0250+0nohAkMWvs2cQwPFwTAvE68LYK0LHP6psAl9/SQd9JqzlndL9cKXMfNwlAR9nbgrUFZ9kpgDQ0oOodUvQZ3+kzbvy3Uza5yi3lO+Vu080PRWq57v0zL5TR2Yj3GZ4mdaOgd9dxJwTxu31+48LP/HkywI1LawB6B3gT59jR4ytHwr8x9AP0tmXfWPXcSjtuaZmq0QttwmpAYrAI6DLmacrpCe/ECGFeITibrNdd+hY3JtOHEV+w+w75nO2FcNfZAz3Ujbw82u/uGfDcMIS3/mQzlay/Cac989CW+YbEORVw1GtwblJG/breAGPW3R7IwNXz5Vnfj9ihYoNls6WL+W31XTSWXtQ+DbZDO+7RROLND+jF6+/P9TUq0jgE/Y55cXX57Nm3KTfmoTRezLev+wLdAnYB+oncS1DvK7J5wzYyuvtJDLAC+ICiE4YtGZn3TgvzuKOA1uw6yYJ+b/zK3v7yVqPhoPPFQz9tm6rrQL9rLYar8ZacjRxkYd+5Wmb7HwK/uDKbXspJuvdV0uZ7AmdjBPfCESiPDxzdHYzLl1A5x/rHna2HMK2wl7bfPj27Num3GiQ7PrsCdcYr0WV85Rg13Zs7+fLEMOeJKw+KJMSTrjJpoG5JGQA1luFi2t2dFT3ru1L/kV+E6UA/OX+2jtzr2atzAO18dDMDLI+fQ1Z1FrbC0LGtj0/favMvaSCwdi8qPYKefb5ehRaTM248ZDO0hjjI05CQ7CrF92iwbnlgk7bnhelhwPE+Hl0VYHuAA314UrVP6dY1u0QUmYn4YDraG1kPSZPv3vGpvaa7JlVxuJHrinoCpVdeQarBvAOY0TqSVnBy+2klX2pvrLWuSEuUySy6Re3S2kox0CYERGrudkczvgr0Hoo9xcZsNSJIQvf4vAx2dh9p72jgrgA/6Di4Af8gPlgBvhE0an49WtOQperMzBPUlcD5VrmstpiE0gbHQ8mzyp60a5JLyJarxXgF+w7t2x0U81GhowTkBl8lpmvw+7psBdfU2yrPGfNx70LwQo0n3rtgvOgNutGyj3er88F09M9Rwd8AL9Z+rNWRdKh6J+vwANW+oUHOk0IG5xnwd2niqiJdwjHbtHaYZwfmAtU5+ZqKINN8osLwBlQAPGuvJFNd3LVKoONmfZ7ly5XbinAZbxx2DUSidvxS78y99V52CPgZqb0E9qwB2Rdw8NGs+lHd+P7tgN4sPGurjczBBjerTpv1s75wadmK1512LhYcTUA/vxWc2/BV+hSI5rgEvEPlARywUBfKU+Jxyp/Ku5wqyasarUf5ciEHuG2rgOs5Zb5PUvoC4DdDCoZu2VTDqnEB89HW7MOyHw7oXiu556aLbqMpg+D/XeaWoPtzsepc3fBw4Q24VYmdiV5kSZepIH2l19bvlE/adS6+fsx+x70fFFewK3CndiEwvY+Me9z5+xcFRLvmLdJpsAeDxBbo4rK/jqN9NPDVer7XYqVk+tiltp6ADyLCLvzCSw+WHvXR5WWdmFKc7JL8n5c6R2gThrd1OkhnvieDAS13SEM+SLSs+5Z2NsirNb6VopKO+AZFc5x6ZwzSgvdGSlbdZ2S/V1m8FaDzruvBKkCn1+xHDdS9uiuvOtPVvhMhtp0ncgMBQA2n3lzH4h+KIMCT7aukIJ4wzScugIbxdVgT47R5ubK/UgL1zbY0hLV51+dY+uPdAaTS0XXXrrpuvY7VWmFNqXFBFXbZZfcNF4Ak8t7TVjJ9kd5y47Xwd8t+ML20ZWc5V0BnB/hO+QoqAs2KhFY++lZ4HCzsGIZJcNm4VRwnfaK+IZn1ie09KJ6NTugFAHdoo9i1uE/TfPgP4skDP7tfko22SQ94RGOZpY1P9iaZ+2wkECpuLXQroSTWiAf3LzxSiVdwE22DPRPpPszqfvqhwK1d90PlsX3Z6DDymnh8++w6z64Ln82hnLHK5V2wrI5K0X0M218XQM8IAR6V7W/jU6a2UORs1722gEei236eYtEJrWjmebFNzOpE36c8mYwH78IlsmeEeCKf5mMFLlUIV+m6G6+saP9mceOr6y7WXbvyBzMdvVybau3rdfEppl5jxZHSdAfBA3AjnYkKFilbGfvU1ZNUnfCkrSx0aiVdXr/mRhC2AMzVz5JPstMGeUTec+ImzNs+6z2p6qX+srttaI8Lez5UXsdD+AyZWfVAfJRIRjWeYZ2Ibt9BR269rt16dZ/9QJF4PxBxSPQtraA43SD7Kown4Bhf2QxWi0o2iknYHwpK98nXtxfUm1PQK/7cWS9oLd/gIRNBfwLFsiiVksiqRPELYaWxzaf2qImwQn6XoA7aY9Yrg7wsAvc1tXXPrbdu3ceGmmjVrXXv63a3Mw5pxaEXR5veNTJTmbjYPiPwtFC2zltmylA7hq+Tmx8gzZilKBLaUd8WjU0mY31+WUDkN+L46P+Sp54JewI6i3grSA8bensSdq1qBCYr2Ua0Bv37dEuAjqhZdYrR+BGcq7fhmA8KW2ZpDMYKeGit7ANy3rpbhSCvDBLnqh1vAXIAvdcJnhG1tw+XON0mhhVBtUTbIN9gCIETKhe33VZOYjDcKoJM1KPHwKN+rUUU7N931leE5nuWD8tzBnzv8e7xskfvWXZvXZnr7bd2m+31Ghb91W/DjfvssjYJjx4wmbVPq9y6w5IvshN56/lGDr+mRxbY1Kdlqqd5d54on4Dr1t3wzrlHmv6i6RvyP6vGPJyimwSufD0vjk/fFveCY629z19v1yvg+e2ZSwRvwizqzsA9VFhGV69Zeu8+u/4WgHbLftiofAvajYg8h/qiJWQD/H7NKRlbJtbn03X1qGNrjUtOChMtznZ8kpqWlE4ndOed+zyreCGkeAWJayzqelxrozQKOomIqIDn3rWfhEYdPcXn836akKwRF4wTnx9WlPXoek9PgR0y2JlnsjvouK/ZX6w21cjtOZrIWqF2nzvvhAW6FZD3LOisHfXtlcLJOZjFi3ox10AA8I3SnLnp07ys89mfRYbuugLl0kFq9evag5cAyoVHYYuz9P46EV13/eM2oamn6eYzzWsSB+97XkBO72+XlQMBPZMDPFO47048PAFXX3jTp54145p7x3yhMTf6k6V3bwJq3dQn3W+ZGYIAVafXxpsNnabizla/mBePS3TrPTazlQabIombDlr2hyXnQa5/QmkS+eWnNRLWwbMbeuV6dvvuXXr7qTfNjKzXPbhfbmNN30VHRDL8Ron5doo7pzgAqHzG9+7ApVZ9RSs+zrjN0FWPn09RUf9MO25ytBKyVjtyB616IXu7zHnzUnN0+0UZxdHQisefn/Fk5pSoaWOYyIYNJhb+k/T2ml2fazfeW/axm47MgzB9XqejnV3kdI2ti7wzmNDC9y8gMltSY616dtmLUbTq91OwtmINZ+45uWslwtKcA6ueezYOvPCZ9pbUeY1WWz+nX1SBO0ZzzGCxU+u/wTVYR6B75vy2W2/dlWdl4d022Zex7L7DxdWL0crumFEmcDrlXaeDcc0nJk9/V1tjK/p9FIaB8TXvWUCrDdPKG3pr/lw9ZGCrwKDdOdZPWcqN3INbTErLunbNefax+ND1visGt/1IhGbGd0Cs/XgtVWW/A3eyeOL2X3fXGsMtdYnJLw82AoI7QvAeLVpgP+3vt5w9w96rT5YS+iwFvJx3N/2znslVQoaH8UW7iYyGt3o0QzfuStH4kDKEJMteu8FM5431OYWRfGZ0y88/MdXh6ZquKMaZiQ+72UY6R0Rg7uPah8uoX1Y4zGo9KDiQ3ygqsKZREaINGVRVb6W/R3pUi0v7TKsCRr+KZPVfZy5uX8L4iajBuZyEay2DyfdNdEZVGiAxSBdrTA6Y/VzuPtmNZNrY6TqM5W/5Di7KQMbb1lnfPN37Kml2zCqg1+NDBebEXuMARUjjPL2/cZNjXs7KTdpjouifJmW2eH+TbLc4NHA7WNAbXrYsPLhm9OvYBfCr7fv+vA1BsMC3j2troGtDp63z+OZwrBUDMxvrLud+KbB0Nx3d9sOOHA7IAN3uifcvxC3kU4jES+Bh35hI3jJbWgaWIIs3hBuGr2eZhWYT07Nj5e+zvcq9IWojVcS9uRc4WadQllItjh4iP1z1fHgLbQqn+wy+m7yiz0E/FK0GvlhtA2rSx24dLm2J4ROrbjwByS+WPYLcKJ8N+uivuI5OjfOglUAZt2Ky+GXuCGX1H0ILXPK5hhLZB+d9IJ60wdR2k2nVQRstv8ndoni+CipdXU9dc+/fEyv0l9hdolw7bK8BvBVAWRQPU9Wlwct0HNqSR8vNpKy21CYKQGpTIJfz+ih4aeU5vuKtl2EiioYS0S/4yWZW/22aOZ6ZSCbiwsMZhAhGp9ZCdgNJA/CwPj//k56dg9ncP4iA12UWA3QF8Cs8nKhqZr1Ncu9KiQBXllRXWA+RVsApgZfSlJN4RjzUlDYh1kooueVCEpiTV629jgFqC/5htQ8Bs+JTHnvWP6DSlwMd7EQ/Xwe9XvG9jl1JbKD9l/4+e4Q94LgjkUjb8Z7ORZlmDuvNntRxznoKHWbOB/Ci3j9BStkIs2MTCgA8xPBcYZzhY5y6VyeU0qZgogWYqDS3HmkMWFJH6uTcDEibD0Eq0CDao5gyp7yIDm6jaFgpEaXZVSR5gFRbdv2+BnkIrH4Pq67KmPFQaR7sRNV9JwV2A/TDKohsjBX9IrAP6z0GwIHee+Rd6DUh930AI8Wuv6YUwecd9MBKjz/0NXB480JpAJxFA7I0Aum4ZNWfGnjqsAPxDNhmfrYGubfqnn0Lui4fnfGm8FlXA9zxAPRCpYj7jJZLY2R8r4cLX4H+8zjquQK7Xq8fijcNdDlnFv4x2F/H0QF/8DHqZ/ZTktIvteyahmZSA6vkt6hzDxDSx83ia2h0MBsrHgF/zk89X2SXLODJuidTd/0Njtq4mXM6X92u+66NN7l5MZPuK1PegIWjVSxeT5R2wIHJVtrw7bwBoEQrCNXLVV9jW7hYehusQ5Zdffs1O1Uvo1t29Wp2aUf2rXS/f0G/EOza8bCTVMxBPI53hmxi9wJmbrmvd5tAnd/rDCxoYfXNsASUbVBirWdGfFqXbrsypu/Jj6xeiyz4aN9RwhZVgDRWlXA777fWDqafzbK/DrdFvGFw9uDXqH+45KTALhtw6ppdniRVgTqySJrRb2PZKym/puhj9T0xqdwi9XN39036rYAt9K6Fd2P9Fu2hXmO3rvVVSeOBT1yFkxoGgSIqg7xO1h8eAbpXC579VGB/vdRLWhrID9WQaVeB3G6usWD/6Sz7+JXkhVJr9BuA3alNohzoXQlEieyur+Tp2+6QK3CNxLWW2oo++eV0EvDtMrfA1Jw2QeXX0WbiThICeffJdZVgbb6g6DVQ93jw+sIuLbtlV+Cu6+lq5QX4+n77AHDkQXbEccvQvQcikk1nIxI/3uUYIviLfv8GYG/UZRMBPQruWGsrMLt1e75AP0/xUc3fxZ13/dwCfEzPVYNWbUCctrE8y1gWl+MaG1aZ6BdULXKnzbEHvra4JIAfL1fVIP/ZvofVVS+eQFZYBdkE+F1RCNhbXOB4yQNlajv6oq9CvwnYLYsjHsVKjjMgo7pKOHzHR0XPZP96i74P5GUNp4fmpKVfZnLOQL+UufA2I7+96cYSLiL70z3QxW2vbvbPVwP761CAVYB3lr0qALau/EjqZSXibzfWsMq33ljzm4BdKNG3SCqRRXdZhq+qyjP1vFi+ryuF76Ed/pC1P9ev3dx1lgaqpgLnEa1uua11QgX0wHV2yw+49csYQCH7pI7kcf1q/Irb/GJqLnwF4l8K6H8psEt5ia6b/iqQEw3L3hVEuy5xAH2vffwK02+5g86zlLHoNr7IgLf7osSl3UrjBLhe2FuOPn/ssPDrH8x4jxA0V3DdhLPoxzBXHmzO2rpvg6cO+lAM0Miw3kCj6raNxWyyAahnRYpB+qk7U2/r1gdVxlbW7r43oFewcwdsLQneO+dAXo+dteYaCPzZfjtxvCNieAE7aP9GsHsAenHIgR/r0BaeOoDhvWkPcPu8LODt70DIWs/6cMa6I6WxJUvk73yn1bc5gLfYYJFaHwNfn1Uuy2kC3lmD9haBRWNvr/HCekMN92j5Xx7srEFuFUcwfRDw9WNiAy4ar134Wfd+2d74netM3JbnbDdGtJ1QaKNJtPA+VUyVL7MLnF9FGU8zvs9a/LN9xu77ELywCIepU0HtmV0fU00hypxDsuQfXnpRRkCXV3WDpYZY637rDQH+5ysE2ah7ELHv1K+r8VSANxt4WAPeKoYZ/SZrdraHyhIjuA6rzQa0efXOqktDEPSYu7ugf59KwaXd3sG3aI+/HdfagWrmALi0uTHWCF7XtazDp034FAB2i9si8H+BNbs8tCPA98TgoIO310Ed6OHJN6Ko3AB9DOyx6eK+bSe5DO1UXKni8oXVuCrE+rx9j8vc1v05z/uA37eaTqcs29q5bjOL8iM7YLCCs1Z9BzHJunijJBEwsG2tPFxqXZG3vONaGpTX6btMOdLeh7jwrK2t7F1vYP/5akE0Gu9qyLb0+hPj6XSwq7X6YR+L3bnHTvSNlr0yU3qnzeBRm98eOGNQ0tWnjLp+mUME8tAC5mGXBZpmUNbK44xtvhXgocR9PkOkiwg5U7V7xVi9htfNtZiAvrRlfJSZtC3Trvuele9X25q9PX1W74EroP+snxeLbAogh9TkdbtjHm12a37Y226pAnH0EbB7scOZSsyMKjjTGLrsA3dEztXNK9gD5wazG1b9OjyN35K48FNTn+RHri1q+3xN8UKx6aFq664Pw17Tz6oin3cFbZSvg+8QkL/aPfb6+atbdjFohQb099q3YCd1n7+CXu+240k9Qt+4ZpcfcLRufGdymHcyGc6CXn3rBz6YysS9X1d7lUzwH1SkDc2l9piG9KNXJ6eVrdz5e933rLZCxexs7rn7oLGdW1eh3EIbz9IbJzh9Ac3GEhdy3GWWmZgP48a/1H32nz/9ppoI9BULnkfuaayOU+cn0O1gj1bd/kprTZfo5BCsMRjy7PZmAzvrbxGaDRhdA/d+qbsd7E62s5Pr08L7RS6S0cfoOXb94v4UlGuLvmXtE620viXYbnc1wPd3LLofM305i7tjfSUfTGN7ndXFnXo/HKBrE1fGuflVsyJ5vCv6PnUnoahzlGeLNH/YQqO879FwyoOHorOV5HhK64wfUUhElEXRzrjhszJXogvDOyAMHI+q9uH+zcqlVltYVV0e6FdAD8uf6OzH3fjBiw7KFfexOe8iu2iw6eeJTeEBaeRm3Ad406hoMFGSBVyGFn7Gj+2FP76D3OqK4pvp5wSF3pu3t8XHqYl+qtKM2zycc/1O954HAP0s2LO8CVtL+pY1u7bmfd3eJdOLFlhgLbvjpD5sh63fl550XaAgD4pdB3yEKaqrpS3X5u+TXZa9X1d44GWDOlgm5bxSOcVXobEdW7WDgabWzGLVWdLVXnXnxvv6zvI4s/Q7dO+PRDgmtCvPRYBtgR9vR9zmxMOzT2CCwRE+v6EVA26XBtud8eDHKY7ObWPnNi91SVCVXh2td/gyMc1lqEN8dxqWnavCD5Fx6/Eb0KPjnQ+B8mfoI2DPaNxt80E7ZOFnU/gN5uwUcWCFiSwgYamb+S/rEbl/sbRHM74+pSK1GcmWdDk5LtB9fGW+V14HqvVKP98Zm4+DvWqhMdQI5Eur/qskdJeKZhEx6xeWaM1azGG4vlAcZwm1f+cwf1YNz8Y4Xkeg3/NY3gsIzID93UAn+uYddOwssgX59a74kt/rUZa/AAAANUlEQVRq750b6l3T3QrYnOH6XSvJeZ7b5ozKN60lZW5Ofq3/3ixndDekZvWfubaX+zvt2P8FPAaI2/0ruFwAAAAASUVORK5CYII=;imageBorder=default;" vertex="1" parent="1">
          <mxGeometry x="374.59" y="199.5" width="54.17" height="50.5" as="geometry" />
        </mxCell>
        <mxCell id="aVhDxT10VZlNodA0CYwv-13" value="" style="shape=image;verticalLabelPosition=bottom;labelBackgroundColor=default;verticalAlign=top;aspect=fixed;imageAspect=0;image=data:image/png,iVBORw0KGgoAAAANSUhEUgAAAOoAAADsCAYAAAB6zTpTAAAgAElEQVR4nO2964LjOm8tCLpq78wkJyfv/6rZbWF+iJcFYIGkZLu6v0zQ7bLEK0hiAeBFchERlf+l/3FU6qddP0qR//sf/yb/+e//Jv/5H+fn//7H/yP/9X/+Xf7rP/9d/uv//If813/+u/y/f3/JQ5/ypU95yC956FOKHFL0ENFDiqiIHl1otF6E+/6tZ6Sq6KE9TPXMpDWhShEp9RtbUVoLBmmJIlvKSIOxOv2ufIjSPHlh2vm2Da5tldFO8y2QfzDeLvq1Sqn9UHp/PEKL/5f+R1ERC9qKGimqXbi6SKhK0ZZWe/5t8vhR9zFc5fzGG00S1KCyz2Vx3yt+3knFXHlValN5jr4/yNe/PP3M8N2n666QOvGo+lo9oixIL/dDylgxkca6+UoY+E5me1KVayClHJVhFH+MikhRETXeAm9HERWVIt9/ujD+L+V0deyGgTqdq+p7VsAGp3NZlvbvUr/fI/Glu4AYiHfV6lzoAFQRVl1I9bBLd1FD/CeouHqmbdH/tai79CcptB0hKuRzhjdADpcX51bNBd4XVQvvksLVQpu3JTqk1NpmYRcpcPuj5nW4uAqjY7+1X/8vUBP6k4DpyfO2Ei0OVmtJ27Upza0UFdmxNTWNuvtdCi7wRpp/OdprAKq278e/fKM/S39q90RH0BKzqI/6GdcOsMoBbOowq6BZ7wxb5WGqkGZoAF5OWvzbyC1Ze4WSLgW/o95Ci8yqXM9R/1RJfZF+rFmvDnDC6M4csq3gFhF5FJWH1E+9LgJh7b6BFbYZirGQtXS2wovfdFZI3F8EKVy+G6Rxy8VvyWiS+DM8DDW2R9+7E3KzQPX/A3qpqStzd5dIWZlMFT0xgBa0FAwDgOoArbeoS7Xf75mLy91ej+WQwrXzrd2pbM/UWtYY9l7BV/ijDYAL3C6BGqL/B4D1o024piivU5nemnBjVQu6vtq/KUBhu8aUn4IWF0E0WTayoa30DpvM/SX3t7uXLhQxTcHC3kje495o1ffWJLWYrw9SVsP7e63A33Udq5andu1Nri8rZM5Tn2NWoH7JuSDx/Ti/vx4iX6XIo4hxhcc8VYz7u2CwX6mD58uLSZT24BrdXeehZ2wx4Lb6Npuy2qpaxToVKd9/fa8PJ5V3+L2T7BE0jN4LVl4n2yzYaXfC27smWuHI3LrcvpKrw4L+/ddD/vp+yF9fRb6/HhWwRR6lVGDiqi9d9nF3hcTzkMhgkXMP93o3qYoUsq9qucYMLiZbPILSqMOuwxsgFdjrS+JqO8CUVr2AKVCL/XOJzmxX8q1gsa3+pqWIRMUzH+Y5X0quztt3+x/NRbTcFBtrwpuFfDSgfj/k7++HfANYh1Ud6ceKr3VqsfTo2npag/UEKeuniYfSUjBzuUNbXoLjHi52su8f/JjIiHPTv//+a2VRi/17Wf7KOssWoL2mip0RdQovF9sSU3jbsNtgr7E/BFSpZRe4JuS3XB6i8vdfpVrUxwnSalG/im+lwmeHxsmkzPquJhZ7NV33LEzutoCzyYMPCyAlE+hgvNMDFPuuu6rI919mgyZmHkN4FaQ4+HleY6+mZmvRQ6TWTJiLT2miNU83oT78PftngVoI8zaFSpGjb7c8RKtFPcH6DWB9lLrI1A/qSx+ybBbfhLhIocC0lLmMLsXlLrMuOIuxAcQtdeLC8/lr3pJ9u75oaF/L0j4c339/fy0L5NZ0Z56EAJxYt4V1sB2MYpF0DZTHICoy3N98diAGDHPONBml8qapNRQCHeZd+AjUhxQ9+jbM3399yV/fX/LXV7Wqj4d8PR7nHLUDExeSJJHe2djP7aOJgSN7r3UTLPasuGA6vs8fJlx4kAbgz2euNhAqNayPeXBx7Hz/PV1McjYlndsleTNBnwA31o6Udcx5zawM8uLUTg3LBWtbiTBF/VbLmgBVJEwbBr7a/LSARf2Sv79PsH5/fclXs6htQan4Uk5hMV4P44cCmSF92GG0sBk8roF3Bda4Hs0AQSt3e68MmNtKofOGK7uVd2L1G88ToFqXeMhHHLY0n7FaE/eWADc+G2yBye0IKRofzJUh3LZ1CV95cKCzj6MrFvInbtc2FS+MvF/H/PQhbb769/d3t6jfj2pRy6Ov+nb+XFkoP63/GoBzcc0V4AqA960r7/8495y44WA5qaF0gXwOGpUTN9YA0OKs7KhARChQOZKGYWFuIMlTgv2yiJgIqYnyxoRPGoS7wc2StjodQIsd0BlfU9d3Z8FgNUHbjQoLb05xNuWo5xwVDzL8/Ve1qF9fdX46XN++RQO8qildzXXObQZWnm9idF6gC65wz0JUzhKkPm5ViSW0p5n73NJ9/zWZo6IYM0skNYzlCnY3nOksXEA1BkeAemDmvVMcWCM4C2dlx9r5gfNZdbeghAJfvg/HRbSz1poWUfm36vY217ev/MIcdZQ1sxQFJD9f6fX5NFxbeg9II1l14R4WYEpWya0H8vJxuFHrPGn0Alow8r2Yo3rHFYXaW8Zs4aZYoQo+J8trmY0gxbDxnVn6Bs7zu117FpjA75COv25Apm5vS7FRYT73tmF28WsAVFTlUeS0qF+nRf2rWtTH43HOUaWkIxjr23dx8YM4Z1heWr1L5KF5hpkrCkhfDDGryzQ7QF4TmoDvv74sUD0Io1WF6x7ltmLwmoK0YBW+cjsfcpwXvHHfVIwrOHGFNF63+hLrmhJYhhdMBLDDYiBNxplTMrUN7aRREamLSecc9fv7YSzqozyGMktrsHYpA+tl8Sz+Nl3Lr3S1Bh0IVB/mSpuCawOgSf5SygZw8ymCarI9YxU47qQygLE9PUwUwREkk0iHdR99stbLOUiNdentsP4dLsQUkzZly3FgR9uI7gq4W9qgOCuZp2POyniW9Oyfvurr56iP0p+sYexZdeFdNSZgxDZuGeKoPJHUmGUWn3UwutpsYceGWeVLBpe6y+hZxXgE69xzcAqhXocjhMyCFnc/vggIewLvksVwKl3tiwE0mK/acLWJTZEBpIWwYNvhBcUOubvyipZ08oxyazpSNGs6x7YV8jEa4zjgeSqpzVHxwMP5yUtlITddu1RKEyWOKYqmYI0WK/q1fkNo7g0lyJ1Y1QyknW686qXx3IFawl/ss+LCstXTMtJalA9GTQ0SJCsMkfowdXNXsK5eSDsjxYHQWdKCSskqpM6mBNGg4xY8cppIxFeSgrD3dcnTJWUV/BSR769xfPD768sdeHBjvKTWI9GSUkOZ9UEwgrPaC4D1KnkvbASzcbXZrlnVKW2C1c+hjes7s5xW+CG8YO4iMXOiKXFO5K0v8Zq8+utA7R0J4b3KAhYTQGrYLNAmiKvMRLEBDUq0Kzf6ydwl1U6Qori0RIMUlkeHNRWpQH08usv7/fWQr6/HOOwgbQQVi5aJCbxM/QUtRaQorr9+msZgmCtihK13xNcg8t643lcLP6CyoXGO6uehmSUdAgAhYMFA2vNrkWDh+hcD68k1hAXzRQ14X1DCNhDQWqAyheVcXxw89Re+DUQrQ1+UEDZuUJlRB5gsBHmrKiLy9SinFf0qdX56bs08HufTM7Fmf/ciYLscD2vcLeTSmvpC9kERUyVeDqbGJGGcmTX1/K35SVOVyKLZRzUCK26wmYUtYlPC9ofNEAHqTUEJ97FlxQm7B2ow2tgecCEbm0YpOQvPAG/IDJ4HYRSEbNXPdsuoyM/7C0njlQmEQNCYoz46MGFu6l1fte3tbwpJ5oa7hDmLSDvS2uvYe6uwr3vFT/BhRQRd50SpJq5vHMJEgbWnC0Iz7BQhxHaARmai61v/eJDivYgTbGNNBU2Z/WZpXXliU7qW+OEcne/TRneWf3fg9jxs5bcMth0/4wvmrGQe5DU1s6BoOW2dg8EiMWM4xFHnQV70z0WjM/0J0hJOJVnXdwjijXUQR1UKe0HNES4YK6SX87KWYY5gl0DwisxDveGctz2pe+LZB5c3S1cTfn99Wa3NgNiA2uMdmGsGMSCkwIWwxEoEwJEmjq0P+zJpn7gJbengc9/9IERsM1NYKbUfPYqTHOJCeaRK7IcCNRfXX2kYs6aj4lJT9ydlSqkvPIOtmbSRBKVbc7bGo3ZrYUXaC/gKpFxb5OdoxzXnMZm+uOx7CqqE8rIqN4KCTf1uv7Bl/BBQfm0VtF87y4IWBwLs9UB/SGSsQWZVjXprYBtauT8aBFJr9AVUbb67PoH0xeaHO8LXOBbXF0YKDlbry2p5S/3D9FZP7gHq6vcgJUqzOPOHxyeLCDzWVuwYtwxdkYy+NYLjPX1iUdizKq/TzR/NMFZSJShQSNOTkGtecCHuqk3SrWWtM9p1U5Q37iIq8n0cR0/btewIESlaB7K5TT3GEgFowGUwl2jB+D6htzbF9VyP0olFRGtT4LvgfU0PYHVV1/ot//0n9cClQ3D2ws30RC0QTcMLKBjf2S00Ir34vHSBaSjaBlq/NoCk8LddBpdtA7TvpzblSEwgzWJbEx2f0JBkB8Z3VnQtQjYSPnMCGFg7UMcP81RL1Qa0Xo+5jS3by1j8LvG7RXdAWxA1Dm1VCmma+hk/TzQsrQNsrQhlvS+clOECl8YPWlcoxWEFBv5UZmGxpYNTR74O1qhQOm/2wlWagdTnD6mNwmpA9X1kyCgWGwTNdzz6wJ8ALaMG5HE9wt1ikpua4HUotZeXaDaxQ86ShfIL7yEP1m/8sdVHKaKPQoUFwdocG0uQvow8hmFqOca3WelsxbnOMa/VKsVYWL8Y5Leaep2oOwqGjfmbaUf/CyNZgaj99/N0uLYGnNiJMhSQNXUOgAgx12f9y81IST67KGbVTldUpBZDBqRWsJt7G63U5wF669C7R0kGzInnMBJHxUYtaZHQP8YLmeBeIe33r2e1qCKijyKqD9GHiDwOkeMh5XHGNoNRnDAGS+OpcMHslwhq1A1GoIlyAMPVGmssobMucWVUwM1FkEbj0vNqke77gr7oBaraa99udWUj4JwSi9P12IGRT5IDlACB6mWirqOpkcXsAndura5g384zF4/VOeAEFzX1U4tN58ua8JXhXk39wzP4/ufXswefm+AqD32I6nktRaQcKueh4mjVB4NWCguEKwunrRAZizFWwgvWRpbZQ6tbWYZTUnsPPi+GQwuDQI4n8oIm5AZoVHluURhWpVrpoJkWbYG4Ym5Z+gUoIuuDcQSBC/isHd2rAXkKoJuVaryFmCHNr3kahW72IE2NtFbAVn5U1AL1+FI59CFfUEIpD3mW+v4dLVV+hobiMjDAaXVOseJRTibGjtp4xYd3pHjLoPWpIM99Cy0DlI2H7tIKiDwaUuovZWHEmiAOO1hFCoBTa6KSgtWGFRLWaj+9k6ZIdwEfW9N7OjRp+nKTi3S3nGA6JiVBAxo4EaQ1QHvaNWtTheAVQFIUArl/al4AarWYX1JXts6kpdTN7sfIaJvrVAYCFAELlkuDYDUGG2iJ+HgrSlra8jWVoCDozuDzmtsAlWHhxnBZLR2BwZgq8G0FqE1twZifXBhLatvAWmnDsFbSizUoA7Uns8BJmmbnbbvu7Q+QQw2zjn7biYK0/yEu7l7VNG4K1vA5G/D9z6+xPTNMbZusnUB9PFSOtqlfBusDexEF3eLW+GBhnaIaIodnVRJABNcXvlWAFybUvjyL5A5yEWPR4q+BrMinLr3Te823wcootrG1xohZn2d7FPLx6/e1Gxk2bdrfDVgGwGHx1QCUu+3ews6Umcmb2BAG3lkaY0qbRf3valGHDRXpO6flPLD9pSrHyNcp0cOC4FCXtsc6bHNRKa4UZCCzbtIVg69ncHaCoeGhpYm23oZwG6b1v+cRlcBcdPdgs1A0IrFTX6EbxWRzsNwtvgbondRB4HfyOD0/y5oW6cY4s5Y+LgAWcIYf6/rWz7ls/5BSVL4eKschY3Krp45W+goDywGeIDotiLda1mp6ILQ4625HXWTStjI6WAFsCOBedl0okwE8t5QkmdTSQfU3OhaorlAAb+271K0dCUdc4WnPoibtegnrKLFMwb5O3hry/meW3Yy8KceAx1tGr3hNZevX7GXxWD4qNW8QRUW+//vX2J45/xYp5SGlHFKOh3wdKs9qUQ89f/pAhHhPWQMaYN18FR8wsEUhhDW05ixzdDHW6UHYOVGxi0ZVUO1xCRlxUBaw1evvazJ9gEe3RqGZCCsawzB3JKIxsZi2zbAwV0g50roQy6up3mSQW/F7+GSp1oyEY4rUoltwDjd4AJTxyocOTYKPWXtPDKQ2DMyptMuTX7Pq2zYRy+OQUh7yeBzyPB5yHHLOUWXW8R5uI8w3r9+rOPezQMoBzGzIvEtVvMU0Fhy5aRZe+iq2EMH231m9rVHGtq/ULC233k+mBMaVz3AbNNWsVqA3gHRpPaY5fPgOQ3aiPFMMI86uF2Bc34LMANfHOZiJlF9fzgykDWPaL8747//+p85RSzmtaDlOoD4O+Toe8jzGQtKZuUjY9J8wFwCLgibVjRYiVwDSnm/Wey0vcW9FxoKMnbOOVWYhLvCeoLC3OkDeHZMyAWYM2+j0xsO75qsXyYJg9pb4dUmxrdFVZaXxFWlrgf1vo88US2xDXF7cbRH7ZqI9sFrk+x84mVTKY4D0ofLrS+Ub3N4OcIasaqKK8+EaGD0DbIMmA2lqHDrBAJDVZz+zQ4XRLGszgqOu6BYzMu6XkYM9oO+qA5MHMeisgvdpNkq7wUFC2P5+XRX7hsW7Szlo9wAYwOItLbG8qM6v8IZhWLax6GhZa6DZnimPQx7PQx4Pla+vQ74OlaNaVLbqa1mOjFGAFRvmcB7GubvFNdTqMTdHCXbHdiaTIz9fzsi229drw+OBAE5MQQzeef350Ya0lsU9FnbDCnfPExrcniqiwIXqkutXKCvH16UuEsPMGWaiYLKNuiugjWW7QyOAVBXcninlBOnzkEcF6feh8lSRp55rUV77cKuaWCj3BEutFLLnLnCsrkjsLmKh0bjDtJHPPxHUJaYJveyk0DxB0xKRoYMsYzVa6GJSJFBEU0yxCOKmsWR1CrAiYxWy88/4TfJm9+8kqgxq47Wq/XYKTGS46VoFxuRftCNQ4WmoJRUR0caTtaj1rG97zE3k8fiSx5fK1/P8/Dq0zlGFW9Q24y1nJX6/Ml63h6xinG+Id4FZ+mE1NeYFJYA0kZ8eb133mQs8StnR5Mbo1IDslFbCmeUD8RG0oL92bEwN6x5YDRPC+sBaiVRoX6CZVQ5lowxT0FlLakGUlJnV1QILSUNB2iIHD1qvVGTMUUXktKTPQ/55HvJ1HPI8jro1E11fAxgd8z2B6yCCGO6ighJWZJsBd+Zf5kJmQMqsUiGAgLysdPN4W3cF55SV/xJoU3DFcVjVfA2srVwlA1n5cubok1bUl58pCHXjhM8Ur0DK+Sf9uMMblD8Wbc9P4/Hxz1Pkn6fIr6fIr6fKr+dpRdvnONqBB7t6h6aZNqhViIy1e+gh1Le7g6fub9Sk2UqjIyKH6vlu7cbO87xA4/3gz+prLYjlsb6401O7NJ9z5bWpjQ8X41slJNrVSq8TGBn1PKoEuWaIXIPUxna5RBCKpHIZZRi7U+X716/zupQGVpHnE0HqLCrrZ+/yesWCpqjGqbh5n4iY1STPuGZFWmHxh/8NnxPy1rKvhZTmwNmyGqCwACe2nKgjQGwpHBDBdHefI50zlNN1AW0d0ZQlgHY173gTUZ6JkUkztaBFWIi27s1I04RdfWJbQjR+Y13ou26jSiki30+plhTAqnYfFUXKiBcCEOLMIYLx5xTs4p6WUVKuaUiFC/SWAWxxhyvwwENW6ISwf0tRExY54/kpkYUjdDWH0kmYvtSO4r5z8spqlW4bax8E5ay+BpIBgBaBKjV6Bcy62QumlIsR3CARtA+sm23KV+BdRR6/nsOS/jrat3V/9TiLO2SANdW00FBVHm5HOmqVGVmtg7oHB8LzOHEW/cqcjk4yNUDFeXu1d+yubJouIvM4z7k/UZPTNa2UjuckLMa2UfFQhm/UyD9AbKxQ7GZy7AsKo9OMl1brJxEbAmG01eoWPZv8yehNEZHH8xAZH+vutnnpIWqF1wuyaYSLEAHAwtxRIY7OyXxTp5ejkb47L8rERIckAjwBzqTuNAtheD5j3a7yGk3OFG/RGOhJnjdxS4rR8JfEM0QFExDTRZmHmIXMpC3uSsTVX4Ebfm6ca5j400E9AZQIY2Os21A9LSki3nHkVm5wzmO58trb1b0rAzdNCSorw8cN2dsZzJ+zQZIb45mR9sPjw7vSvtoSXmDm0HOriO6lG/BZZ3uD1MNSzWDyTZVpNYQ8oZq6RVS+OZ9F5qMyfOuweKQi9sSDink6WkXayRXzomj/cOoFapDF16ZoP86I9QOLPd2Yc/qHuFf8GIXwIpJ8lbM0obvLXv4Z2YXBSUm4tyWjD1ChFjVJBqNBee+uK60VLweijbS6NTrothxnBLb1MJ9z5vyaCoFJy22wqHaQEkua1u4bNlb+rFDr+MKwZK9tOudpX6Rjt7YxMguwzDrao8bNIydL1lzcIhV57xZHIQqa6Wyc1+80zntODhr4Y8v4gSSuvI16puxcQBCI5ZZIJHqC5u0yqrRDMY8BKj/DOJEEBIjasFFTl+aaDsF1JrbeiIp3f8/kiVZ1mpqdlwzZMqW7IRDaeSRxXjvOi9qWv5CG7se+SGxOWpJrRkSH+q3/KMTUltkq1d37b7IDoOZuwe8syrO30Lzq05IiRjxJ1FejLUZUvEVVegk34Fr2sixI/RK4ue6g9kxGVaSEATsAq95iccou5/lCOs9npm7fAp+ULiy/rcO39PPN9hjAjjL8T5PQOthtykZMbEVoWw3uKewJYE0+z1Zc3LAJ+7YKSLvqZDHJgFF6w/OTFQSYBsTK70M++DQrDEwYsJKRiy+4Jm3bMXcsfldWP4tR3mWhYtDOVUGq7++s0NBvmeR6pTyXcAbYYH5gUdFMIsDT6ptxbqqVl8/5ySi+7gf5JEBT3z4syxbhvQwuy7E/H6TqsDBGr30YorkV4sM8c2agUw0QGqEhjDN3+xQPkdmiY+7U+8x7CpyNeQV3yYPTd/OsSiPwLlGxAun3pnv/+zLTyvZ4T2XA6XcMs+0ZkRGwO/29Aucirl5SsNI4df1AxqL3C11MWrA/FJtZRBlfjgEEFDPRHmxhfooCpVDVRU2JC1jTdOfX6t1tyyX6VQXvAuusG0xfxUWuEVdpOffNK8tV4i5oMUBj22pUmBLVAHNsAOQqNToJE2H51OdnnUj6gqy/Cfb64FFNsG37wI1bTMrbkbtYrTNIiyhIrZjYCmywLdFrIPvX0+xl25bvCWXxF3VEnvg1sOJ6ACspHIVPrNbOgYo+6aBjPYi7n2zfE3+mBPgyQloVjF9gbHuQKBJCAGs5T1vGyQGWIzSCCmhDBF2gxrJWFtV3QF6DgubJtIMDqyRh2KVeMYRAJnSvCT4tQ+0NB7duVL0rELO0lqggbGWFRIWE7ealfcVlhCl5P8ckp0iut4eEL609ky3gNz/JTeRvxi9iAermOxoWS48Q6fnwHdxXpbIOUAkubsvXkyj5xqctrPaMAsAA6uJToZmQ0kvSBIUqZ8Iwenq+0JAJwizPXnhOSu6UxGCI7eO0hNR7gnHpwSpR+8GpnfTD2+GJuq/tIigPO83aO0WF7YJy+0d5G1F+TPcS7IjKN6/YXQM4TVwDK5zo6QdbVIf/ya57mIo5Z4O3GW+hgyuZel252+d+Whk2lM91LD/7p2MjP8kv7qR53nPOwZaZwZTmQ6D1rwRA2XSHqoeSd5mMJFEW9qlomBSIgkHwcbGe2TG3GVOgqMy9uG6J+SNQe0F5b/nl6/hTJgCW/uLemt+DtB/zEwAzrze/x3AAqTLmNinLxraeLhecVXCGFXffaLX8fw+8u/2zaiwo9X7r5Mhs0WmUW1KPjU8OZSSsxSjyI5EUOLttbbfFgnWWh4G/ixI71nheLVd9Q2lV87BjXsUMjB2QMJA9SGUshqwO4DEFAulMfVjnupWUZvleAqm9j3trkV4H5IyuNMaPBxMvGCcD2BE/9B0b54y1JN1Gh0R5jTy31pz/VYY8bvCVdiHhueHIlKO2K9CL1S2gcl5Ot9sOTLYUTh/YxetegdcjvnVX6A6SSIcjW3QB7FV+SEuzBbYeclPzxKXXETAV9lFfSctoyThvvOu44lreoiuNOlpc33kQ0DqRKW9kfH2tMtZGZ5AoyDNAM4Vt79ZANQpBw1/Pt+2nhDFF7eU0C06+1S+tW3p1AYWHJsrCj2W/WViESb2zeHM0scuHrqu6QmaB4b3UtjS812VRxXJ6S5Ok6IZiBaBQMgS4x98miqYXgFgIC0WjjFnTOoKwvvoV9eB5RRaT5nROLwd8tA7GWC/Seu0cOm2vGlEx80jTAiIxqiFqLVe6lSrLogoChtNmpzFFxe3Xhp8tusdAC9HJy0pvNNFQqbNhsjM/t3qwzCAokprkmVigHl8rDnF7DYzFZwai4cpZlmBRSTnUGMFqjV938eXQkH1J2XJ9wymg1jajhchyttq8XmGFA+10qV5smku0a/HyavgUCtoN4TOvcI+yAYVqb7ndQKV9MZCeMzn6IE0Im4HPVFWj/Fj7LOvybBRaM5A/zfa6Sf4Zf1ndcUBImTO5q4jQSV8R2p+jWvbgr+2YwSoJFDthPy/ds6o1bOkhTTi7TYxln6D3PVqEF+vNmGghTSmuk24RfV9v+rNwiwod3md7w03JhKOnV0mdHd/Xw5Y7trdJ+aoVoNZGhUDnxbN683uaQTOgNuXiCuwGlPCExnV8aw1XYGiE2TLiBnqwUMyy3aZ9YbGcei7bxfr5lKzwVfprFtrxx/DNA2Uu8bmF2VsZJR7H1eHLDg7sZaa8ZGR4TfUV9NfGtp03SIgX3/vqhmL6zqTAU2TPVuDA2ibLTXsNsDvN2vN58CYNRq3Rr4l2meU31zr4jKmhQcsAFUQAACAASURBVKuCIf3GZzzdn/b6JZAyBZ8xTVtrmpkoJFvTnJENmp1tGeM8rNeyaayrXyI1f9sCFu2PYNnGRyFZv1TXk7W9ATc6W0zKgKljKUilXsOZhvP3Sc/A8T5fPV8mXSfc5+KTmlWJYgpJueocKVw3wt9GnRfUOXdp2L1Ah/KjgI2Drn2zcxsQWERMVX3h6NKiGZar4L5O2o78tcHE2lCi/FpfvTGCtORrFIXp8f4878IcaMxBpDypi4arWfq5jt9Emar/da9T4Ke85ZbVu/TD76Sub9BaTJthFAhyU4J9QJuWBtdguMmZShyXcQ0D1L6/ThsxIzWaLRSh5m5SuI5/CtbSqNWoZkOpDiN3aXvRybQPVfIs8WUx75StSfH2VpXru3IXpL45JA2rd74oqLbL+iBC30y6EZNa/AxhsE8GnX+ni0lZfRhuMAOCh1p3uC0wP+3tsfPYFBw6E74YvhIldqgAGHfBK028KTghmqm+iwW9gy5UEbtE/TDFMl9pFit7pywXtqP4VmnMIpiXnw0ePEh9Vo8VkYGr+WNuDvle53aAQtEIWIXGDSYaSNXUYbiUYXXts4gZZMgeI2nP7s7PyRfwvUhPaaaqZ2lqBW8/3PAR0niXKcBFKXTWlwxYl5s7/XNrMF8nBlLTU0QhYdilNzx4iznWb9TGtQ/ED7OOIG3gVpMHAR2UlVdmnSZzMnrLX4WKfM1oGj9TzcvNVlRFbEh/kCZA8JzRN/xP2MYhprFuYTG6v04286rSyLceyMrET0dbkRXWfmMEnZGki0nBjRXeKe7HzCGivoTZvBlapa06lVqJZk/SSF+FEpECP7sJQtyyuerxfdva6z4j/QM9rRUtnq4LgAsSFoB8x01GvqQ3jLCH3yxQU6KrR2lQSkbRbai8/vsrSWuJtXmJSCG4tPhyHX5dbgHSsLxCFFHcnploUGP14FrwXuxikWVmCL2OQN6KXmm2JM54nYt0KGVhLRg76Sgu0LQ7+GZw29bEZt7XiB9bCETNWOsgsII2iBY0ZIm3cWZ1jYW9Qz/TqaG6AFIfHoRc5nPUlrn3hUE5Ag4WjLwLC9e9PFUS78IUwhovoBAMjxnYdGb68nHyHegTctnYPJO6lWov42wf9LPM7BarNHy9GB3BbmLIAOyuPWT0CY8lYiZR9DrCvQ7E9Z9LT89ggRZUDpRwLyGdnQ+acsTOdXM164I2GmsUhto02LZAxT0mD27NHYWOa2Oo9Eya1aJTxn/CTf6ScKhg0pDdnZ6QL7nx62RKPlTI+3XiHkPf/i6a8u/DINK0T0dcK2/7rK/pVAAXMhE63IO6peuMOdDCjQc6bWDG40zofH2ukyiVcoLHHw4wZbVfUJmQ10AT/HSwzg5PiGyjKAONn3Qr+cS0yxUxWjfjoQtwQCoR8ozvP4SS4Y0g9VqqXRpsyDBcuv30DCnIIb4DF7SaB2nQpA7wZx6/92obIz4v6whSX7C6BCRDeZwfW22xbU37iv3kUczgB5WWtSuLmeIyrgNxljVRlG+goFxdPdm40vxO1gZFhfm7KCwI4bfGNmfhWF5b11G5YlEB6VgBgjMoRtQOHthaaFqbZ3BPvTcllyq+zTwdzbO70WnbsqZxqLE/beS2Hy6TtiEc3zuZRpeuTDXJnabdtKxEmKncQLwRZlYmm4swGfhBYvyHeCeIPS1gSWTcz4EK4Gk3mYVUH9+BpSGPYV5FvLXCeDNIbMQyEFKpGmi3p6Ncg+F+Z8AXbDm65rJdFriNDCgoOFavki2m0PB9lSL7gMuUMwiOKkawyq4Tq9ODNMar6XtsqFfdCNi9X3MTovWaK6UDFB5oQzsMEGPZzPUN2wSMpwwVbsCsMnEd5DOjYmnps7YLoQD6hYD6RSpKn5uHZVsiefp31i3S20b2whlI2Ric6RacofzQwXt9+2uInwYh6WAk7WnADV6F+me83Xt9lXyHVdka0c8w+MzkcIOqiHltZ01bLA579pbcv4XRbMeb+ipP/akQPAzReqxAGTrua9lYv3dLex4o01cvmK8Uy6sn8pA29M4PkhuT+VmDm7Q6QkAsr5tPm/EmlOnt81pNAQ0ItZqPUD+4kRgZjaEjzuVpt5dWfdv+prRrEFjUcBgXV3zVpUeeC5+LYoaJ2cIOwAExxZjyxyyPfJnSMmEZLOFTFURL5z+GQ/gXubqyukVOE2vWKMrPFYq8c4U1vpMhBcuTf3JS1+b3I9Mbt37jZUAtOy3eG0JIarKmD46b/VEPfAO+sYTcAdLToXvsOreHFbqvhqNHB5H2uUZeA/8AZ6hQPe/92uo/roWJjmRgZeRc4N72jxFrJ1Fot8peL76tyvcWxQj3FYIJHpeZ10CbiUGQtRAmSZsgbQM63OcW1ewbeqCNHkCBDotGId9oDAp0aACC3g8cI6fWmPKkQhIWPn0PchH2Gi9jx1y70ZorHE9/3p6hSA4kFfkjWH4Niiu63kBcwDzvG1aY8ixwX8YcdabVjVB1MIwc5nC+8rlnD4in3iFOpdS5o5ln6kgqImNOWQNZl/X0kPG8jHtv6JUqMOWqoXWI6QdXbm2Ed8FjOgzcPHP7ZjL9myXI4i6F3k+3V9ZdE7xDeHTfh4sEzDhQco0WgywWT/n5jvixptRm8k+3R77b4hE+GNO/fV5st8ZuUBmgtHhWg67WCf5NJBnACNs2TDXkZ3rG93QHPQh1YfNkVndt/4rvT9JKvtE7aErKOTNRFidrSa/g6eXXpt6mnb12q4qj58ERarCm4yPiXF91wk9duABdsRu0/qPwDRVjmi7YWpUBMq2xkcaSATtBaxHlGrqI7Psbnkh+Fae0WjlNGZWYntHMcv0RviOQhr8ToJF+mJe7KM/n+W0g9bTv/QQ5gk5EHBjMwGfxFsISws6CcP5oNUav3wm6B7IY0OKjcbY1Fsz2sbndRZAYVsxKIxOWwEtCDIhZ2KyMPM0fBljCbA/6g1i9BeUp/zuW1IZruKi3oe+KD+jXeyeTDBTsrHSEApi3VSLYxWmeVec4czh5tM1aSXQBfr92HjMcNuFmymimjq6oCHHSZPyckeTFPkInIfMiKNcs/G3jBZO90OcrS3lFI7HJUjSAIvZ03qEqh57fz8M/5uY2+mMFEswzoyEyd1TsKs/O/iJJ0/lVIwXnpXbr/bNUpree5gCd59zKE4KNj3ShPkJhOjDK636Tar/7LEgZY36ZMUt7B7jrPAbA1YoeqnIc54dYVOa4yTDDvjKFChI2jXk3Zcw6fgbIbGK5IhQOkumCIPheelWE8Gcm0mE3lV6xqlkYKV6lHmGz++OR4eR7UnYIY15PjYBXEIiIfgikjdrv7WyMAcl7Px3HjR2DQ47jmLyFsJ03VKLJqHyvGaYK24Sv/f5bBMI2HqK231fE4O3O19T1Im57YOSupfWpmZIGtbpT5KWhagD0Z1tdqk9htJCbjRNkSQGX0mcy38bBWFTdeMPD1OF5UT5yOXt1XrCXPoDWX8ccb6wdE67M0WqSgeXN7HziPGsG0E2XeUXEASJcVF48b/eq3KEdZ7elxK/z+h0y6pWwDM9VVfQ456fP1KJqctPHjsxb6AkjzwGtAPJheS9YrmVG44yTTFXLw7zJ60AzW2FrQC7R6wuiK0fbP+8jdWYyeD/X2nDssmdodsJeQBD2TQm9+dvp1J1+/YDwt7EQbEfNCrUZG0ivInJIW1BK56iEpsoVlowQiMxVo26bvcWZyTVqatv11iXQcq3OlcY+Asvb5HAFIBh0sKyxPxtI79TxIjl3s09x73ieP0FBI7vB3ObXq1HEiE95Tgn6qu+O6xusq9/wNFZWo5TXOL+vul/nDr06usTae34ZT/VxtpliLe81q8BIZmEVtkEgvABcTbz/ZPWtwq7SvuP5k1Qmd6uFMzYyPCT4Pv1apbm+y1XfrfLrvXVVbTpvhvJmtLKCcG3RZLg3imLTe3R7UYjRVRnwm9RfitXGHyWFKtT+LTadXVFdlLkMexW0f5Lba836OXxleOiQxGnjQByKcK92DILr29xeuo/Ka4KC4ZqZGhx7Y2U9k7N6sggeZGlzjwB5u1bBPXq7HGZKj89T5+3at6TxnRTv6T+/NfLHUeaPh0WyqBQtEfgyMddmWQdYI1CZFaTA0jHG+OCcd3+7dVUnE5vHIea+504Jlg9XTtzuGBZzVtgo7opwOgvLFqEGI1vFme+QlzlWCTnvIeOJeyA87ccU31vpQ1uCF9ruramdo8rCoppSnLnGeWq2AeZP4Fe6t4Bt3QNOMxc4URx4T4XafZxFxudy92l3vprwYBuSVL5yWRIwpu3YsZz/AqDsLm3xQbeIt1jHQt7UuuaFagWoLvdREZf2JlpUOQu0IEZgZCDY4P2tipkpDq8EVtY0KqWpwSd0znde0dauotS1nYEVwx1wu5dwfuJrxZUY8pVi+FelxURUQESne8W8T2LasfegIn3Vd7GYNIoZa0ZgWbplQm5d/jCv1aFwduQoKzrQhQ0tUBy2XXslK/EgtkQxdXPfBFr2c/RXXF+SJoopr+Ml9/0HiMEtV5bvnivrokivBuu3qhwym6MKG1I14fbFZVZa2WNQ8zFLIjWJc0HsLKp9Oiavl3YRPaUziPX5LgBvi24oKht83QDXDmBjEn6M1FuGa+p0lL3O+/soV1Esqd8XjpRYV2bTjvb0zOSsb1q+t0K1k8d2huNltdhC05L3ElHjgI1Uk2bvWZiZmwbeQ6UEG+F6tkz2MlgZaMk919NXOMFzuFfBnmhJKr2biuOj5J1464JyH2OzZHM2wgmLs2ptEal99vdRDWWDrU5YIQwUP/XMDNOmRF5zT2OVRK/WW3fT1bHbMXGBSqxgMsGXHhbDX4dIStNzvPu1WrGc95HFaAOuL3ENtj9t8yXYnQSsEq4XVDK3GmtUqwqcR6EiA6y7h/Jj/2eWc5LH8ngC+ORms06IqvPcCNa2ZWLMalKUF1oG4juCV0gRG7/yViRDPeEnB6E1uraNFxw4UvboG1UXRq2tr4vzDKX6h5l+iFZrG3fUM19RNth1wAwGBo4Prg882CIICIY2ULSind0I5tTWGGu4aSkQrBCoPl1aZFYP03I2Lfc+57PXdMnl2mayK3YNhvsz5Wgl+VM2a8rPMyDQfxShlFDdRW52BipR32G8ckU3Nk/Op2eo64sargEB/WZ8Pu6ohfp3/AZD58pvV0pC1xQ13gJCOTk90vgd916RwG2w1AwO62UnY5wIT4Td9P4Mi6Eh5I5iEBHR3C8Ylpxo5Ys+745Nu0q3ZWSafubezsLRMwHIGs/wHMmGsUPhnUkeRBSgFaTnitR4A4DXswGwCdv+TMQeZNuBgfyMzD70A+JYiv5tlAtpd+BxK84OnK+XXWVvssqqUnc/bzTpzcTLSVtZRPj7nxZV5cW9RlMv7UrpO2lXXg6LbohD4Fb8VRw+urChJVYAIaxCKQCWbc14q2p4ApPux/6y00N/ZOn65L95D/MVYjv3NeCkymjXRUJFg5q0dzxZbZ1xya97WPHxmnxcqS6Iz9Dqe93ftFe8vwXGyfQFjNv4/vTS1sonctfU0gwjqX4xyTamCctpPZtVtcAFi5rVl/HNInbkkvbxtY7n1p/A1SsTd28F4hofTWBauXAYyKabdNHc6r5KqHXz0tIfj6wT0/m6hEs+uc/CpjTrvNt0lYuZCnUqsxlGUcDVef/wGXuiajE7qg+Vo75o6VBwgU39A60kyH4b4SQo36WJCzwj5DsTxditGsb+ZRtCZDfUyzwUClNbsZKwbaZmWmtWpN/0bx9s3OZAvQRWXe2kv8PlnZWxauQ4NBRiAHthjmoSVevZ3tdyHCq/jkN+PQ/59VR5Po/+5Hk74d8+OA7jWt33rXEbAA+BSHzVznSKVyaOIW8p/ZBzfhlCIJZZEOeWXSYnJwywe7zfpIV2M9Mngf5HAMODnnw1/U18hTQx0c2d0yUb+CNQieOUU2XE/pBx61S3gPQ8jvPzPOSJD0OX2s8PkQcBCCrSdj3C2h1XuGho2+/W9DJU6pzL714VKJWTj1e1U17LYwOUmB9SHoVsDKd+dkbU+keAndBGUSm5kxqohLuzxLmCdFGaJMLOrVxpM8O+8yf8ZUnSef1bNdRm8WjVo/uZExGYbx+ggi9VOixIvw55Pku1w0XKo+rBysBDiqj5aTIUECs+flyoNnWCNwOhEo2sNRdbZy2usNaHxVSkPXdRNb8kbinXxcwxpwv7qi89QG2aQ4oYIrP7ommvcmvoTM6Mx+Jdn1iH+RXAFRnNiRIGSQJzNpWydDpSeqNyi4jLvavgaHH122zPtBXHc7P16Fb1+Tzd4F/PQ34dhzyPBmKYq2oDOTfxV77DlNW7o+IFhi1ZDDODZeJ2UOiNtPzIJ6cCfy/EAVMXRBeLNUqtfSut8Fr5JvtlVO3kKWvV4QefpplVZP2LvPCocovcU53GkorDw1XXpvg5agOcSnR9n4f9bivBLa0MkCKPFKwOLCbcjbFv3GzMjM2aICvjA8OQfxpHwkzcXZXMFAlPkjTxti0whAJ6S1CHpO5V9soEgQxCejzjZvdscedc3VSnwHeexvpiD0x8WhILwLaYdIJUB0gPleMYP2aDQj0sUnT8ZiBlltgANwUFWqTzwpdlrKTm9bsqe9qRbryGJVNAodEsaKpAiOB5pVH/sjbNWFgJXAdokjDN34bgRT1RXKdyD8R9xLdztl7s4z65gpCTH0sme3j98In70UA4idTmqeeqb7Wo6tze/ilVqIrvyyVIQ2MS8KzwMANMKIcBwIHTC4Pd4wLwCm+bFyydNQYaMQ6TjYwKeaxSGgX1qw0ZLPKai9dZu5MXy5hQvi5hRmmR+koNvx+8nuyBhw48v+o7tmqGZQXLKxXgvTK6mmGYYVaIWj/XAJMf0zh0+niMiMIeecF4lh5B6svdMKyptWfts+KI7tVeXSISEdlW7DeRSpfLtitfkymfjENcEGQAnVlSvF6l+73EujG6vuJd37pw1Kxptajo+hqLKlEAqdsGFXseViAZ5czBGfjw9UBCJXlCWX1hYBwrNOkn/FIZDlor3gZFpo0DLEdNvlAfkcFMVM2riK/QsrHXaMqDF7RlKX82MHNqOyYlHsrHTWprUav7W+eoT3fgwQOCkbcEvp9nFklNIlJmck/5UPfd89rKPVBangD2Xo6adKHeFV9Jop2twVnZO31CxXYmy6gw1ASlhcTi5mDZdUhX8+I8+je6vB4DREk3nlSC6yv2wIOqPHWs8p4WdSwwHWBR6KkkAkhm1cwKXd29D1aNWN/Wsd56sIGhSgG/AWxW2fh7sRZYI69MIeHfs280tKOn0pzf89pvR2H/je9XwWvSOwWGjbUKa1IybPT+jI1zGtnVkskJXm8Z7vuchboyetgE5xW+/axb1KezqHDmtwN2pdmgsgjWvEGhs5jVLV54RbRM8rVrB7ozSCNYkntbo+XYPgkD7YeOYoJAQd+v1+I8E8BZP+/QyRvZ1IfBjWU1YO4dtciPj1zgcTC2UeP7gTjjXP2Fq5xtG4ZV3+76wtPlB6z6PnHV9wBLqih05PUjauuJfMIqcb7MN2vfuF+4bAwUBqzQJsNzcm94W/Lo55fIdLSs9nq97eCTzQTwnnCCkgkShzzlq1M/5mBqHIcdZfde0PrxmdTtlT/cRNdXmOt7Hsp/mpNJfo4aF8v7Fo23RpIJMj9NtAPy9pUNhLdcDAg2TgW+Qh5TprcwXkP2oGhJJ9lCX8Y0xXzRvAS0dwURPQ0fNqNzX7bZ1D2YvgxmxpMJI3v8i+zvpmjg8oqTp2cETidJ3575RU8maQDirMIznRfbJLmfr04aHPMu4ln9DqzDyjqATdqGN8vBJgmCQvOKol9zZbSuZhcC96zOEh8/SHOZYQP0fk6DQbiSD67oO5P6Y2uHjJXf5/n5Va/Hmx5OW9p+KyNs0xBriox4gFOQM5nRYhpjO2SOkkxBeLDiXGyAVe29QZJVQNO5FuWPW9y5pRXxc4VcYWbg8xusWfprS0B2X3olph+Gc9KJH30MkJbpjNS0i4eM9cWkIZADYPhrUk8A67O7vXDGVzUIF7Mw2QPP/jpagfPj578KjG91cnH1qT390x9MMPHtMoOOYSSrctzrCBsKDbXbKMaXOlUy7Rt57t/pzmkSnnHPyM9Jq7ZejsikPz9I/Ihm4rrcr8V8a2axkCZdTeaoA6SqMg42PNH1bccLmxUdq75mK8PJXrvoK6AGurEVKiLZGxzmwN7riHFwgVkpB1Y2Z003S0c4A6mN650RcZqAdWyE2xpsW3iPpJwFzN6dJZbQn3P6OZD6flHfwS7lmyqMwYvimZzP56iHyLPOUZvL++s5jhSOvVQ+T1VXG7WyFeFY75nGLp7oCKINaiFpH0x8zy2wylAuXvn6J/hH4xwLjLnJoHmF1+vbKcLk2XVhi/CfndgDbdq8pdv7U0Q0iE6l5hMc0GuWEpX1hZ+0wDLUXLbVYrNS2oR6yopImB+l6RwtjtJoEj4NC+P4xo0EJiMb8nHVU8jBSRKLnMAM4CzkIfbivt9IsyL3JveT8IwS34J6SS8AuRkiQTQMYciLtg2/BFSv1b1LNpixu4V5M3MAaRqfFJEkzZ1QMQ2JPMb0vqpUxaDFdSZQMXzGOKGZQc7Ft/BrClCkYrZV3oZTv27lecj1tfRWTuLRYNC8F2hMz7YTM26GVwHlYdE7xmELqNRcu0pwLYUJDwJm3XS/Z9iEqtjr8G2LmIKPdlILeIPVoOCv4SGiLZJJ+FAeW3yqnNjWDQBu+7dB7Ymi8ja0JqWka1jE4SfrVzbZ2peb8lLTXYH3wII3U2MkNZMLz5aTw3uub6g+hvV0F9w7mn9XKMpo2zzPQLBRmDcsHCnZUrPWQYhisit1m2JMu20Zy5/VCM+5MR5W4a/QUACFgbSIrCyale1JJ6e1M0sor7m7LT+MvwFvFzzmag3OkNNbQMUKFb8hfu58zAd56va+SV5OvutQ3QLptYHMXVNP83n6vNZCs1PAepeW8VBG2uLj8szXCefDE92Stz1KHDiYJO2kmAvJeRlRdcSy1GJmZmVr41Og+qbTglaeEHUv11pvOvwua1B8VXPQ8FD1BXOfhZMDDzzzlRF3Fg6AUqjp8dfsHsPeBLA/lrzEabjCLbeRJZsPZWGT9JUWvh2vhmjl7Z9dbNd7oqeTTyS/OHOVeB/zunDvlBdE4pgLIRJA2l2moAy2HXhDBpRl9A7+lXAdSrlR859Dc09ix9Vl7qVzQxUWPxVWUWbgrGRGIWFlx3/MqmsRk9+eWdBqZc6Vs5qnLYlpCNPxGsLN7+SIHYyX68cjhAjSlkCv2i+rpgZGyes0U6u6E/YB1/UDpJ7dsA54YRCdcu23dEmeANGgelxinAfsrRkaq6fS5VXfNGzpr0L3vgpaUzSCT4fRy1jYrZOk856OOTYZzv6e3/sgHdfFrHCbmJB2Vda6zj8XrIE6qy8KjgOo9qNyBIgYMKuWeWEujC3dBeUQhOz8ur3qu0/YwHcgMy/qmqZN1A+z3JVODTpB8G54LHURS0B76QTRApTT/VSRt47bq7StV9xAJvOd/BgouTZhIyJzf+fLgiw87+f3AXV7LDXepiZQ6BvpMtq3Efk8IzA04a1fB00/VMZ6J24Vz5woZ4GZpQ0/vsRXhGkt26t5+wBGLyTLz3doIt/7PkCzlAJTo3v8Z/ytylmss26z8lGLyjs+IY2fbHL+GmXWz19bZiLfSTketCp2fnyFp+lMx89dI2CHkPtZLhmF5Ukl5tvtEAFGtiQ/2HVs7j5uDrVMDFQBXnbLfWWCYPLe1BP3gfoSiDS9u+a+noTi6ZWD/SgNm01gR3nM1UE/J1rTbk87Zu+A1dfqW+utqbhzugW+ogud1TLn68L44LTHWDT/PTjwb1g6WQewLl11V314BPE1C1CIxK7zvJbmB+aoCQP4uMwKnpO+WM3K5oVk4FMpl86LzqyNW5GeEiZa+SNNmIt04S4OuO6gwtYyVPqLdZ6/62Te7EGLIu0rNmYLokY5OCuuF8q5THv9g494esr4eg2o3hBlG8gsXyjHghbpVqdqepOHbU0cJj4Vs6Yu+vojVbNFo7xn7JzzM2LZyHb1TvvWaehPUF5qRqYc7yibTI43ysrm5NtG+Yx80aImgomAU5tqRtGJu8WOhL2yDQDmNjHmt09V6KhHZDJ4fmQ+/RTkZ8FpyT61suXEg6U0ju5H2H5DTzNj5Chff2kyQtK58qxoDWR9YNWXmstxTdr5KTfEvGSle9ruIfXFGPau8h3aelQx1bj1j0j1FK1esfGvUZx5f5y6frIu5eUWVXf9U0bf+h53Tohlpk9N+axOWwp2kO+sprjVXY/o1w7lixc4FFwr3M3I7tqRl8dt2+2ZoDVY0tGRHXSte9GqTts48q7T7tBPWk5PVkHttyRuKAm5v0vrxZ5r3J45FK5i3uV6+YqlhK12+waLmjuN/T6Ze36CwpRgCggNf6+Ur6T34+NMaUkvdslPbCzsklNgF6jIx6fQlfLx3y4hrMFECqsHzqHs6Sawse7v+XULqKFfg8pY0QsSeifrtnW9W/6rSmjkX61W/077eZdSL+rTjSnMPc0QMRHjC8O79qmIWUhu8PnaLaD+buFIf+Ji25H+1yDciP8YQNlZh3eV3alNB37H6NzV5MPz6yMQ+C9hdBq4cQsOPapgOH3YJrsGqJf2qm6kvULTWd6Y8K4T/4sQe0FNNh7vOiXDzwu/TqfwOsvxI2NUK5ltQbsmD1D6UHVXJJMvowfsTWtisjzT0qKykz4s3IddIWzoqn3/s2woc83OcGtdJUn3Co1DEe8kdB931k/eXPMLqeeKBScnZnRaW6HNzS5PpqESV3jn/KdA9atyu8vQbye76USu/rWJzZ92TlW9ZlX9McJPOL/x6mcJV24W6cxqvVqXNVk/Ys4cehIxdtxvvBgi0I8cIczIWuJkDzDpqPUA0wAAGoBJREFUKLxfzgM+LSz8jORGSCyIvT1zfqxvzcosLzsAdFY5DiAUk5gVGgso7io+677TorzHzHngRVG7oz9Nx7yELc+BLB6t6iaJfxyovE8tVBv1qb3aiT26HDatDbBLAz9EQc9MVIZDZfGIIG5pnFfOhPk1iieGxv5nPaZwPnQDdfFTR/WeKZwCLUi8p5y5lc93j/xUjMmVSatzmXQH9dJKwwEcuP7xx9z8dSCNn9krVMZ7jYe/331+XND4DR5Yr5cdE3PEFnas8C+31Kd0S4wL4mHx9EoZj9mNBwRaMeSBgBoQQaoipY44gDhXuPOJgvG6yvhOsqbkQTt7j3U7/eZRnlrNDdn8fU/P9LhC0vAcpqNcjAej14Qfx+mkkXHusi5oPPftnci8ltlC3+w6YcFco7HvFrUMEBaIkx5PRvWOwqEPJifvAr5Du3mdvYjA4/zrPHqLftT1vd6v/NfWRuz42648Hn50Kw8aRXlL8zEXmCiw9qvdxZa9YOUFajwMdNK35buBte6ubQmd2qJ1DYy7dhqXlyn5NOclYoZAIdLLZbC0dG5KOPXWxDqDnS6919cv0oSOqAFlKpXIsGec36cug4wOM2FJ3XcHbjdf/P3U+POII0UiXsUOsRVeN+xkKtuB0UCFwCm5UMPbSOcJJ5Qq4g3FMi1sQb6PdwvAn9K0QBt9336p0NZlQcgPdsx/uoV7hrGM1o799/oygCyqOBPuTgj2Jw6eJ2ptlVyrwBz2Pi3r89/FCn6q7HyaCwJuFmrA8s16lU43LgOU8EeKGteZe+jDq7an/nyH0DVOFb+JxTPypMmgshPe8RqYdUwk8rtoytZ7fYPZX1pMT7AqsJxJsXQl9EjgkfBDNeEE3DPaTu8TFhYc3cZwTLL4PBscdA+1WlIEDM4fS8jWr4hnmRCXElQWyyLSkr27GxeoLpUXlLbGxSAHQGaYUDXYRUwvnvk5s7smYm+OCsKdVdTH1gHKdK0mny2KDfWaaPrmR/MO3r0a913ekdq8bkSsi3uGDQk291CCd3VzwCr7aVMLSiH3wgHU5savzW/He6miLr4jplcRP0s4XN327UetDaUxTPbCzEODEVvysutZ2rC3LSaFIaA+QcJ4AO/GqCSWkb3gjopHFr6ucjsd81BmYbSORMDZvBQ/Petiuukt4Iso5WVT4r1p7NpEzjPvL+OA2f9+ZWTJxEysZhSglXyou4jjnvfYHlCvTuwnHO9N989OCC52AuDlItcyIqcsCwMj31uLwx8GHGni3mmoNac7uvwSbf/G6g7N2rM3aDPl2AJ4Sc5NTdL1cnUx9j4cPr5erl45XbeopMzIeJzmz8SPxeWdxXw9l4d29rozwiCT5F0R6bieWkcysFF3c7r/dMso+Z3g7E5xgRNKeL1d2x1fhov7qnibq1gZCu7EyNXeAZX9qJg5PgjXYaw76zesBNAloBpR94skTIWxYHmH8GQI2nAp0Spf6TtoPFUIHpD1T3OdVhp/yQppsg3y4NQ07av9T/O3Pd7Lpb0mwLMSPYh6vB/HPqEeT8aw/MHBq3+CCsn0ypbbx2kfqIsR8ALZQyFg6urO3LrMQuqkAwNzLu+CTBYi5Vmd6UHtAFZvXz2LGY8RgJkDNd/Ju0AZygGcuHh0XxG8xu/MZY3xOwLtLtvYsjgZcUMm1cjnRb/A0AuLScnvjFJQeaLnW3pm37lBW+El3nOMpzy8i8JpKBLewDltG5DFwwavkyRvnZuystGakpnJJ+sXmQB0IojGBSZxK1AxY/neU3CWt32gOhOPL1mY2EJxe/17LlhrNSkctZVJ74vY6rSbDiGdJtv5Dy74M2vLrSgJCpuehV9/HA6R0hoTcPo57qtkPJMlKMc19YRMeNoA+03Kt2XNfcgrdN2iKgNB5mAMX2jLKlDLRBwJgkJmxWZlWx53xMYDZpINAenkaD5A7cBBtVDhCRQbP9h62ee8Qbwyv4ZhHlJ/A3/mLO1dE1bNbVyRF1jCWPepkni05MEyv6BXLwPVaqDFPMsTa/um4x46QAcPmZtjx5HN4nZpX9JYU+IhiKu1Y8cVs9r6I74lZ6p+o1JxH6dofNb7dB2gp8yMERhXdREJeO2l4wHo4mr1C1Irrko8932Fts76Jl5ovdYNxVbC31DQigmWZWNuyKu50lHUzw3kXR2jfzT23Uw30RoKmdkjFn4HWD05RVxY3Bve0bTxet08r/CxOL8TUCIl7Af3Wq/zNqM3PuZ2ja35cNkunIFzT6W9JhyzlildQZnlX/cTTWHcBpuCAeLzlNgHNs9+uYacuFLL3NaF0iVurHf4VjzNxPMVes/JpDcKx6xD0pnp3Od4gZssLzdjt/XEIr67zu9U0T9CM4ZnqzVrN5JlpVPANJCAWZk+jO6ZP9BDzAlGjGLQyl4cy3snk25k2fLQ+i83iaR+rUj92Yilf7uqbUJxLuu1azxsP2HDszPpjMx7iKvIvxO1O3Xv8hc7YaWkxxTq/PSzUXRFvCK4byGV3OBCXaO3vSs70KcudVqYjPHLWzinewceLsyLtqHCJpa5D2i1E4l+DaSuqISyeGV9tUWtbSAmBKwt5c9Ddc/PuctZ2p+JBaTTXfdcrknfze7OoLBFSv8GXvu4nJD0/WvXd07omkXdAesdfLhXr+WryTtW9C4Td/OVOSu+6FkV1HtyP/n4gz+49R66PdOsuRdajy1gBb+3uDdYiFnRpbUHttWAjT20/slR+aF3Jnmzn5nDk0zHuUdS2GNsNN9N+kRn2/Z8oIIXiM21Yhdnblu99sYuAMKHg2ULOHQBywWhTVp7p5LK5cbiQJ4iMzrX6MNA1UknNMDO2B+uYDZ3Y7SaCjKxexU/RrwmFdz2iieO4VvIet20bPUaxzcGgGgsmEcwGxjjsi6s3QueT/92fu18GnWNPuHz/IBFhR/6bW7tCps4e1cXnpTxxoXnlyibCVAZvzyaxDMJ4dep53YTLj8f61eoiTz2OsbKuEfLaBL6uGKMrSXWs8momyek8Jqlbd9K+uEiNbFU1n+v0c+4vuFV4Zn7y2akbY4GAG1lEDn9nYBNp+sTq2rit2kmcffIPOlhhkbDXxGZWNMRVgKKe4QrB8PKQLs57eQrZYxco4X43S4VRfxd9HmgTn1WdR/f7UovF4GknHnOl/rzgkf6HiWy4PZWY/aBb0Jdgzq+WDzbE2ErQCSZ8Vav9GJn9oo0jKDh9WSW298qvX4HvQ5U3xlTV2PRYV2TI0ATsCpeMAXwRpoWl89z/GqtmRYtWRwJqAVuTokpl3gq1I2bqal5+ssnAC9lGGnfPceb0k5lkzSqiwSmDLI0t5H1PlDvmPZZevUX6sKs5aUFzH7yji5gTLld6uHo2kbe2MuZr7z7aE5Yzuiv8RqRhK9t30x5vwHxvcxXvAfuU70HuGVy5y3owoqabz4NS8mJthtFWsQHXd9iP/7FZBNXdiwW8VYXY1JqThTSnvXF4YXsReOHekzJQoRaJl3Wmf88i4thcc/V1T2lmob+1sugvQfZr0N1COw87+ugjdqHNzl5bhbesN8G8w5PV9as3gPUUOHFQfI+YbjXSalMDyXXn1xpMvjwFkxZskSX5KOXtt+/zpL+TMC87KlCoCuxs85sK76vdHhBCfgM9YIjnzSEKuakyFWVVWZ323gNqMse25t0Ty2K2nDfsMSQLBhk4Zkvt52yF03fTZSA86ozV6ZpoY6dX8dKvYzdMOCL76HEdCLmTYUxdpV7gxY7MBey78df77KeQEUuPwZ3z6KaGpLu35WTXRVkwNhAa18fpRjFiqKW3/xwYHSKFh36kpHWTKdeGMLmrc6yxRckuw8pcJv8hNQuCFlRgd7tq7slRNsdG3d2l13f4PoKbTslspjS79ixZHp86Z1JvFTPwUR01RWxpeGJZXLRmkZiNQBmT6vFDybPwldj82UI1iZ1d7aSC+tePU26vdXvs40DbOQNsJrvnTT4Ozf+R5B9Nleu2a6J9E7QrsuatPk1z9/QGxeT5upCjblbubD+HvIldViRJ/XbPwlFC2uK2dGmt6SEPIWxly3no8c7BQVhIyAzGReY2XpzfjOZ5OernVUOsGYvcnOA/aRVnXuR5BfVPdEl5o2wSpd+JGqfvKDjXGqEmRXaWR0G1whaB/4F031AIQrf9bM1h1ISoxfmMZGb5JtTIZ+98dlxcy8O9ET46CxDxILUWFPi8k6EOS0/q/8dNB0ijrKVUe1FLRK+YFHXLm5yayPUB9SrbDFmpvA3fKE/8i0JlKcRuL/YsdO4TYfxrttGwVuS6JUdqpClk9STdl6F8y5Sac6gmnccqGo/eDLSCIRpfDE3eIE9D6ZxL2z/fp19puLAUhY5e5NtVJWRxJC2uJPzUlpYMVWFfDfGS1XubPn9BsKeor12s6x2T6gUo9mKlPNAPiZvYyM2rIhXipiQZZqFkxJKEVVd5HiNtNaq/Z8DnQ6QtRy4n6810qbF/AO4R63vIKAX0XcA9WxMb1naa3ZegcFNswT3swO9ptPTxywVtEbcLslt1wStMFPdhPvfTDsA5ZY4zAl3gdLAOkNER2Vc9ClarZ6S8llYzslW3NupyrS6z4FWEY5x4vutmqEZ4NZRVg3rAG3fqnIoWukz3ZuAShonkpi8uaApCAVaUrR8p0jg3/tsnnO8uVndWQd4DznN5Fr3er1EGULpfW/UzQ/WoNDI3ASErb4qxdNKfG9gYLOqn6Gzkm7ZhIAULCqCUkKYdD6N6ywAUh3fqlot67C4LwKVDzl2HcVACOBwGwPUDpUNwL4OU1+X7i4n/SjFNl5vs03N89tFVeLypoBTd908p1LHzgM/8ZVb2Ax3zUJnkW+zswW+B1/d/W2ARbACKLu7i/laMR2wai2pnOUdDaQC+d5iUZXftgahAKAFU3iiX12CAvd9euvnsy1ObHhqzK+0h/H8AlF3/hWm7hd0j0BeI2jt3HMKlxBpCu5eVPeibdQAvuDctEgpar3zIlJ0zKe3IQyC2BRMs26HqhyHGtf0AMvXcg0nAV1jB1ZqUVUOKfI8Dnketa5W312LOsCy5yI1hkplaGjbs4zSF4lOq9YGyr4FvpjyOjDBwtpUM9DObcy4Vxq/pAmu7kMr4+I3ALbArWYWN/KF4GoIGmUA8GppRaTPb7066CAsIqo1TxWEwc0A8TDHa9h297ReH4fKs34GWC1Q0eVtrR8LST4egVrkkPN3WQ9V+fXUCtbDlL8EanEfMw7mZtg0FfN8y9lxTTvCb3CYLquA9daxu7yQvvV3TGdZY+XwFo6CsXxexjVoNG/gXQ569CGucvQiNWuF5q5dOAuIQlLqOgMmOrE2ANRBBS4uWkm0uE3Vc0uLPjJB+oTAqFYrNwDZrR1Y1+dhzwMolBPmpT3NsLwNpO3T6jCK4XjXqq9K96WjXsXOPIlbU8zhX3Q1Gm/cIIVoteV7eVZlG+jcsjawkiSXKMsalN5tuqs+rpOxmmDqzHhsgeEEUQc7YkpcazooydjLmaC0Fdfg7paueHuBCxpAgk9zfytgnscxLKye181q+rLMXqhbGR6W1gL11/OwCqF+LgM1igLqkMJDwAL2Aanz1NqKcUSsZmLg9rVmFrYWubBkc6FmtuuSJSWF+bz3YPWD1hPJgfD0MkuUUAJWXJtqK/lq0lprigawKYA+xs3b6Wka8Fu16O5ep2ZAGtCa9Wzu6PNZLR5YWHVbUx6c0bqeqRhQzzpUDgDrm7dnqktbfUacO6pJNRwWBMC4Kt2mBpAgIPu1tcCtE1rIsLounXO1M8BT2kkHzNN0N1FPs2RKgCR+ZWXbgEwciGT0I3Vd3bUljfEIYtGQj5Ub5WnVIJK4dZzWKZyO1dhfx/kZ7ukA6mhBBGq89mnAoh4qv8iC0luAqpPr2BfV7VkIX2aNw/xU5dSgNQThHaxis+JdiZy83DJQno+kHbxR16lnm/1kQ4kZbFBs6z47zSRGV3UKVrR+3irbkkd5rmzvZiNLbOGJtU3JlaHWX2CZm0lpc9FmUX8BUH91i4olFwtMEZtGhwFr6zmnhS1VEQyFcNv1RZoBFLXHOWigdYrETu9NJCANYI3bO6VNZgQXq6oVNaDSnqbdj2s+tKzNpfZ25+MKCG8DdqAvZEdgMktKDnQwFqxNGNfqEm2B1cU3wPaSM8yQgwwYNsqPBYQRHPrFgBXlbCgDcamkWtSxcPSrgnMA9pBDY30GA7Wx9h6BWvr186ljnvrKHNUTB6vtyiL5ANrc1u318jxS1G9YIPKD0tOX4fIOHmoIKIJ6C/XljpoFt+XOt6u4b1LUJmhLsJilAdaH+zovgTSr3RICs8UHsLp7EdKjmp3XPTPTAw51sL1cMavq2xCimgLphsAK1GlRxVjQBtJf9Vt1KB0DRv+teH8Knwq6vhpWfJ/HWf8LQM0tDmqTDJxWb0V4+HQnmNQNzLCYXpLsPHeAGleKfT3RMs7AGoVkhy4bUpqhmMsyS1virPQqSDMOtsB6skCsp7OYEuWkQxEiV54YpYsZVJqBLeZI39ODtH4OA8DJdwDzKZdNWlVEnodUi6pm5fcyUJs7oBCAwOyJCBiQSSoYzcK1OooFUtN8FbOTk0mwbOQZuCCRvp73UrW+tezzU8w9dWejNvEcuyqiIgxcxDOewk0ZqS9JGnGAfk3kGnlbVkuUga/bRICimNXh5fiQ81zvs1rUttDz63nIP28A6qkIGkjP1uD8tLm++o45KlpGMzEW71LGVdx+4WQLByBoWQQrKdMrBdTqs3awfP1aZUxhXNorhFgz0LEBnVlrKYErw0DCPUtjwB5BGtpVpGv8SOCyToBj7x1aWhod5SxR6gDor8MKcTTKPRD/Yh50ZduKL7q+v57n5x8AKrTOyG0DqJKGN7d3nA0usBWEq74brq+6T4ztsDShxtJ1q1RCPGZi1pKVZ8Ha0lgX74ybwXifutKR20XYjADEgVEvvfVPB2nnhF+bnzdkbSVhHqRkkxO2ul1ZI18AaxFYDCohHQ68V8xZWCCaaI7y1qVG+boso6ertVMHVuf6/hOAGl9zinunnqNxBvi8Po8RvsH1TVrlmImgHfewsOMiu/Yp1qJmA1dc+lAnidtpklEybygTGe7AHH9aVHV7i03s8ucKZ+YXMFYiSBukwsPhMj9EgKoDr4atKi69S0mtni3fjHsBZZ2CNL7Gu63utrUNY+Fbk7WCVOwTLSdIq/v7POSf45B/nir//KpALQlQ1Rs5O0ZaGWunlcxWkA6w3pujkk+LVGBsahFbx4lNPAA6FoMwHJvKTh9hHSGu3TtrPGvrvug7KvSy3zVgssTZb//GYpiVxJtJCwpJjkUUCW7v1MI13j3GpdkKZ1ldfWGcScLs+VO+WBUL3pl2R7grHMpvK71KLer5MoNmrtoBIF+mNTVN1jugVcb8FJ7WmQK1D2sqnUP7W61RGcQnHDqP8fC9zeOsqTZAo5bGWse8+NSWNV/xRYMNgcqtpYzPpFp1ge1eDbk9mHDLAltWL1GBv3fJWspT0tsUYI4L/+hZ5SYDFCkkBWyLb2VBQnaoPxY/oJRR3zKphqfvo+oA6/M55qrD9a3yWAXKb9nYRojlBICKj9W1Vedti4pA1EKsKaTD796PKu4EEYDXWRC0iid4olUeddTTRTIstHPqErtit3ZMueqBntmB2T2GvgM2c9DubMKU5DumBrTIefC91W+iHG8ta38qBrQ084h8uzLvydeLKtvGz8zmBc+gpj+Bo7A9c1jL+jxOoB4DEwLeA9aaW1U0YmOeeqiIvnLW1za3FY73BEzNNIpdoC9kUxNBipbYLh75ww6jbC/OGIN846J4TwEWPaJib3htLSJsH/NTVNrHnAJ5U8E6Rk+9u9KS+NNEMjwnfL9dxlawovBtFn/QbapmOywOGUvgafelaDqAcxz1oPwBc1WVf36BRQWw+przugqwCcqhfh/VzG4BtffJWS7UMUA6LOyAyxB2q+U6VEoCrgBMtHJwMqkiu68yFs9gvKNWqRbuFUxcPN0Eq1vVhaDPEjGqix9m2yzOLjBZj8bmOB/glmgmF/WwFVgT7kHbg3zG2cKXVyRNmmwK81ERc+DhqEcHneuLlnPrhwsh1vPa6h3AvWpRywBja8iwqDWBA1gPh1RU6ZURZlnm53IDqFw5tu6aDhUAWs9lGXlbGNd5eFmUzYnPk7N6ZxWUrVQsPmu1hgAbSnDWaSrAza0iZaQFd6XtC9NFZTmNZ0fhgXH3eYKn0Jq/Ux239SMCwZ8ClfTBxFaV0x2iIJk5Ou3Su6q83rgOjPGFfGate4W8jzWvqWn+9xhVUkpirtHB+FHLLnvGtPGHuwDDcMfcfhlodxS5mTivoz2O1PZT+9sRBAAMpTaQ2RrW5NOw/JcsanAL5DxM3HpcA0hiF1jAJ1KzsGh2uj7L4K3pqwC9Uid6Au9AR2adyyQNhv4QQpP6qSfcrKB4FzS1NRcJFyJVEFkKiGLvFOf1A2Ahg4JQI3ivck0BWwMDUJnnt/AoJVvlGgKyYX0uyRGCvl1vWizqM7+Lrrqir9YD30t3Ha3pZ0FLgUkklqlzTi5FinyeLBZ34Q37INANpN1QObBmAL2qYhhgp7894yuLlVeXN1jTAZ5IFtT4uS4/A7CjvliI6dCrVVzkJV5/sk6Jz5kGV/cEsTlE8SGczootIsOC+bSG54kjWGLoWm5yyKx9kWbpnaPbTV2yEDS53vmwsihQZ9qgubzNtWP5GogHEbctWAXW+QR0lK9Z+b+HXgHnK+7SR7XCijbqzlTY+0brAx1ghM7DiYW8ZlFZntSi8oo8ADhgZxXmFK3wncb+lJwyhfFbMJIff5Hfpqy4Np0EvrvndMta7lA0J1c5eU+eC4tJxV1GwK5AOy3zUtyg+TRzeybyMr1rurtbjorwh2RE3sTJm0izm58Zl83prLxjBJn7inGv0Obvo7q9UjOp8DOLVwDLrOmeG5vX9zmhzep8lwgysebznviWvj+PPtVb71jCyVwAP8G6xus7x2R7Mem8PxcmhoBw1ufzxx2KC07vcWBep1V7fxYwSr7+EGs67YhPqzhO+bbLDg/3eXtHq/4/rK+VwCOB944AAAAASUVORK5CYII=;imageBorder=default;" vertex="1" parent="1">
          <mxGeometry x="392" y="213" width="50.51" height="50.95" as="geometry" />
        </mxCell>
        <mxCell id="aVhDxT10VZlNodA0CYwv-14" value="" style="shape=image;verticalLabelPosition=bottom;labelBackgroundColor=default;verticalAlign=top;aspect=fixed;imageAspect=0;image=data:image/png,iVBORw0KGgoAAAANSUhEUgAAANcAAADCCAYAAADaZledAAAMdUlEQVR4nO2dS5KkNhRFBRJkZn+8Gy/G+/FmPXG4o9vVmYDAg+4h73SYiFejc4alEEjALTKuHlfDn3/8fpQTtv3srz94rj1su89j2HaUuK2U+ITjMIRty2sL2x73KWx7g37zVMO2fY377WM8zs9zC9u+rvHchwNuxOmd+8lI1zrm8w3GCddspMEc8XUZ40td5ikey7KuYdvU4n5liMe5rHHbAdMbyvn8rt0BEfklikskibb28594D3i1Ppf4HTnDzxH6eQc/fspU42M+v8c97y3u9+8z7veY5rDtyxL/NCodxjLFY/n6in/i7MFPjh/EbcMe/3SnfnON244DfhLDz6ZxiH/79T2+Zrca34fnKz7hTr/h4Gc2jWWA99ARHNM3l0gSikskCcUlkoTiEklCcYkkobhEkmh7P7ct9xpbuR3szAMs4B1Wx3dYxV/hmMsWt23QtoJtPsL81uB6lVJKrXEbnW/Z4n6txW0bjOU44v+bdzjmCp76huOEUguo3qC5k6W+QAnRUeIlgwOeQbqeDe5thG8ukSQUl0gSikskCcUlkoTiEklCcYkk0cbx3GIki7vCR4GvDarGCbDiqYq7QfX+Cz7qnKBK/Qk27zxDJTq4td9hLDPMoU5xv5Eq5uHrBJh6WYKvJEop5TbHH5/Chwv4USd9RbFSxfwcW//Rx4s/GmEpJZ4efntqVbzIO6O4RJJQXCJJKC6RJBSXSBKKSySJ9te35bThDlXOX95eYdtvjzhUhINDoCoe7P0N+r3u8Ryez9hyfrvFbWTv71BRfr/F/8dekJc3gAfce3xdGnjje4mvyydYanhRBTvY5h3s/fkWPy+9x974P8841IeyHmn5gp6lHY45BPa+by6RJBSXSBKKSyQJxSWShOISSUJxiSTRPgZbxkwV8r3BlnzAVjlsZ4IVH7uupYO1StsZkSU7wRzoi4ARbHOqGh8hDKhhzno8lgpjoa2cPkK1+Vgh+AUCcfYeX88J7tHjFo9lgWepwljgMSsr9aNQpuCYvrlEklBcIkkoLpEkFJdIEopLJAnFJZJE+3Q/r0o+oMJ7hMr3RluzQtUxWfFkm5PlDC52abCN/Ahbl95po3g6IVn/UKU+w3VZjrjfNFCiStxESwZTvYVt+wAb7+KWrrCFLGy7+9sdwnLghAecr9NXG/QeCp5r31wiSSgukSQUl0gSikskCcUlkoTiEkmifZzOvWXaFrOBJqFovHSy96lcGazVB+Sswy6caNMfcD7KNt/xfxVYzrAsUMEehmjzUsmKJ/DLhfha03aohe47eP9R8EsppXycKA8+biIrnpafGK14kXdFcYkkobhEklBcIkkoLpEkFJdIEi3KFKcq9Q654BTgAnXTZQD7uzWqgIbtSbFCH8ZyzeXFfo2WKOCoA1jxFZca0I+OjwkWfod7RNeF/ofTFwgjjIWy6QdaDwIg76dQwfxgVbzI+6K4RJJQXCJJKC6RJBSXSBKKSySJtgVbalba3pISRzCMJG7bd8hLh6rxbYv73YKK/1I4jKRB5fsGXwtQZXiFsBXa7hUzU4CrFd6Qv1OOI77WtA4xwP9wstRHWtah5wwfT9p69lpAzREsMvnmEklCcYkkobhEklBcIkkoLpEkFJdIEm1dz+3VBWzJDfzhDexoqhonG3QYY7u2d6i1h2OuVOG9x/9zXpR6A+Eu4w7LCVClfkAGO2XCHJA/DysNSAcrnraCxSUYuH+dwoBgLANU00e2eSm/WL6ghzfo5ptLJAnFJZKE4hJJQnGJJKG4RJJQXCJJtKVvpw3bFtuSGFQCNj3GhtCun2DF01H7vsbdqOIaKt87ObJQ4U2WMwbXV+gHywJYoQ8W94LhQ/FQyBovBWxzOChZ/1gWD+ej9Qv6AoEs/OiZ980lkoTiEklCcYkkobhEklBcIkkoLpEk2tfXuW1JtvL3oJK+lFJmCmIB65gqpzcYS5R1/6tjHgfY32DXcsgOhJ/E3coA1njFzP74PlQI9aEK75GWWShHHu5RFIJUSikfHnPYRkFBLwgmGi9m79MHDxSkEy17+OYSSUJxiSShuESSUFwiSSgukSQUl0gS7T6fW7Y7hLSMYH/Ttq1Udkz5Hxt4pFOLLecDAmMGqETfwY6ewI6moHyaAxXFN7K/D7oPcF3i07EVj4Ex8CXBGvd73OJ0eto6uNJ2rzRBWGbZKSiItokNuvnmEklCcYkkobhEklBcIkkoLpEkFJdIEu02BZYtlHHPDWxJOBltmUm2K1WbU+V0p7x02oYTAnEabk9KFezQr0KYTNhSygZWPG11SwxgqdcBtsGFUJgd9oJtsJRCqzoTBt5TGBDY7bjT7f+/7765RJJQXCJJKC6RJBSXSBKKSyQJxSWSRHvUc590h9LiHSxgrjqOu1E1PQWxTGA5Q9w9VpvvYLti1T/0I5t3gGMOsHzRLl5PWjIoUBk+4jWDpY2r44Rh0scJmDFPc8cmeua14kXeFcUlkoTiEklCcYkkobhEklBcIkm0Kch25y0sYetLsqMpgx2OScEhFTzZCYNKyDqGSm34d0Tzo1QY+iIA+9H8MAo/ngS10b/iSj42FKnXdnVpA54lCpqhs13LHgqbfHOJJKG4RJJQXCJJKC6RJBSXSBKKSySJtgWl6gOVsJMdTf3AO96g8n2skOu+b2FbvZgHT+XYuH0nHJO2X8UqdWoCOxq/XKC5032g6wIPBQb3QCDO5eULXCqibrS5LizdBGsNvrlEklBcIkkoLpEkFJdIEopLJAnFJZJEez7X0wa21OMm2r6TlNzB4q6VAkfI/oZMewqawTxxsr8pYx4q7WEbXCx9h3t0UE4+VMwfW7y0QeOkUB+68wOlCGGwTdy20z2Ku5XxYsZ89AmJby6RJBSXSBKKSyQJxSWShOISSUJxiSTRnsu5Fb922mIVrE6wh0ewa6nafADflRxSslZHSJqhfHbIPkELuEJ++RiEBP0cTAxY/2TFYy5/j8dZyYqHuVPOeq1UaR9TKdAItsgtAy3rxGCwTTBQ31wiSSgukSQUl0gSikskCcUlkoTiEkmiffm+nDZ0sFY38kjJxgZ7n+zhFWz6D3NsOa+dKu1hu1fod58oLCee3wLV39ME4TVUwg62+UhV/7AMscHNvcOSAd2jKASplFI+P+awjdjgfJ2WkWjJAJYF6Nk1K17knVFcIkkoLpEkFJdIEopLJAnFJZJEu9+m0wbKPUerE3M8oB9Yx2QPP24t7gdW9QCBMbQMcaNkFOAGcyC3nar3952qzWlb2vh8xxSPc6blC7LiYWmD7h9VoncK54Hz0VcGtHyBxwwO6ptLJAnFJZKE4hJJQnGJJKG4RJJQXCJJtA+RFU+W+sWtS3HLTNwq9Zo13g/ISx+gH4x0gsrpES4afUmAVjyEAZE7jFY8ftUQN05jbJvvEMBDtvncwIqncB6YQ4ex0JIPvmngokXb0vrmEklCcYkkobhEklBcIkkoLpEkFJdIEu0RBLwc4IPS9qRoxWOue0yH881QNQ7F+2jF05IB7rAK/Rrtgku59bRra4UAHpofLCcM4HHjMWkfALjxDY6JexKApU5byNI9orYC47QqXuSdUVwiSSgukSQUl0gSikskCcUlkkS7BdnnZJ8epElIP0ErnvrB+TBUBE44kK1MFj5NHUx8tOIvLgsMND8eaNyPbGy61mRkU/U+HHOgLyX4E4uwhe4tuu0XnmvfXCJJKC6RJBSXSBKKSyQJxSWShOISSaJFcerHxZAP2t6yjLQVLFRjU+U7ZbBDP8qt57Cc+LpQ8AstGQwXvyRAXxm8arLbC9wH6ncc1z4XQEsdGke6R7TWQE0Xr9kRrDX45hJJQnGJJKG4RJJQXCJJKC6RJBSXSBLt29t63gJWPNnKlOtOW7pS6A1Z8Qf0IyueAmoKLTVQTj5Y43Q+nB9ugwtzv/glQe/bpX5sxcMkcJ/fuKlByM5O94iGgssz1O/87765RJJQXCJJKC6RJBSXSBKKSyQJxSWSRHt7vU4baEvQy1uJXrTiBwhoJ/v0avgJp4ZDfjksQ1Q430gB9Ahl9sfHbDCWlZZgMNQH5kdzv+bE4/XcMeyIKt8x9SYmmLtvLpEkFJdIEopLJAnFJZKE4hJJQnGJJNH+fju34smU7BvYmRBCQ1Z1g8rwBfz9aNvZUkqB7JoykqUOITtTkK1fCoetrHDNGgbJx+crUbpQKWVqUPkOFex0zR41HucKk+/Q9ukxhW20XLKs8dw7fZ0AyywjXWq4f1Flv28ukST+A+UOQxS9OGqnAAAAAElFTkSuQmCC;imageBorder=default;" vertex="1" parent="1">
          <mxGeometry x="510" y="190" width="56.5" height="50.98" as="geometry" />
        </mxCell>
        <mxCell id="aVhDxT10VZlNodA0CYwv-15" value="" style="shape=image;verticalLabelPosition=bottom;labelBackgroundColor=default;verticalAlign=top;aspect=fixed;imageAspect=0;image=data:image/png,iVBORw0KGgoAAAANSUhEUgAAANcAAADCCAYAAADaZledAAAMdUlEQVR4nO2dS5KkNhRFBRJkZn+8Gy/G+/FmPXG4o9vVmYDAg+4h73SYiFejc4alEEjALTKuHlfDn3/8fpQTtv3srz94rj1su89j2HaUuK2U+ITjMIRty2sL2x73KWx7g37zVMO2fY377WM8zs9zC9u+rvHchwNuxOmd+8lI1zrm8w3GCddspMEc8XUZ40td5ikey7KuYdvU4n5liMe5rHHbAdMbyvn8rt0BEfklikskibb28594D3i1Ppf4HTnDzxH6eQc/fspU42M+v8c97y3u9+8z7veY5rDtyxL/NCodxjLFY/n6in/i7MFPjh/EbcMe/3SnfnON244DfhLDz6ZxiH/79T2+Zrca34fnKz7hTr/h4Gc2jWWA99ARHNM3l0gSikskCcUlkoTiEklCcYkkobhEkmh7P7ct9xpbuR3szAMs4B1Wx3dYxV/hmMsWt23QtoJtPsL81uB6lVJKrXEbnW/Z4n6txW0bjOU44v+bdzjmCp76huOEUguo3qC5k6W+QAnRUeIlgwOeQbqeDe5thG8ukSQUl0gSikskCcUlkoTiEklCcYkk0cbx3GIki7vCR4GvDarGCbDiqYq7QfX+Cz7qnKBK/Qk27zxDJTq4td9hLDPMoU5xv5Eq5uHrBJh6WYKvJEop5TbHH5/Chwv4USd9RbFSxfwcW//Rx4s/GmEpJZ4efntqVbzIO6O4RJJQXCJJKC6RJBSXSBKKSySJ9te35bThDlXOX95eYdtvjzhUhINDoCoe7P0N+r3u8Ryez9hyfrvFbWTv71BRfr/F/8dekJc3gAfce3xdGnjje4mvyydYanhRBTvY5h3s/fkWPy+9x974P8841IeyHmn5gp6lHY45BPa+by6RJBSXSBKKSyQJxSWShOISSUJxiSTRPgZbxkwV8r3BlnzAVjlsZ4IVH7uupYO1StsZkSU7wRzoi4ARbHOqGh8hDKhhzno8lgpjoa2cPkK1+Vgh+AUCcfYeX88J7tHjFo9lgWepwljgMSsr9aNQpuCYvrlEklBcIkkoLpEkFJdIEopLJAnFJZJE+3Q/r0o+oMJ7hMr3RluzQtUxWfFkm5PlDC52abCN/Ahbl95po3g6IVn/UKU+w3VZjrjfNFCiStxESwZTvYVt+wAb7+KWrrCFLGy7+9sdwnLghAecr9NXG/QeCp5r31wiSSgukSQUl0gSikskCcUlkoTiEkmifZzOvWXaFrOBJqFovHSy96lcGazVB+Sswy6caNMfcD7KNt/xfxVYzrAsUMEehmjzUsmKJ/DLhfha03aohe47eP9R8EsppXycKA8+biIrnpafGK14kXdFcYkkobhEklBcIkkoLpEkFJdIEi3KFKcq9Q654BTgAnXTZQD7uzWqgIbtSbFCH8ZyzeXFfo2WKOCoA1jxFZca0I+OjwkWfod7RNeF/ofTFwgjjIWy6QdaDwIg76dQwfxgVbzI+6K4RJJQXCJJKC6RJBSXSBKKSySJtgVbalba3pISRzCMJG7bd8hLh6rxbYv73YKK/1I4jKRB5fsGXwtQZXiFsBXa7hUzU4CrFd6Qv1OOI77WtA4xwP9wstRHWtah5wwfT9p69lpAzREsMvnmEklCcYkkobhEklBcIkkoLpEkFJdIEm1dz+3VBWzJDfzhDexoqhonG3QYY7u2d6i1h2OuVOG9x/9zXpR6A+Eu4w7LCVClfkAGO2XCHJA/DysNSAcrnraCxSUYuH+dwoBgLANU00e2eSm/WL6ghzfo5ptLJAnFJZKE4hJJQnGJJKG4RJJQXCJJtKVvpw3bFtuSGFQCNj3GhtCun2DF01H7vsbdqOIaKt87ObJQ4U2WMwbXV+gHywJYoQ8W94LhQ/FQyBovBWxzOChZ/1gWD+ej9Qv6AoEs/OiZ980lkoTiEklCcYkkobhEklBcIkkoLpEk2tfXuW1JtvL3oJK+lFJmCmIB65gqpzcYS5R1/6tjHgfY32DXcsgOhJ/E3coA1njFzP74PlQI9aEK75GWWShHHu5RFIJUSikfHnPYRkFBLwgmGi9m79MHDxSkEy17+OYSSUJxiSShuESSUFwiSSgukSQUl0gS7T6fW7Y7hLSMYH/Ttq1Udkz5Hxt4pFOLLecDAmMGqETfwY6ewI6moHyaAxXFN7K/D7oPcF3i07EVj4Ex8CXBGvd73OJ0eto6uNJ2rzRBWGbZKSiItokNuvnmEklCcYkkobhEklBcIkkoLpEkFJdIEu02BZYtlHHPDWxJOBltmUm2K1WbU+V0p7x02oYTAnEabk9KFezQr0KYTNhSygZWPG11SwxgqdcBtsGFUJgd9oJtsJRCqzoTBt5TGBDY7bjT7f+/7765RJJQXCJJKC6RJBSXSBKKSyQJxSWSRHvUc590h9LiHSxgrjqOu1E1PQWxTGA5Q9w9VpvvYLti1T/0I5t3gGMOsHzRLl5PWjIoUBk+4jWDpY2r44Rh0scJmDFPc8cmeua14kXeFcUlkoTiEklCcYkkobhEklBcIkm0Kch25y0sYetLsqMpgx2OScEhFTzZCYNKyDqGSm34d0Tzo1QY+iIA+9H8MAo/ngS10b/iSj42FKnXdnVpA54lCpqhs13LHgqbfHOJJKG4RJJQXCJJKC6RJBSXSBKKSySJtgWl6gOVsJMdTf3AO96g8n2skOu+b2FbvZgHT+XYuH0nHJO2X8UqdWoCOxq/XKC5032g6wIPBQb3QCDO5eULXCqibrS5LizdBGsNvrlEklBcIkkoLpEkFJdIEopLJAnFJZJEez7X0wa21OMm2r6TlNzB4q6VAkfI/oZMewqawTxxsr8pYx4q7WEbXCx9h3t0UE4+VMwfW7y0QeOkUB+68wOlCGGwTdy20z2Ku5XxYsZ89AmJby6RJBSXSBKKSyQJxSWShOISSUJxiSTRnsu5Fb922mIVrE6wh0ewa6nafADflRxSslZHSJqhfHbIPkELuEJ++RiEBP0cTAxY/2TFYy5/j8dZyYqHuVPOeq1UaR9TKdAItsgtAy3rxGCwTTBQ31wiSSgukSQUl0gSikskCcUlkoTiEkmiffm+nDZ0sFY38kjJxgZ7n+zhFWz6D3NsOa+dKu1hu1fod58oLCee3wLV39ME4TVUwg62+UhV/7AMscHNvcOSAd2jKASplFI+P+awjdjgfJ2WkWjJAJYF6Nk1K17knVFcIkkoLpEkFJdIEopLJAnFJZJEu9+m0wbKPUerE3M8oB9Yx2QPP24t7gdW9QCBMbQMcaNkFOAGcyC3nar3952qzWlb2vh8xxSPc6blC7LiYWmD7h9VoncK54Hz0VcGtHyBxwwO6ptLJAnFJZKE4hJJQnGJJKG4RJJQXCJJtA+RFU+W+sWtS3HLTNwq9Zo13g/ISx+gH4x0gsrpES4afUmAVjyEAZE7jFY8ftUQN05jbJvvEMBDtvncwIqncB6YQ4ex0JIPvmngokXb0vrmEklCcYkkobhEklBcIkkoLpEkFJdIEu0RBLwc4IPS9qRoxWOue0yH881QNQ7F+2jF05IB7rAK/Rrtgku59bRra4UAHpofLCcM4HHjMWkfALjxDY6JexKApU5byNI9orYC47QqXuSdUVwiSSgukSQUl0gSikskCcUlkkS7BdnnZJ8epElIP0ErnvrB+TBUBE44kK1MFj5NHUx8tOIvLgsMND8eaNyPbGy61mRkU/U+HHOgLyX4E4uwhe4tuu0XnmvfXCJJKC6RJBSXSBKKSyQJxSWShOISSaJFcerHxZAP2t6yjLQVLFRjU+U7ZbBDP8qt57Cc+LpQ8AstGQwXvyRAXxm8arLbC9wH6ncc1z4XQEsdGke6R7TWQE0Xr9kRrDX45hJJQnGJJKG4RJJQXCJJKC6RJBSXSBLt29t63gJWPNnKlOtOW7pS6A1Z8Qf0IyueAmoKLTVQTj5Y43Q+nB9ugwtzv/glQe/bpX5sxcMkcJ/fuKlByM5O94iGgssz1O/87765RJJQXCJJKC6RJBSXSBKKSyQJxSWSRHt7vU4baEvQy1uJXrTiBwhoJ/v0avgJp4ZDfjksQ1Q430gB9Ahl9sfHbDCWlZZgMNQH5kdzv+bE4/XcMeyIKt8x9SYmmLtvLpEkFJdIEopLJAnFJZKE4hJJQnGJJNH+fju34smU7BvYmRBCQ1Z1g8rwBfz9aNvZUkqB7JoykqUOITtTkK1fCoetrHDNGgbJx+crUbpQKWVqUPkOFex0zR41HucKk+/Q9ukxhW20XLKs8dw7fZ0AyywjXWq4f1Flv28ukST+A+UOQxS9OGqnAAAAAElFTkSuQmCC;imageBorder=default;" vertex="1" parent="1">
          <mxGeometry x="520" y="203.95" width="56.5" height="50.98" as="geometry" />
        </mxCell>
        <mxCell id="aVhDxT10VZlNodA0CYwv-16" value="" style="shape=image;verticalLabelPosition=bottom;labelBackgroundColor=default;verticalAlign=top;aspect=fixed;imageAspect=0;image=data:image/png,iVBORw0KGgoAAAANSUhEUgAAANcAAADCCAYAAADaZledAAAMdUlEQVR4nO2dS5KkNhRFBRJkZn+8Gy/G+/FmPXG4o9vVmYDAg+4h73SYiFejc4alEEjALTKuHlfDn3/8fpQTtv3srz94rj1su89j2HaUuK2U+ITjMIRty2sL2x73KWx7g37zVMO2fY377WM8zs9zC9u+rvHchwNuxOmd+8lI1zrm8w3GCddspMEc8XUZ40td5ikey7KuYdvU4n5liMe5rHHbAdMbyvn8rt0BEfklikskibb28594D3i1Ppf4HTnDzxH6eQc/fspU42M+v8c97y3u9+8z7veY5rDtyxL/NCodxjLFY/n6in/i7MFPjh/EbcMe/3SnfnON244DfhLDz6ZxiH/79T2+Zrca34fnKz7hTr/h4Gc2jWWA99ARHNM3l0gSikskCcUlkoTiEklCcYkkobhEkmh7P7ct9xpbuR3szAMs4B1Wx3dYxV/hmMsWt23QtoJtPsL81uB6lVJKrXEbnW/Z4n6txW0bjOU44v+bdzjmCp76huOEUguo3qC5k6W+QAnRUeIlgwOeQbqeDe5thG8ukSQUl0gSikskCcUlkoTiEklCcYkk0cbx3GIki7vCR4GvDarGCbDiqYq7QfX+Cz7qnKBK/Qk27zxDJTq4td9hLDPMoU5xv5Eq5uHrBJh6WYKvJEop5TbHH5/Chwv4USd9RbFSxfwcW//Rx4s/GmEpJZ4efntqVbzIO6O4RJJQXCJJKC6RJBSXSBKKSySJ9te35bThDlXOX95eYdtvjzhUhINDoCoe7P0N+r3u8Ryez9hyfrvFbWTv71BRfr/F/8dekJc3gAfce3xdGnjje4mvyydYanhRBTvY5h3s/fkWPy+9x974P8841IeyHmn5gp6lHY45BPa+by6RJBSXSBKKSyQJxSWShOISSUJxiSTRPgZbxkwV8r3BlnzAVjlsZ4IVH7uupYO1StsZkSU7wRzoi4ARbHOqGh8hDKhhzno8lgpjoa2cPkK1+Vgh+AUCcfYeX88J7tHjFo9lgWepwljgMSsr9aNQpuCYvrlEklBcIkkoLpEkFJdIEopLJAnFJZJE+3Q/r0o+oMJ7hMr3RluzQtUxWfFkm5PlDC52abCN/Ahbl95po3g6IVn/UKU+w3VZjrjfNFCiStxESwZTvYVt+wAb7+KWrrCFLGy7+9sdwnLghAecr9NXG/QeCp5r31wiSSgukSQUl0gSikskCcUlkoTiEkmifZzOvWXaFrOBJqFovHSy96lcGazVB+Sswy6caNMfcD7KNt/xfxVYzrAsUMEehmjzUsmKJ/DLhfha03aohe47eP9R8EsppXycKA8+biIrnpafGK14kXdFcYkkobhEklBcIkkoLpEkFJdIEi3KFKcq9Q654BTgAnXTZQD7uzWqgIbtSbFCH8ZyzeXFfo2WKOCoA1jxFZca0I+OjwkWfod7RNeF/ofTFwgjjIWy6QdaDwIg76dQwfxgVbzI+6K4RJJQXCJJKC6RJBSXSBKKSySJtgVbalba3pISRzCMJG7bd8hLh6rxbYv73YKK/1I4jKRB5fsGXwtQZXiFsBXa7hUzU4CrFd6Qv1OOI77WtA4xwP9wstRHWtah5wwfT9p69lpAzREsMvnmEklCcYkkobhEklBcIkkoLpEkFJdIEm1dz+3VBWzJDfzhDexoqhonG3QYY7u2d6i1h2OuVOG9x/9zXpR6A+Eu4w7LCVClfkAGO2XCHJA/DysNSAcrnraCxSUYuH+dwoBgLANU00e2eSm/WL6ghzfo5ptLJAnFJZKE4hJJQnGJJKG4RJJQXCJJtKVvpw3bFtuSGFQCNj3GhtCun2DF01H7vsbdqOIaKt87ObJQ4U2WMwbXV+gHywJYoQ8W94LhQ/FQyBovBWxzOChZ/1gWD+ej9Qv6AoEs/OiZ980lkoTiEklCcYkkobhEklBcIkkoLpEk2tfXuW1JtvL3oJK+lFJmCmIB65gqpzcYS5R1/6tjHgfY32DXcsgOhJ/E3coA1njFzP74PlQI9aEK75GWWShHHu5RFIJUSikfHnPYRkFBLwgmGi9m79MHDxSkEy17+OYSSUJxiSShuESSUFwiSSgukSQUl0gS7T6fW7Y7hLSMYH/Ttq1Udkz5Hxt4pFOLLecDAmMGqETfwY6ewI6moHyaAxXFN7K/D7oPcF3i07EVj4Ex8CXBGvd73OJ0eto6uNJ2rzRBWGbZKSiItokNuvnmEklCcYkkobhEklBcIkkoLpEkFJdIEu02BZYtlHHPDWxJOBltmUm2K1WbU+V0p7x02oYTAnEabk9KFezQr0KYTNhSygZWPG11SwxgqdcBtsGFUJgd9oJtsJRCqzoTBt5TGBDY7bjT7f+/7765RJJQXCJJKC6RJBSXSBKKSyQJxSWSRHvUc590h9LiHSxgrjqOu1E1PQWxTGA5Q9w9VpvvYLti1T/0I5t3gGMOsHzRLl5PWjIoUBk+4jWDpY2r44Rh0scJmDFPc8cmeua14kXeFcUlkoTiEklCcYkkobhEklBcIkm0Kch25y0sYetLsqMpgx2OScEhFTzZCYNKyDqGSm34d0Tzo1QY+iIA+9H8MAo/ngS10b/iSj42FKnXdnVpA54lCpqhs13LHgqbfHOJJKG4RJJQXCJJKC6RJBSXSBKKSySJtgWl6gOVsJMdTf3AO96g8n2skOu+b2FbvZgHT+XYuH0nHJO2X8UqdWoCOxq/XKC5032g6wIPBQb3QCDO5eULXCqibrS5LizdBGsNvrlEklBcIkkoLpEkFJdIEopLJAnFJZJEez7X0wa21OMm2r6TlNzB4q6VAkfI/oZMewqawTxxsr8pYx4q7WEbXCx9h3t0UE4+VMwfW7y0QeOkUB+68wOlCGGwTdy20z2Ku5XxYsZ89AmJby6RJBSXSBKKSyQJxSWShOISSUJxiSTRnsu5Fb922mIVrE6wh0ewa6nafADflRxSslZHSJqhfHbIPkELuEJ++RiEBP0cTAxY/2TFYy5/j8dZyYqHuVPOeq1UaR9TKdAItsgtAy3rxGCwTTBQ31wiSSgukSQUl0gSikskCcUlkoTiEkmiffm+nDZ0sFY38kjJxgZ7n+zhFWz6D3NsOa+dKu1hu1fod58oLCee3wLV39ME4TVUwg62+UhV/7AMscHNvcOSAd2jKASplFI+P+awjdjgfJ2WkWjJAJYF6Nk1K17knVFcIkkoLpEkFJdIEopLJAnFJZJEu9+m0wbKPUerE3M8oB9Yx2QPP24t7gdW9QCBMbQMcaNkFOAGcyC3nar3952qzWlb2vh8xxSPc6blC7LiYWmD7h9VoncK54Hz0VcGtHyBxwwO6ptLJAnFJZKE4hJJQnGJJKG4RJJQXCJJtA+RFU+W+sWtS3HLTNwq9Zo13g/ISx+gH4x0gsrpES4afUmAVjyEAZE7jFY8ftUQN05jbJvvEMBDtvncwIqncB6YQ4ex0JIPvmngokXb0vrmEklCcYkkobhEklBcIkkoLpEkFJdIEu0RBLwc4IPS9qRoxWOue0yH881QNQ7F+2jF05IB7rAK/Rrtgku59bRra4UAHpofLCcM4HHjMWkfALjxDY6JexKApU5byNI9orYC47QqXuSdUVwiSSgukSQUl0gSikskCcUlkkS7BdnnZJ8epElIP0ErnvrB+TBUBE44kK1MFj5NHUx8tOIvLgsMND8eaNyPbGy61mRkU/U+HHOgLyX4E4uwhe4tuu0XnmvfXCJJKC6RJBSXSBKKSyQJxSWShOISSaJFcerHxZAP2t6yjLQVLFRjU+U7ZbBDP8qt57Cc+LpQ8AstGQwXvyRAXxm8arLbC9wH6ncc1z4XQEsdGke6R7TWQE0Xr9kRrDX45hJJQnGJJKG4RJJQXCJJKC6RJBSXSBLt29t63gJWPNnKlOtOW7pS6A1Z8Qf0IyueAmoKLTVQTj5Y43Q+nB9ugwtzv/glQe/bpX5sxcMkcJ/fuKlByM5O94iGgssz1O/87765RJJQXCJJKC6RJBSXSBKKSyQJxSWSRHt7vU4baEvQy1uJXrTiBwhoJ/v0avgJp4ZDfjksQ1Q430gB9Ahl9sfHbDCWlZZgMNQH5kdzv+bE4/XcMeyIKt8x9SYmmLtvLpEkFJdIEopLJAnFJZKE4hJJQnGJJNH+fju34smU7BvYmRBCQ1Z1g8rwBfz9aNvZUkqB7JoykqUOITtTkK1fCoetrHDNGgbJx+crUbpQKWVqUPkOFex0zR41HucKk+/Q9ukxhW20XLKs8dw7fZ0AyywjXWq4f1Flv28ukST+A+UOQxS9OGqnAAAAAElFTkSuQmCC;imageBorder=default;" vertex="1" parent="1">
          <mxGeometry x="530" y="216" width="56.5" height="50.98" as="geometry" />
        </mxCell>
        <mxCell id="aVhDxT10VZlNodA0CYwv-17" value="" style="shape=flexArrow;endArrow=classic;html=1;rounded=0;fontFamily=Times New Roman;strokeColor=#6c8ebf;exitX=1;exitY=0.5;exitDx=0;exitDy=0;fillColor=#dae8fc;" edge="1" parent="1">
          <mxGeometry width="50" height="50" relative="1" as="geometry">
            <mxPoint x="297" y="225" as="sourcePoint" />
            <mxPoint x="347" y="225" as="targetPoint" />
          </mxGeometry>
        </mxCell>
        <mxCell id="aVhDxT10VZlNodA0CYwv-18" value="" style="shape=flexArrow;endArrow=classic;html=1;rounded=0;fontFamily=Times New Roman;strokeColor=#6c8ebf;exitX=1;exitY=0.5;exitDx=0;exitDy=0;fillColor=#dae8fc;" edge="1" parent="1">
          <mxGeometry width="50" height="50" relative="1" as="geometry">
            <mxPoint x="450" y="224.5" as="sourcePoint" />
            <mxPoint x="500" y="224.5" as="targetPoint" />
          </mxGeometry>
        </mxCell>
        <mxCell id="aVhDxT10VZlNodA0CYwv-19" value="" style="shape=image;verticalLabelPosition=bottom;labelBackgroundColor=default;verticalAlign=top;aspect=fixed;imageAspect=0;image=data:image/png,iVBORw0KGgoAAAANSUhEUgAAAMgAAADICAYAAACtWK6eAAAAAXNSR0IArs4c6QAAFHJJREFUeF7tnU2MHEcVgF/1bOIgYVASQUIS8E4SxwbxJzghAfZe4LwHEgm8PwNKpGSzUg4gIpC9s+vkAAIRst6AkGBndgwS5LC3ROSA18AtB34EwnYg2z6Awgkpf4RkpwvVTI89O9v1091V1dVVby6WvF3VVa/e1++9+nlFAH8oAZQAVwIEZYMSQAnwJYCAoHagBAQSQEBQPVACCAjqAEqgmATQghSTG5YKRAIISCADjd0sJgEEpJjcsFQgEkBAAhlo7GYxCSAgxeSGpQKRAAISyEBjN4tJAAEpJjcsFYgEEJBABhq7WUwCCEgxuWGpQCSAgAQy0NjNYhJAQIrJDUsFIgEEJJCBxm4WkwACUkxuWCoQCTgByOJj7em9PZgORObOd/P8ufaO84201MDKAJlbPr1IKTlCCLQt9RVfk08CMQDZoZR0QwbGOiDMWvT7/U0AcjLfeOHT1UmAdBoNstp5qh1X14Zq3mwVkCEcyQUAdKeqGe5Sb40bjWgmNEisAjK3fGYX4SilpFUXDg4Sa4DMLa9sAtDFqkcY319aAkFBYgWQU4+2TxIycK3w54cEgoHEEiBnVvizVXSH0sZqyDMlLjGTTqKcBCArEnc4CEisAMJ3r+hOb/3sjEsKgm0ZSmAICl2RuMVxb32t6bPMLAHCC85pq7d+tuOzgOvcN8Upea8hsQUIzVIUSqMZdK3cRkgNEn89AQTEbf10onVq61ek01tfbTnRYI2NQEA0CtPnqkKFBAHxWas1900FEkqhff7c2qrmV1dWHQJSmejr+eLQIEFA6qmnlbY6hYRtG+L+fLEkCEilqlbfl4cCCQJSXx2tvOUKW4hiSqFT55gEAalczerdAHbwDYBsCnoRA9DVui4IIyD11k8nWq8CCaVRq46LwgiIEypW/0acelS0IXXQv7iOkCAg9ddNZ3qgAkndTiUiIM6olx8N8Q0SS4CcvpCVpKHRiJqhnXH2AwNxL3yCxAog2XPmuNXdV1iGec6SBUlKp1ocuLICCFOE0Uk1lgtrairqouXwFY9hv1Qhcf3AlTVA/FYH7F2WBNTOkoDTB64QENRtoxJQg8TdA1cIiFH1wMqvu9eyhIFuHriqFJCNre1FoHAEKEwDAZaK9EACa0JgkEiZUtiJEug+3JoNLv2lD5ipbJMHcA8S64Csb26fjAgs8ICQKQMDhgJ0oz7sICwyabn1dxVIXNsmbw2QH21uTycEVoCAvuyKFDoRhVUExS0QRK2pGyRWANnobrMkZKauOYiBwOrS/Gxw6YMGLmoCJ1JrzPSSuagxITBwQ111S+t0lsQoIMxq0AZsUjqIL4z+mOtF+tDy3ZowF7XRgJU8MmWy6fdhdbk168zFOHWBxBggg1gjAqv5eH2GRMfHxjX51OHAlRFABvFGBMIzy/vMCYUOMLeAwNWkP3QPRr8oghOEwEnKZrrU7hWJowRmfLIk6ceGHUrSc00dgZYrLqnKWZIqD1xpB0QVjtFsVJ6BSmMZFuTLFMUbSAxa4vbSwqwT6XlUIKnqLIlWQFTdgCSBmTL+sCIo7bqvm6h+bEoEd85AorIDuApItAIim61iVuOR+Vkt2dwV3Q5nFCCvEueAIwYKOxDBxZF7msctjRJouuKOqkBi+8CVNkBkroBOOMaVbaO7LbzWzSUFyAPJRmd7U7RmpDIzNbYoK1p7csodVYHE5g5gbYCIFNUUHCOFk0BSOysitR4UOkuLs8qJohVcUqdkJIfE3pYULYCke6p4qV/ipYVZo5espArFvT23blZEaD1ywjH2EREt1jplRRTOklhLAKEHEIGbUzYgV3VLJPGPU19IUZ8k1qPUx0YoI4emfkc7gEWnEm3t2SoNiGRArSqmyNWqixURKbGOjw1XRgUtk+oHrMhz4rMkds6QlAZENKC2lVLk6tluSxGFYGUE8ixlPa65WoLgf2lhtrQ+FO03r5wgHrFyErG0QJ7Z2r7A2RekZUDzCpz3hXRx8LP6JpCnFmssmm108SMi2o7SW18rrb8y/Sr9go3udub9g2z3bhUrtZkzNg66D7yB4bpAmmIEkUuMgBwclVKAuCrsazteE4jZAlqe7SyyL4rpv/M+ODrij7EZrcyPms536JJTrS2IyFzXxaXRNZC66kELsl+StQZEEBRXEn/oUtIq66kSEBc/avUGhH9S0HlAjm/uXt8RPJXuDt4bbrW/1GpWlhiCF6Tr2o1gepZM98el3oAMs5IcWEHXNZi6hM1gSKZggVw/2ahywpFBElOAOCLQvTTXtHIaz/S0Oc9CuTZmo7H3EhCmWKa3l4jgGQHB0gkR0JgkggFDoBPtQdeUlZFs+iw1M1jH3Qa1BsS1OfUxS2EqQcQ4lyw5QsuEZTGx+VK2AdLF+IMJ21tAbE4ZDsBowIpma6Hq4Q2sypW5prbTeeOTH/996y1410037W9LzjURGRxVrVmpCLjWgKRbI3jnMUq5AyrCs2wxZE3SalGYFXnt9Tem/3rpCtx1xwfgrjtun3y/0olJyU7rQZ2uWo/aW5ABIPy9PUbjkPt6uyuEGsu1JYOB+3dKoK3Dmjz8+HcfeuPNN39MaTJYzG1+6C647f3vy3pvO0ng4hRAPDoZeC2l6zD+kp3fN/4hKyzMurtYA0A4M1kDoeR0BVQEyawGy7UFUCjX1jDIpnB1kEWF/fYgZgH3tWlfNuU7zKACCcCJgm5bTPowUzSQn1s+8yAA/GRSHkfvmYZbb75ZRUxqz9RgC07tXSyRm6U7D1MKh3o6oXTWibWx6Fd9AM4UTA9gGU4Tq0wRs1cWik3ml09/iwJ5kqfhHzl2L7zn8GE1AARPuTqtO9lkPwARn5/WYsKP93ZZbizVRHSFlFNF6/JasDwu19zyyg8A6GOidtwwNQWf/uTHVJrKfaYucHgRg7BOyBI2lN0lmgMOY2BMalvaJnaMVWpRVCCZWz5zHgC+ItL8W2+55fWjdx95dzk63Ekap9IPLyxI6mYZOfOsCoeKEqoMSN5njm/tLlIA1ndhMMxr35ce+uZ7Dx268VcEyBdE7yYA39laX3s8jfmk7ztQV00z4XsDiCgWSQcrd2IARTi0Tq/mBYQ9r+p2TUJy6pH2vaSR/BIAPiV6L6X0G+fPnf3e+DNjSaz5KVlZStcILtb5LhXfAJFfc6A4s6UYkO9cnm9qSURXBIzxMqprMgSgdWm+2ZlfOv0ZGhEGxweFloPA4tbTa11Z+9hi4B7ANJvuZc+6kgxO1m7Z370CRMHVGspDAZJjW7ssIOf69xSgc2W+qZwbSjYQuv6usD4T3/v33zxxy3+ungOAiSXy8VbQN4A07u893X5OV9vqWI93gAwgUcgKKEpBKlMyV+EYKaDMNTz09uvwiT89K9LXOIno/T//4dkX66jUOtvsJSAq8Qhvt69MuQDAGbdKpAgyyO/81x/gzn/+MauKF4EmD/TOPZFnvUenTjpVl7eASCwJd21E4lrFl+ebRrM06tQOESTMihz/2/PA/r32I+S5t/bIA88+0x77T50tql9dXgMyFpOM7wni7tFKp0x5KUyBEJgxsb3clNrIZrcOv/oKfPjy8+nr6VZv/eyCqbbUtV7vARkNzGD+nu0cFVy2eWxrl5dCqHZwXItHhnvHuHmDGSCHX33l+731ta/XVYlNtjsYQGRCFFkP14PyMn079L/XXv7zgx+/R1ZHqH9HQNKRP7a1y73no26u1aQyp64W14rUvX8m4UVA2Er0cLtGZuxRd+txzdUKoI8mQEFAAOC+rd1N3rkL0odm0XMVJgasaJ2SgL1Ws3NFZVCkHAICALzg3BfroWJF0M3Kxid4QETulYrSfPQXL9/29jv0KBPvjTeQl/7y5bv/XeRLZaOMaH+Zbx8DXfIMHhCRe3V5vslNrn208/Lnowb5NlDYv02cwAtJnz750uLdv9U1SDrrESyEopuVIejgAeHNXom+qMe68VeB0J8KFZeSr11emP6ZTuXWUZdodd2XeEuHnEZ1ICCcxcHRtvBJYQ8sR0QuqgxCktATrlkSkZul4lKq9NunZ4IGRBh/cGavjvV2f33AreJpBIEXLs81v+iawvDcrKpORbomn/H2ICCc9Y+s+IMF5O/skVfyDOgNU/R21wJ3QRxSi53KeeRf9tmgARH445kB633df3yWkOh3eYROafK5Kwv3/D5PGdPPCiYmEJAJ4YcNCH+BMFNRvAGEnxUSZ7IQkOsS4H1JeTNYvrhYgtgLAUFArkuAG6wKzpv7EKSLTk2K1n5Mu34u1h+0i1VkNqfu07xMCUVTvQjIfkwRkIzMJbJtF3VeKBwD5EACblm/XfzCm25T0ICUmc2p61aTkUJlnBHBGawM2sIGRMNsTp02K06O/+jKBR+285uyJAhI9iU4OJtjSuNqVm/QgOBsTs20tYLmhg3IMONHZoI03LhXgTY6+MqgAWHjIUjWgEGrgwpru0kICD9JNcYhtrXRwfcFD0jZI7cOjqm0SYMbuRrphTsUjrAC7KZa9q9v1xdIhSF5AAERxCE+LZyxzJIEYIEOLwKV/tg9gv0+rI5f7ywt5OEDwQOSxiG8u0Bq7WaN3QKlBAVPv3XfFlwnjhAQDxPH6QLjgCLX9J7BMkAiIJLNe+y+cdKHmbqsNj+ztX1B1Y0qrDgKN3QVrtuxgghIOiCi9D91iEXYHYG0AZvG4biuwO0oga4vdxHyuERAUslILu102oqk98Sz3bnCq6AzlIDd0BtTeq1crvIhxCYIyJjWiKwIc7VcvF2KWY4kyt4NkBVDyK5lTmE7AQDjlw6JHJ/c12s75kUJm4OAjIlHdk2Ai66WUsxBoZNQ6C63ZnfyKGcOy8S90i7P+1x8FgGZGBXZNWwu5Y5SgCNOEmjlBWNSUTe62+z+eZlF8RISBCTjsyW7I52XddHmFzBV2rZo7UJ01XXetqpYkyiBpm9BOwKSoSkyV4vFI5RA58pcczWvoul4XhZ3sOBZJxyjNqfvFd1UZeS9OmRWtA4EhCM5hfvSoSp3S2I9uLf4FlWS8XIySHyzIgiIQGtEmdDHilmd3ZJYDyszSiJATVkvHXAXqQMBkUhNFRJCoGXjDnWJ9bAWKG90tjeBDAL3A78kgZmyEwNFlNlEGQREQaqKkACbBo4IdE2CIpi5MupaTYopDdpZPJL1swaqwvCVegQBURSfKiSDAB5gJ+rDqu79WxL3yrpS8qyIT24WAqIICHssByTs8SEoABcvzTc7OV7DfVTkXi0tzHKvi9Px7qw62BkToNnXZ/sSrCMgObVHYQqYV+NgapgBA3sQF7EuAkCsulfjHdzobrOkFwf3cHmy4xcByQkIe5xBkkzBAsnOqZWnxjh9mFmbWOaWCeIP6+7VqJNcQAAqa1OeAZA9i4DIJCT4e7othW3DyLULVlClcNewk4DwZrModJYWZ1slxOtEUQSk5DBotCaDlogWHze62zSzuRW6M9zpXgSkpGYNi1sPLLW0OqOSQZ7bBpykAKUsimjHMA+QKtcdeHGRLzNZaEE0EzMAZQqmEwoLZLgDNtdPYkGcC4jRguQa3twPe2NBsno+ggUoTFOABci4i2SinHDbioszRi7GRbm1UFAALYhOaSrUNQ7N6PGEwJGIwlXZeglXGSv093EWS2HQSzzitQUpIZfMoq6tXAtX9iucONApd7QgOqVpuC7XVq5dW9k3IX4ExIRUDdbpkksjaEtlK/u6RY+A6Jao4fpE59Bt7n/C3bwAvfU14yGC8RcY1lfr1TtzHoS3BwsAbIJqegDQgpiWsIH6Ba4Nu8bA+GElPFE4HFS0IAaUW0eVsowmJr/gEtfKK+vBxgotiA6NraAOkRVhZ1GiBGZ0p+CRwQGe7OAdH04EpALl1vFKmRXRDYnt9+mQkY46EBAdUqyoDgWlZdtBW1EfdspYE4UMjlZinyrEjIBUIXWN7xRlFxl7TQwEVvOColg3e40Xh6OyhiUoQBYfa093nmqPTvFpVNNqq5LEI/sax7ahU4Bu0od4/MLOwbaRxvD+wjx3GUKF+8BsSD0YQE49emaFEBjlso0bjWjGJ1hU3CADCuWt5RjJKghA5pZXNgHo5NmMuLe+1jSgNJVVqRSTaGqdjfUWTU0tVU0ggJzJPGhEaTRz/lw7150ZpaRtobDiVQVlWqLlSoUyDbBZNhRAMs9y+wjISHnSAJvFFNoSSrBAf2l+VkuOL5tKXuZdCIhnFmRcGQaBN4EVIIPguzgonpztKAIKAuIxIOMKMbp7kBA4mV7ayQeGQkd2l2ERZatjGQQkEECylJNZmD2A6fHp3joqsck2IyABA2JSsXypGwFBQHzRZSP9QEAQECOK5UulCAgC4osuG+kHAoKAGFEsXypFQBAQX3TZSD8QEATEiGL5UikCgoD4ostG+oGAICBGFMuXShEQBMQXXTbSDwQEATGiWL5UioAgIL7ospF+ICAIiBHF8qVSBAQB8UWXjfQDAUFAjCiWL5UiIAiIL7pspB9zy6cXAchmVuXeJK+eWz59AYAMcj7t/9Gd3vrZGSOSxUq9kABfd0int77aMt1JK/eDTOTE2tcnSqE9NRV1fcqRZXrQQqifJRns9+lKRrqotPseATLsbMJS/+APJaBFArYy4lixIEwinORxWoSFlYQmATvWg0nVGiCpFblQKv1NaHqA/c2UgI3gfPRia4CwF6KrhRpfUgIxpVHLZjZOq4Bch0QUfJUUIRb3VALVzHhaB2Q0esP5bVjInv71dIyxW3klEAPQmFKyc/7c2mrewjqerwyQ8cYz12tvr0RqTh2SwDqck4BNV4rXeScAcW5ksEEogVQCCAiqAkpAIAEEBNUDJYCAoA6gBIpJAC1IMblhqUAkgIAEMtDYzWISQECKyQ1LBSIBBCSQgcZuFpMAAlJMblgqEAkgIIEMNHazmAQQkGJyw1KBSAABCWSgsZvFJICAFJMblgpEAghIIAON3SwmAQSkmNywVCASQEACGWjsZjEJICDF5IalApEAAhLIQGM3i0ng/2ZuKIzoCTlDAAAAAElFTkSuQmCC;" vertex="1" parent="1">
          <mxGeometry x="660" y="185.03" width="79.44" height="79.44" as="geometry" />
        </mxCell>
        <mxCell id="aVhDxT10VZlNodA0CYwv-20" value="" style="shape=flexArrow;endArrow=classic;html=1;rounded=0;fontFamily=Times New Roman;strokeColor=#6c8ebf;exitX=1;exitY=0.5;exitDx=0;exitDy=0;fillColor=#dae8fc;" edge="1" parent="1">
          <mxGeometry width="50" height="50" relative="1" as="geometry">
            <mxPoint x="600" y="224.5" as="sourcePoint" />
            <mxPoint x="650" y="224.5" as="targetPoint" />
          </mxGeometry>
        </mxCell>
      </root>
    </mxGraphModel>
  </diagram>
</mxfile>
